<?xml version="1.0" encoding="UTF-8"?>
<svg id="Layer_1" data-name="Layer 1" xmlns="http://www.w3.org/2000/svg" xmlns:xlink="http://www.w3.org/1999/xlink" viewBox="0 0 207.596 45.75">
  <defs>
    <style>
      .cls-1, .cls-2 {
        fill: #fff;
      }

      .cls-3 {
        fill: #58595b;
      }

      .cls-3, .cls-2, .cls-4, .cls-5 {
        fill-rule: evenodd;
      }

      .cls-6 {
        clip-path: url(#clippath-2);
      }

      .cls-4 {
        fill: #ec1b2e;
      }

      .cls-7 {
        clip-path: url(#clippath-1);
      }

      .cls-8 {
        clip-path: url(#clippath);
      }

      .cls-9 {
        fill: none;
      }

      .cls-10 {
        clip-path: url(#clippath-3);
      }
    </style>
    <clipPath id="clippath">
      <polyline class="cls-9" points="144.25 0 144.25 45.75 0 45.75 0 0"/>
    </clipPath>
    <clipPath id="clippath-1">
      <polyline class="cls-9" points="144.25 0 144.25 45.75 0 45.75 0 0"/>
    </clipPath>
    <clipPath id="clippath-2">
      <polyline class="cls-9" points="144.25 0 144.25 45.75 0 45.75 0 0"/>
    </clipPath>
    <clipPath id="clippath-3">
      <polyline class="cls-9" points="144.25 0 144.25 45.75 0 45.75 0 0"/>
    </clipPath>
  </defs>
  <g>
    <g>
      <path class="cls-1" d="M110.5084,32.6838c-.2402-.3848-.8633-.8164-1.7285-.4805-.2402,.0957-.4551,.2637-.5762,.4805l2.8574,4.9199c.2637,.4082,.6465,.3838,.8398,.2637,.2402-.1436,.4551,.2168,.2637,.3125-.3359,.1924-1.0566,.3125-1.4395-.3604l-2.7363-4.7285c-.0488,.3604-.0488,.6963,.1191,1.0322l2.2559,3.8643c.4082,.7207,1.3203,.9365,1.9922,.5283,.5996-.3838,.8164-1.2725,.457-1.8721l-2.3047-3.96Z"/>
      <path class="cls-1" d="M121.981,25.1711c.4551-.2881,1.5586-.6006,2.5918-.6006,.7676,0,.959,.0723,1.3672,.1445,.4805,.0957,.6484,.1436,1.2734,.0479-.7441-.3604-1.584-.5762-2.6406-.5762-1.1055,0-1.9199,.2158-2.7598,.6484-.2168,.1191-.9121,.3594-1.3691-.3604-.1191-.2158,.1914-.4326,.3594-.1924,.2656,.4082,.6719,.3359,.8418,.1924,.3594-.2158,1.6074-.6719,2.9277-.6719,1.584,0,2.7109,.5762,3.0957,.792,.3125-.168,.5527-.3359,.6953-.5039l.8652-.9121c-1.3691-.8887-2.9531-1.3926-4.6562-1.3926-1.5605,0-2.9277,.4082-3.9375,.9844-.791,.4561-.8867,1.3438-.4551,1.9922,.4082,.5996,1.2246,.7676,1.8008,.4082Z"/>
      <path class="cls-1" d="M97.3795,35.8752h-4.3672c-.4082,0-.793-.3838-.793-.792v-2.9043c0-.3115,.2656-.792,.793-.792h3.5273c.6973,0,1.1055-.3115,1.3691-.8154,.168-.3604,.2871-1.0322-.4316-1.752l-3.8887-3.8408h3.3848c.8398,0,1.3906-.6484,1.3906-1.416,0-.7441-.6465-1.3682-1.3906-1.3682h-6.793c-1.1523,0-1.8496,1.4639-.9609,2.3525l4.1055,4.0557h-2.5215c-.7441,0-1.3672,.624-1.3672,1.3682v7.2725c0,.8164,.623,1.3926,1.3926,1.3926h6.5508c.8164,0,1.3926-.6484,1.3926-1.3926,0-.7676-.5762-1.3682-1.3926-1.3682Zm-5.2559-11.6641h4.8496c.3828,0,.623-.3125,.623-.6484,0-.0957,.0723-.2158,.2168-.2158,.0957,0,.168,.1201,.168,.2158,0,.6484-.4805,1.0322-1.0078,1.0322h-4.3203c-.168,0-.2168,.0479-.1211,.168l.4082,.3838c.168,.2158-.168,.4082-.3125,.2637l-.6953-.6953c-.3125-.3125-.0723-.5039,.1914-.5039Zm-.4805,2.208c-.1914-.2158,.0723-.5039,.2891-.2881l2.1602,2.1123c.1445,.168-.1211,.4795-.2891,.2881l-2.1602-2.1123Zm-.1914,5.7598c0-.9355,.7441-1.5596,1.5605-1.5596h3.625c.3359,0,.623-.2881,.623-.624,0-.0957,.0723-.1924,.2168-.1924,.0957,0,.168,.0967,.168,.1924,0,.6475-.5039,1.0078-1.0078,1.0078h-3.625c-.6973,0-1.1758,.5518-1.1758,1.1758v3.5049c0,.0723-.0723,.1914-.1934,.1914-.1191,0-.1914-.1191-.1914-.1914v-3.5049Zm5.9277,6.0732h-6.5508c-.0723,0-.1445-.0723-.1445-.168,0-.1201,.0723-.2168,.168-.2168h6.5273c.3379,0,.625-.2871,.625-.624,0-.0957,.0723-.1914,.2168-.1914,.0957,0,.168,.0957,.168,.1914,0,.6484-.5039,1.0088-1.0098,1.0088Z"/>
      <path class="cls-1" d="M112.1881,27.091c0-2.6885-2.2324-4.8965-4.873-4.8965h-3.6953c-.2402,0-.4316,.0479-.6484,.168-.7207,.3604-.959,1.3203-.5762,1.9443l2.6172,4.5127h.4551l-2.1113-3.6963c-.1445-.1924,.1914-.4082,.3359-.1445l2.2559,3.8408h1.416c.1914,0,.4082-.0488,.4082-.0488l-1.5371-2.6162c-.3594-.6475,.2656-1.1035,.7695-1.1279l.3594-.0234c1.1289-.0723,2.1113,.9355,2.1113,2.0879s-.959,2.1123-2.1113,2.1123h-3.5273c-.7207,0-1.3926,.5518-1.3926,1.3916v6.7451c0,.792,.6484,1.3682,1.416,1.3682,.7441,0,1.3672-.624,1.3672-1.3447v-4.5117c0-.4326,.3848-.8643,.8398-.8643h1.2969c2.5195,0,4.8242-2.1123,4.8242-4.8965Zm-4.8242-2.4727c-.5273,0-1.1035,.1924-1.3438,.4082-.2637,.1924-.4805-.2158-.1914-.3594,.4316-.2402,.9355-.4326,1.5352-.4326,1.1758,0,2.1113,.6484,2.5684,1.5605,.1445,.2637-.168,.4316-.3594,.1201-.4336-.7441-1.2012-1.2969-2.209-1.2969Zm-.0957,6.9854h-1.2012c-.4785,0-1.2227,.4072-1.2227,1.248v4.4883c0,.4795-.3613,.9834-1.0078,.9834-.0977,0-.2168-.0713-.2168-.168,0-.1436,.1191-.2158,.2168-.2158,.3359,0,.623-.2637,.623-.5996v-4.4648c0-.8877,.6953-1.6562,1.6074-1.6562h1.2969c2.1602,0,4.0566-1.8477,4.0566-4.1279,0-.6006-.1445-1.1279-.3125-1.5605-.0957-.3115,.2891-.3838,.3848-.0957,.168,.4561,.3125,1.0078,.3125,1.6562,0,2.4482-1.9922,4.5127-4.5371,4.5127Z"/>
      <path class="cls-1" d="M130.8131,26.6584l-1.0312,1.1045c.3594,.624,.623,1.6807,.623,2.6406,0,3.2402-2.5918,5.8564-5.832,5.8564-.5527,0-1.5605-.1201-2.2559-.4561l-1.0566,1.0801c-.5273,.624-.1445,1.4395,.3594,1.6318,.3613,.1201,1.5605,.5039,2.9531,.5039,4.752,0,8.6172-3.8643,8.6172-8.6162,0-1.5361-.5059-3.0967-.7441-3.5283-.3125-.5762-1.1055-.7441-1.6328-.2168Zm-6.2402,11.9775c-1.4648,0-2.4961-.3604-2.9766-.5518-.2168-.0967-.1445-.4805,.1445-.3359,.3359,.1191,1.4629,.5039,2.832,.5039,4.2969,0,7.8477-3.4805,7.8477-7.8486,0-1.0801-.2148-1.8965-.4785-2.7129-.1211-.3115,.2383-.4072,.3359-.1201,.3105,.8643,.5273,1.7051,.5273,2.833,0,4.5361-3.6973,8.2324-8.2324,8.2324Z"/>
      <path class="cls-1" d="M146.8209,27.8351c-.6973,.2158-.9121,.8398-.8164,1.4404,.0957,.6475,.1191,1.1279,.0469,1.7998-.2637,2.4961-2.0879,4.3926-3.9844,4.8965-.8867,.2402-2.2559-.4561-2.2559-1.8242v-7.3447c0-1.3203,1.2012-2.4004,2.7363-2.04,.7695,.1914,2.1367,1.2959,2.7852,2.3281,.2871,.4561,.7441,.5518,.959,.5762,.2891-.2158,.6719-.2646,.8887-.2881,.5273-.4082,.5039-1.1758,.1914-1.6807-.8145-1.3438-2.5195-2.8799-4.7031-3.5518-2.0879-.6484-3.7695-.3125-4.584-.1201-.457,.0957-1.0566,.6484-1.0566,1.3203v14.0654c0,.7432,.5039,1.2715,1.127,1.3916,.6016,.0957,1.3926,.1924,2.0898,.1924,3.3828,0,6.9844-2.3047,8.1602-6.0967,.4551-1.4883,.4551-2.9043,.1914-4.0322-.1914-.8887-1.0312-1.248-1.7754-1.0322Zm-1.248-3.6006c.5039,.3838,.8633,.7197,1.4883,1.6084,.168,.2637,.2402,.5283,.1191,.8154-.0723,.2402-.4316,.1924-.3359-.1436,.0957-.2637-.0723-.3838-.2402-.6484-.2871-.3838-.7441-.9834-1.1992-1.2715-.3359-.2402-.0488-.5283,.168-.3604Zm-6.5293,2.5684c0-.8398,.4082-2.1123,1.8242-2.7119,.1914-.0723,.7441-.2402,1.3203-.1924,.3359,.0244,.3594,.4082-.0234,.3838-.6016-.0479-1.1289,.1445-1.2969,.2158-1.2246,.6006-1.4395,1.7764-1.4395,2.3047v7.417c0,.5996,.2871,1.2002,.6484,1.5361,.168,.168-.0254,.5039-.2656,.2393-.5996-.5273-.7676-1.3682-.7676-1.7754v-7.417Zm1.1523,11.833c-.7676,0-1.4883-.0957-2.1602-.2881-.3125-.0723-.2402-.4561,.0488-.3838,.6465,.1914,1.3438,.2881,2.1113,.2881,4.2969,0,7.8477-3.4805,7.8477-7.8486,0-.6006-.0703-.96-.1426-1.3447-.0488-.2881,.3359-.3838,.3828-.0713,.0488,.3115,.1445,.7432,.1445,1.416,0,4.5361-3.6953,8.2324-8.2324,8.2324Z"/>
      <path class="cls-1" d="M132.397,22.3869c-.5527-.5283-1.4395-.5283-1.9434,.0479l-13.5859,14.5449c-.5273,.5762-.4805,1.4404,.0957,1.9678,.5293,.4805,1.3926,.5049,1.9453-.0713l13.5605-14.5693c.5039-.6006,.4551-1.416-.0723-1.9199Zm-.2168,1.6553l-13.5605,14.5693c-.3359,.3848-.9355,.4805-1.416,.0488-.0723-.0723-.0957-.1924-.0234-.2881,.0723-.0967,.2148-.0723,.2871,0,.2637,.2393,.6484,.2158,.8652-.0488l13.5605-14.4971c.0723-.0957,.1914-.0957,.2637,0,.0723,.0723,.0723,.1445,.0234,.2158Z"/>
      <path class="cls-1" d="M118.5963,34.5558c.1191-.168,.3359-.5283,.3594-.6719-.5039-.7686-1.0078-2.0645-1.0078-3.4805,0-1.6807,.6953-3.2168,1.4395-4.0811,.1934-.1914,.4082,.0488,.3125,.2168-.791,1.0557-1.3672,2.2803-1.3672,3.8643,0,1.1758,.3828,2.3516,.7676,2.9756,0-.2881,.1191-.5518-.0957-1.1758-.168-.5762-.2891-1.1758-.2891-1.7998,0-1.5605,.625-2.833,1.3691-3.7686,.4082-.5039,.3359-.792,.3105-1.1523-.4062-.1914-.6719-.7197-.7422-.9121-.5527-.3838-1.2969-.1436-1.6816,.2881-1.0312,1.2002-2.0156,3.2646-2.0156,5.5449,0,1.8721,.6484,3.7676,1.7285,5.1357l.9121-.9834Z"/>
      <path class="cls-1" d="M42.5162,34.5558c.1201-.168,.3359-.5283,.3604-.6719-.5044-.7686-1.0083-2.0645-1.0083-3.4805,0-1.6807,.6963-3.2168,1.4399-4.0811,.1924-.1914,.4082,.0488,.312,.2168-.792,1.0557-1.3682,2.2803-1.3682,3.8643,0,1.1758,.3843,2.3516,.7686,2.9756,0-.2881,.1196-.5518-.0962-1.1758-.168-.5762-.2881-1.1758-.2881-1.7998,0-1.5605,.624-2.833,1.3682-3.7686,.4082-.5039,.3359-.792,.312-1.1523-.4082-.1914-.6719-.7197-.7441-.9121-.5518-.3838-1.2959-.1436-1.6802,.2881-1.0322,1.2002-2.0161,3.2646-2.0161,5.5449,0,1.8721,.6479,3.7676,1.728,5.1357l.9121-.9834Z"/>
      <path class="cls-1" d="M45.9005,25.1711c.4561-.2881,1.5601-.6006,2.5923-.6006,.7681,0,.96,.0723,1.3682,.1445,.48,.0957,.6479,.1436,1.272,.0479-.7441-.3604-1.584-.5762-2.6401-.5762-1.104,0-1.9199,.2158-2.7603,.6484-.2158,.1191-.9121,.3594-1.3682-.3604-.1201-.2158,.1924-.4326,.3604-.1924,.2637,.4082,.6719,.3359,.8398,.1924,.3599-.2158,1.6084-.6719,2.9282-.6719,1.584,0,2.7124,.5762,3.0962,.792,.312-.168,.5522-.3359,.6963-.5039l.8638-.9121c-1.3677-.8887-2.9521-1.3926-4.6562-1.3926-1.5601,0-2.9282,.4082-3.936,.9844-.7925,.4561-.8882,1.3438-.4561,1.9922,.4077,.5996,1.2236,.7676,1.7998,.4082Z"/>
      <path class="cls-1" d="M31.6217,22.8908c-.2642-.6719-.8643-.9121-1.272-.9121-.3604,0-1.1284,.1436-1.3921,.9834l-2.4966,8.5449c-.2397,.7441,.168,1.5127,.936,1.7285,.7202,.1924,1.4883-.1924,1.7285-.96l1.3198-4.5127,2.9282,8.1123h-3.6963c-.4561,0-.6479-.2637-.8159-.6475l-.5522-1.584c-.168,.0234-.2397,.0479-.3838,.0479l.6001,1.6797c.0479,.1924,.0239,.2881-.0962,.3359-.1201,.0488-.1919-.0479-.2642-.168l-.6719-1.8477c-.0962,0-.168-.0244-.2402-.0479-.96-.2646-1.4639-1.3447-1.1997-2.2803l.2397-.8887-2.4722-6.8398c-.0239-.0967,0-.2646,.0962-.3125,.1201-.0479,.2158,.0244,.2637,.168l2.3286,6.3604,.168-.6475-2.3042-6.3369c-.1201-.3838-.6724-.8877-1.2241-.8877-.5762,0-1.2002,.2637-1.416,.96l-4.1528,14.0176c-.1919,.6475,.1924,1.5117,.9604,1.7041,.7197,.2158,1.4878-.168,1.7041-.9365l2.9521-9.9844,3.6245,9.96c.1196,.3848,.5518,.9365,1.3198,.9365h7.1768c.9839,0,1.6802-.8643,1.3203-1.8965l-5.0166-13.8486Zm-2.8804,9.2881c-.1201,.4561-.6479,.8643-1.248,.6729-.0962-.0244-.168-.1445-.144-.2402,.0239-.1201,.168-.1445,.2642-.1201,.312,.0957,.6719-.0723,.7681-.4316l1.4399-4.873c.0239-.1201,.144-.1914,.2402-.1436,.1201,.0234,.144,.1436,.1201,.2637l-1.4404,4.8721Zm-8.8809,5.4492c-.1196,.4795-.624,.8643-1.248,.6475-.0718-.0234-.168-.1201-.1201-.2158,.0244-.1436,.144-.168,.2402-.1436,.312,.0957,.6719-.0723,.7681-.4326l3.0483-10.2969c.0239-.1201,.168-.1914,.2642-.1436,.0957,.0234,.1196,.1436,.0957,.2637l-3.0483,10.3213Zm15.4575,.624h-7.1768c-.0718,0-.144-.0723-.144-.168,0-.1201,.0723-.2168,.168-.2168h7.1528c.5522,0,.7441-.4795,.6001-.8877l-4.8726-13.3447c-.0479-.0967,0-.2646,.0962-.3125,.144-.0479,.2158,.0244,.2637,.168l4.8726,13.3691c.2163,.5762-.0239,1.3926-.96,1.3926Z"/>
      <path class="cls-1" d="M54.7335,26.6584l-1.0322,1.1045c.3599,.624,.624,1.6807,.624,2.6406,0,3.2402-2.5923,5.8564-5.8325,5.8564-.5518,0-1.5601-.1201-2.2563-.4561l-1.0557,1.0801c-.5283,.624-.144,1.4395,.3599,1.6318,.3599,.1201,1.5601,.5039,2.9521,.5039,4.7524,0,8.6167-3.8643,8.6167-8.6162,0-1.5361-.5039-3.0967-.7441-3.5283-.312-.5762-1.104-.7441-1.6318-.2168Zm-6.2407,11.9775c-1.4639,0-2.4961-.3604-2.9761-.5518-.2163-.0967-.144-.4805,.144-.3359,.3359,.1191,1.4639,.5039,2.832,.5039,4.2964,0,7.8486-3.4805,7.8486-7.8486,0-1.0801-.2158-1.8965-.48-2.7129-.1201-.3115,.2402-.4072,.3359-.1201,.312,.8643,.5283,1.7051,.5283,2.833,0,4.5361-3.6963,8.2324-8.2329,8.2324Z"/>
      <path class="cls-1" d="M56.3175,22.3869c-.5522-.5283-1.4399-.5283-1.9443,.0479l-13.585,14.5449c-.5278,.5762-.48,1.4404,.0962,1.9678,.5278,.4805,1.3921,.5049,1.9438-.0713l13.5615-14.5693c.5039-.6006,.4561-1.416-.0723-1.9199Zm-.2158,1.6553l-13.5615,14.5693c-.3359,.3848-.936,.4805-1.416,.0488-.0718-.0723-.0957-.1924-.0239-.2881,.0718-.0967,.2158-.0723,.2881,0,.2642,.2393,.6479,.2158,.8638-.0488l13.5615-14.4971c.0718-.0957,.1919-.0957,.2637,0,.0723,.0723,.0723,.1445,.0244,.2158Z"/>
      <path class="cls-1" d="M70.6925,27.091c0-2.6885-2.2314-4.8965-4.8721-4.8965h-3.6963c-.2402,0-.4321,.0479-.6479,.168-.7202,.3604-.9604,1.3203-.5762,1.9443l2.6162,4.5127h.4561l-2.1123-3.6963c-.144-.1924,.1919-.4082,.3359-.1445l2.2563,3.8408h1.416c.1919,0,.4082-.0488,.4082-.0488l-1.5361-2.6162c-.3604-.6475,.2642-1.1035,.7681-1.1279l.3599-.0234c1.1279-.0723,2.1123,.9355,2.1123,2.0879s-.96,2.1123-2.1123,2.1123h-3.5283c-.7197,0-1.3921,.5518-1.3921,1.3916v6.7451c0,.792,.6479,1.3682,1.416,1.3682,.7441,0,1.3682-.624,1.3682-1.3447v-4.5117c0-.4326,.3843-.8643,.8403-.8643h1.2959c2.5205,0,4.8242-2.1123,4.8242-4.8965Zm-4.8242-2.4727c-.5278,0-1.104,.1924-1.3442,.4082-.2637,.1924-.48-.2158-.1919-.3594,.4321-.2402,.936-.4326,1.5361-.4326,1.1758,0,2.1123,.6484,2.5684,1.5605,.1436,.2637-.168,.4316-.3604,.1201-.4316-.7441-1.2002-1.2969-2.208-1.2969Zm-.0957,6.9854h-1.2002c-.48,0-1.2241,.4072-1.2241,1.248v4.4883c0,.4795-.3604,.9834-1.0083,.9834-.0957,0-.2158-.0713-.2158-.168,0-.1436,.1201-.2158,.2158-.2158,.3359,0,.624-.2637,.624-.5996v-4.4648c0-.8877,.6963-1.6562,1.6084-1.6562h1.2959c2.1602,0,4.0566-1.8477,4.0566-4.1279,0-.6006-.1445-1.1279-.3125-1.5605-.0957-.3115,.2881-.3838,.3848-.0957,.168,.4561,.3115,1.0078,.3115,1.6562,0,2.4482-1.9922,4.5127-4.5361,4.5127Z"/>
      <path class="cls-1" d="M80.2447,29.1555l4.6309-4.8486c.6484-.6963,.3613-1.5605-.0469-1.9443-.625-.5996-1.4883-.4805-1.9688,.0479l-5.4473,5.7363c-.2168,.2168-.3613,.5283-.3613,.8643,0,.4326,.1211,.6484,.3848,1.0078l4.4648,5.8564h-3.3848c-.4082,0-.793-.3838-.793-.792v-4.0322l-.3828-.4795v5.04c0,.3359-.3848,.3359-.3848,0v-5.5684c-.1914-.2881-.2871-.624-.2871-1.0557,.0234-.3125,.0957-.624,.2871-.8643v-4.7529c0-.2637,.3848-.2637,.3848,.0479v4.249l.3828-.3838v-3.9844c0-.7441-.6465-1.3203-1.3906-1.3203-.7446,0-1.3931,.624-1.3931,1.3203v13.9443c0,.6963,.5039,1.3926,1.3931,1.3926h8.3516c.5527,0,.9844-.2881,1.2012-.6963,.2871-.5039,.2383-1.0557-.1445-1.584l-5.4961-7.2002Zm-.7441-.3125l4.8008-5.04c.2148-.2402,.2871-.624,0-.8887-.0488-.0479-.0977-.168,0-.2881,.0703-.0713,.2148-.0479,.2637,0,.4551,.4326,.3594,1.1045,.0234,1.4404l-4.8477,5.0645,.1191,.168c.168,.2158-.1191,.4561-.2637,.2402l-.168-.2158c-.0957-.1445-.0723-.3359,.0723-.4805Zm-1.8008,.9121c-.168-.1924,.1191-.4795,.2891-.2402l4.6309,6.0488c.1445,.168-.1914,.4082-.3359,.2402l-4.584-6.0488Zm6.9844,8.4971h-8.3516c-.0723,0-.1445-.0723-.1445-.168,0-.1201,.0723-.2168,.168-.2168h8.3281c.3848,0,.8887-.5039,.5039-1.0312-.0723-.0488-.0469-.168,.0957-.2402,.0977-.0479,.168,.0234,.2168,.0723,.5039,.6719-.0234,1.584-.8164,1.584Z"/>
      <path class="cls-1" d="M69.0128,32.6838c-.2402-.3848-.8643-.8164-1.7285-.4805-.2402,.0957-.4561,.2637-.5762,.4805l2.8564,4.9199c.2637,.4082,.6484,.3838,.8398,.2637,.2402-.1436,.4561,.2168,.2646,.3125-.3359,.1924-1.0566,.3125-1.4404-.3604l-2.7363-4.7285c-.0479,.3604-.0479,.6963,.1201,1.0322l2.2559,3.8643c.4082,.7207,1.3203,.9365,1.9922,.5283,.6006-.3838,.8164-1.2725,.4561-1.8721l-2.3037-3.96Z"/>
      <path class="cls-1" d="M187.4752,28.8195l-.5762-.2168c-1.0547-.3594-2.2559-.6475-2.5684-1.7754-.168-.6006,.0488-1.2725,.3848-1.6328,.5273-.5996,1.248-.7197,1.8008-.5518,.7188,.1924,1.9199,.96,2.6875,.7197,.4316-.168,.793-.5273,.9121-1.0322,.1445-.5273-.0957-1.1035-.5527-1.4639-1.2227-.9355-3.5273-1.1523-4.8477-.7441-1.6328,.5039-2.7129,1.5361-3.1211,3.0723-.3359,1.3447-.1426,2.4482,1.25,4.0566,0,0,.3594-.0723,.623,0-.4805-.4082-.5039-.4805-.5762-.624-.0723-.1201,.1211-.4805,.3848-.1924,.4551,.5039,.5762,.6963,1.584,1.2959,.7676,.4805,1.5352,.7686,2.1836,.9844,.3125,.0967,.2402,.5039-.1191,.3838-1.0078-.3359-1.8008-.7197-2.3281-1.0312,.1914,.2393,.2402,.6475,.2402,.6475,0,0,.5508,.2646,.7676,.3604,1.0078,.4082,2.7598,.8164,3.2148,2.2559,.1934,.6963,.1211,1.5127-.3828,2.1367-.7676,.9121-2.041,1.0801-2.9043,.96-.9355-.0967-1.7754-.5527-2.1836-1.416-.4805-1.0566,0-1.9922,.5508-2.7129,.457-.5996,.7441-1.1514,.5293-1.7275-.2656-.7207-.8652-.9365-1.248-.96-.8887-.0488-1.3926,.5996-1.9453,1.416-.9121,1.2959-1.2715,3.4805-.7441,4.8242,.7207,1.8477,2.0156,2.6885,3.793,3.0957,1.5605,.3604,4.0801,.3369,5.8555-1.4395,1.3457-1.3682,1.8008-3.4805,1.4648-4.9209-.4805-2.2803-2.1113-3.0479-4.1289-3.7676Zm-3.8164-2.3291c-.1191,0-.168-.1191-.1426-.3359,.0469-.6953,.4316-1.4395,.8867-1.7754,.9375-.6963,1.6094-.7207,2.6406-.3848,.6719,.2402,.793,.3125,1.5371,.624,.2637,.0967,.623-.0713,.7441-.3359,.0703-.168,.3828-.0234,.3359,.1445-.0977,.3838-.5293,.5996-.8887,.5996-.3848,0-.5996-.2158-.9121-.3359-1.0566-.4316-2.0645-.8164-3.0723-.0957-.625,.4316-.8633,1.1035-.8887,1.584-.0234,.2402-.0957,.3115-.2402,.3115Zm-.168,9.9854c-1.0547-1.0078-1.2227-1.9443-1.0547-2.832,.0703-.4561,.1914-.8408,.5762-1.4648,.1426-.2158,.5996-.7676,.6719-1.0078,.0469-.1914,0-.3359-.0723-.5039-.0488-.1201-.0723-.3115,.168-.3115,.2637,.0713,.3359,.5039,.3125,.792-.0254,.2158-.168,.4561-.3359,.6475-.457,.5762-.6016,.8643-.8418,1.4404-.1426,.3838-.2637,1.0078-.0234,1.7041,.1445,.5039,.7207,1.1279,.8652,1.2725,.168,.1436-.1211,.4316-.2656,.2637Zm6.3848,.6963c-1.6074,1.6318-4.0078,1.7041-5.7363,1.2715-.2871-.0957-.1914-.4795,.1445-.3594,.7207,.2158,1.8242,.2637,2.8086,.0957,1.6562-.3125,3-1.3203,3.5996-3.168,.5273-1.7041,0-3.5527-1.1035-4.249-.2402-.1201,0-.4795,.2871-.2881,.8164,.6006,1.1523,1.5361,1.2734,1.9688,.4062,1.3203,.0234,3.4082-1.2734,4.7285Z"/>
      <path class="cls-1" d="M175.356,21.9787c-.7441,0-1.3926,.5996-1.3926,1.3438v10.417c0,1.2725-1.0547,2.3281-2.3281,2.3281-1.2949,0-2.3281-1.0557-2.3281-2.3281v-10.417c0-.7676-.6465-1.3438-1.3906-1.3438s-1.3926,.5996-1.3926,1.3438v10.417c0,2.832,2.2793,5.1123,5.1113,5.1123,2.8086,0,5.0898-2.2803,5.0898-5.1123v-10.417c0-.7676-.625-1.3438-1.3691-1.3438Zm-5.7598,14.0889c-.625-.4561-1.0566-1.4404-1.0566-2.3281v-10.3926c0-.0967,.0957-.168,.1914-.168,.0977,0,.1934,.0713,.1934,.1436v10.417c0,.792,.4082,1.6318,.9121,2.0645,.1914,.1436-.0488,.4082-.2402,.2637Zm6.7441-2.3281c0,2.6162-2.0879,4.7285-4.7051,4.7285-.4082,0-.791-.0479-1.1035-.1445-.2168-.0479-.168-.4072,.1211-.3594,.3359,.0479,.6465,.1201,.9824,.1201,2.377,0,4.3203-1.9688,4.3203-4.3447v-10.3926c0-.0967,.1211-.168,.2168-.168s.168,.0713,.168,.1436v10.417Z"/>
      <path class="cls-1" d="M202.2349,28.8195l-.5762-.2168c-1.0547-.3594-2.2559-.6475-2.5684-1.7754-.168-.6006,.0488-1.2725,.3848-1.6328,.5273-.5996,1.248-.7197,1.8008-.5518,.7188,.1924,1.9199,.96,2.6875,.7197,.4316-.168,.793-.5273,.9121-1.0322,.1445-.5273-.0957-1.1035-.5527-1.4639-1.2227-.9355-3.5273-1.1523-4.8477-.7441-1.6328,.5039-2.7129,1.5361-3.1211,3.0723-.3359,1.3447-.1426,2.4482,1.25,4.0566,0,0,.3594-.0723,.623,0-.4805-.4082-.5039-.4805-.5762-.624-.0723-.1201,.1211-.4805,.3848-.1924,.4551,.5039,.5762,.6963,1.584,1.2959,.7676,.4805,1.5352,.7686,2.1836,.9844,.3125,.0967,.2402,.5039-.1191,.3838-1.0078-.3359-1.8008-.7197-2.3281-1.0312,.1914,.2393,.2402,.6475,.2402,.6475,0,0,.5508,.2646,.7676,.3604,1.0078,.4082,2.7598,.8164,3.2148,2.2559,.1934,.6963,.1211,1.5127-.3828,2.1367-.7676,.9121-2.041,1.0801-2.9043,.96-.9355-.0967-1.7754-.5527-2.1836-1.416-.4805-1.0566,0-1.9922,.5508-2.7129,.457-.5996,.7441-1.1514,.5293-1.7275-.2656-.7207-.8652-.9365-1.248-.96-.8887-.0488-1.3926,.5996-1.9453,1.416-.9121,1.2959-1.2715,3.4805-.7441,4.8242,.7207,1.8477,2.0156,2.6885,3.793,3.0957,1.5605,.3604,4.0801,.3369,5.8555-1.4395,1.3457-1.3682,1.8008-3.4805,1.4648-4.9209-.4805-2.2803-2.1113-3.0479-4.1289-3.7676Zm-3.8164-2.3291c-.1191,0-.168-.1191-.1426-.3359,.0469-.6953,.4316-1.4395,.8867-1.7754,.9375-.6963,1.6094-.7207,2.6406-.3848,.6719,.2402,.793,.3125,1.5371,.624,.2637,.0967,.623-.0713,.7441-.3359,.0703-.168,.3828-.0234,.3359,.1445-.0977,.3838-.5293,.5996-.8887,.5996-.3848,0-.5996-.2158-.9121-.3359-1.0566-.4316-2.0645-.8164-3.0723-.0957-.625,.4316-.8633,1.1035-.8887,1.584-.0234,.2402-.0957,.3115-.2402,.3115Zm-.168,9.9854c-1.0547-1.0078-1.2227-1.9443-1.0547-2.832,.0703-.4561,.1914-.8408,.5762-1.4648,.1426-.2158,.5996-.7676,.6719-1.0078,.0469-.1914,0-.3359-.0723-.5039-.0488-.1201-.0723-.3115,.168-.3115,.2637,.0713,.3359,.5039,.3125,.792-.0254,.2158-.168,.4561-.3359,.6475-.457,.5762-.6016,.8643-.8418,1.4404-.1426,.3838-.2637,1.0078-.0234,1.7041,.1445,.5039,.7207,1.1279,.8652,1.2725,.168,.1436-.1211,.4316-.2656,.2637Zm6.3848,.6963c-1.6074,1.6318-4.0078,1.7041-5.7363,1.2715-.2871-.0957-.1914-.4795,.1445-.3594,.7207,.2158,1.8242,.2637,2.8086,.0957,1.6562-.3125,3-1.3203,3.5996-3.168,.5273-1.7041,0-3.5527-1.1035-4.249-.2402-.1201,0-.4795,.2871-.2881,.8164,.6006,1.1523,1.5361,1.2734,1.9688,.4062,1.3203,.0234,3.4082-1.2734,4.7285Z"/>
      <path class="cls-1" d="M162.2759,27.091c0-2.6885-2.2324-4.8965-4.873-4.8965h-3.6953c-.2402,0-.4316,.0479-.6484,.168-.7207,.3604-.959,1.3203-.5762,1.9443l2.6172,4.5127h.4551l-2.1113-3.6963c-.1445-.1924,.1914-.4082,.3359-.1445l2.2559,3.8408h1.416c.1914,0,.4082-.0488,.4082-.0488l-1.5371-2.6162c-.3594-.6475,.2656-1.1035,.7695-1.1279l.3594-.0234c1.1289-.0723,2.1113,.9355,2.1113,2.0879s-.959,2.1123-2.1113,2.1123h-3.5273c-.7207,0-1.3926,.5518-1.3926,1.3916v6.7451c0,.792,.6484,1.3682,1.416,1.3682,.7441,0,1.3672-.624,1.3672-1.3447v-4.5117c0-.4326,.3848-.8643,.8398-.8643h1.2969c2.5195,0,4.8242-2.1123,4.8242-4.8965Zm-4.8242-2.4727c-.5273,0-1.1035,.1924-1.3438,.4082-.2637,.1924-.4805-.2158-.1914-.3594,.4316-.2402,.9355-.4326,1.5352-.4326,1.1758,0,2.1113,.6484,2.5684,1.5605,.1445,.2637-.168,.4316-.3594,.1201-.4336-.7441-1.2012-1.2969-2.209-1.2969Zm-.0957,6.9854h-1.2012c-.4785,0-1.2227,.4072-1.2227,1.248v4.4883c0,.4795-.3613,.9834-1.0078,.9834-.0977,0-.2168-.0713-.2168-.168,0-.1436,.1191-.2158,.2168-.2158,.3359,0,.623-.2637,.623-.5996v-4.4648c0-.8877,.6953-1.6562,1.6074-1.6562h1.2969c2.1602,0,4.0566-1.8477,4.0566-4.1279,0-.6006-.1445-1.1279-.3125-1.5605-.0957-.3115,.2891-.3838,.3848-.0957,.168,.4561,.3125,1.0078,.3125,1.6562,0,2.4482-1.9922,4.5127-4.5371,4.5127Z"/>
      <path class="cls-1" d="M160.5963,32.6838c-.2402-.3848-.8633-.8164-1.7285-.4805-.2402,.0957-.4551,.2637-.5762,.4805l2.8574,4.9199c.2637,.4082,.6465,.3838,.8398,.2637,.2402-.1436,.4551,.2168,.2637,.3125-.3359,.1924-1.0566,.3125-1.4395-.3604l-2.7363-4.7285c-.0488,.3604-.0488,.6963,.1191,1.0322l2.2559,3.8643c.4082,.7207,1.3203,.9365,1.9922,.5283,.5996-.3838,.8164-1.2725,.457-1.8721l-2.3047-3.96Z"/>
    </g>
    <path d="M22.5489,27.1867l-3.0483,10.2969c-.0962,.3604-.4561,.5283-.7681,.4326-.0962-.0244-.2158,0-.2402,.1436-.0479,.0957,.0483,.1924,.1201,.2158,.624,.2168,1.1284-.168,1.248-.6475l3.0483-10.3213c.0239-.1201,0-.2402-.0957-.2637-.0962-.0479-.2402,.0234-.2642,.1436Z"/>
    <path d="M30.0616,27.0431c-.0962-.0479-.2163,.0234-.2402,.1436l-1.4399,4.873c-.0962,.3594-.4561,.5273-.7681,.4316-.0962-.0244-.2402,0-.2642,.1201-.0239,.0957,.0479,.2158,.144,.2402,.6001,.1914,1.1279-.2168,1.248-.6729l1.4404-4.8721c.0239-.1201,0-.2402-.1201-.2637Z"/>
    <path d="M32.6055,22.4826c-.312-.8164-1.1519-1.6084-2.2559-1.6084-.9121,0-2.0166,.4805-2.4004,1.8008l-1.104,3.8154-1.4644-4.0078c-.3838-1.0322-1.3682-1.6084-2.2559-1.6084-.8164,0-1.9922,.4082-2.4243,1.8008l-4.1523,13.9443c-.4321,1.5361,.5762,2.7129,1.6318,3.0488,1.2002,.3838,2.6885-.1924,3.0967-1.6562l2.0161-6.8408,2.4961,6.8408c.2402,.624,.96,1.7041,2.3521,1.7041h7.2485c1.6802,0,2.8804-1.7285,2.2803-3.3848l-5.0645-13.8486Zm2.7124,16.1533h-7.1768c-.7681,0-1.2002-.5518-1.3198-.9365l-3.6245-9.96-2.9521,9.9844c-.2163,.7686-.9844,1.1523-1.7041,.9365-.7681-.1924-1.1523-1.0566-.9604-1.7041l4.1528-14.0176c.2158-.6963,.8398-.96,1.416-.96,.5518,0,1.104,.5039,1.2241,.8877l2.3042,6.3369-.168,.6475-2.3286-6.3604c-.0479-.1436-.1436-.2158-.2637-.168-.0962,.0479-.1201,.2158-.0962,.3125l2.4722,6.8398-.2397,.8887c-.2642,.9355,.2397,2.0156,1.1997,2.2803,.0723,.0234,.144,.0479,.2402,.0479l.6719,1.8477c.0723,.1201,.144,.2168,.2642,.168,.1201-.0479,.144-.1436,.0962-.3359l-.6001-1.6797c.144,0,.2158-.0244,.3838-.0479l.5522,1.584c.168,.3838,.3599,.6475,.8159,.6475h3.6963l-2.9282-8.1123-1.3198,4.5127c-.2402,.7676-1.0083,1.1523-1.7285,.96-.7681-.2158-1.1758-.9844-.936-1.7285l2.4966-8.5449c.2637-.8398,1.0317-.9834,1.3921-.9834,.4077,0,1.0078,.2402,1.272,.9121l5.0166,13.8486c.3599,1.0322-.3364,1.8965-1.3203,1.8965Zm-5.8325-4.9688c.2642-.2393,.5278-.6953,.6719-1.0557l.4082-1.416,1.272,3.5996h-1.7998c-.144,0-.2642-.2871-.2642-.2871l-.2881-.8408Z"/>
    <path d="M31.4053,23.4904c-.0479-.1436-.1196-.2158-.2637-.168-.0962,.0479-.144,.2158-.0962,.3125l4.8726,13.3447c.144,.4082-.0479,.8877-.6001,.8877h-7.1528c-.0957,0-.168,.0967-.168,.2168,0,.0957,.0723,.168,.144,.168h7.1768c.936,0,1.1763-.8164,.96-1.3926l-4.8726-13.3691Z"/>
    <path d="M57.1817,25.051c.8877-.9844,.8638-2.5449-.1201-3.4805-1.0083-.9365-2.5684-.8643-3.4565,.1201l-.312,.3359c-1.0801-.7197-3-1.3203-4.8003-1.3203-1.416,0-2.9282,.3125-4.3921,1.0566-.6724,.3359-1.1045,1.0078-1.2241,1.5117-.7441,.0244-1.3442,.3359-1.8242,.9121-.936,1.1045-2.2563,3.3604-2.2563,6.2168,0,2.0879,.6963,3.96,1.6323,5.4004l-.4321,.4561c-.9121,.9834-.8643,2.5439,.144,3.4561,.9839,.9121,2.5923,.8877,3.48-.0957l.5283-.6006c1.1519,.6484,2.8081,1.0566,4.3442,1.0566,5.3286,0,9.6968-4.3447,9.6968-9.6729,0-1.7764-.5039-3.5283-1.3921-4.9443l.3843-.4082Zm-12.625-2.2803c1.0078-.5762,2.376-.9844,3.936-.9844,1.7041,0,3.2886,.5039,4.6562,1.3926l-.8638,.9121c-.144,.168-.3843,.3359-.6963,.5039-.3838-.2158-1.5122-.792-3.0962-.792-1.3198,0-2.5684,.4561-2.9282,.6719-.168,.1436-.5762,.2158-.8398-.1924-.168-.2402-.4805-.0234-.3604,.1924,.4561,.7197,1.1523,.4795,1.3682,.3604,.8403-.4326,1.6562-.6484,2.7603-.6484,1.0562,0,1.896,.2158,2.6401,.5762-.624,.0957-.792,.0479-1.272-.0479-.4082-.0723-.6001-.1445-1.3682-.1445-1.0322,0-2.1362,.3125-2.5923,.6006-.5762,.3594-1.3921,.1914-1.7998-.4082-.4321-.6484-.3364-1.5361,.4561-1.9922Zm5.1841,3.0479l-5.7363,6.1445c-.2402-.5039-.2881-1.0801-.2881-1.5596,0-1.248,.4561-2.2568,1.104-3.0488,.2642-.3115,.4561-.6963,.48-.9121,.3604,0,.8164-.168,1.1045-.3115,.5518-.2881,1.272-.5039,2.0879-.5039,.3843,0,.8643,.0713,1.248,.1914Zm-9.8647,4.585c0-2.2803,.9839-4.3447,2.0161-5.5449,.3843-.4316,1.1284-.6719,1.6802-.2881,.0723,.1924,.3359,.7207,.7441,.9121,.0239,.3604,.0962,.6484-.312,1.1523-.7441,.9355-1.3682,2.208-1.3682,3.7686,0,.624,.1201,1.2236,.2881,1.7998,.2158,.624,.0962,.8877,.0962,1.1758-.3843-.624-.7686-1.7998-.7686-2.9756,0-1.584,.5762-2.8086,1.3682-3.8643,.0962-.168-.1196-.4082-.312-.2168-.7437,.8643-1.4399,2.4004-1.4399,4.0811,0,1.416,.5039,2.7119,1.0083,3.4805-.0244,.1436-.2402,.5039-.3604,.6719l-.9121,.9834c-1.0801-1.3682-1.728-3.2637-1.728-5.1357Zm2.9521,8.4727c-.5518,.5762-1.416,.5518-1.9438,.0713-.5762-.5273-.624-1.3916-.0962-1.9678l13.585-14.5449c.5044-.5762,1.3921-.5762,1.9443-.0479,.5283,.5039,.5762,1.3193,.0723,1.9199l-13.5615,14.5693Zm10.4409-8.4727c0,2.6396-2.1362,4.7764-4.7764,4.7764-.1919,0-.5039-.0244-.6958-.0479l5.3521-5.7607c.0483,.2637,.1201,.7441,.1201,1.0322Zm3.8403,0c0,4.752-3.8643,8.6162-8.6167,8.6162-1.3921,0-2.5923-.3838-2.9521-.5039-.5039-.1924-.8882-1.0078-.3599-1.6318l1.0557-1.0801c.6963,.3359,1.7046,.4561,2.2563,.4561,3.2402,0,5.8325-2.6162,5.8325-5.8564,0-.96-.2642-2.0166-.624-2.6406l1.0322-1.1045c.5278-.5273,1.3198-.3594,1.6318,.2168,.2402,.4316,.7441,1.9922,.7441,3.5283Z"/>
    <path d="M55.8614,27.6906c.2642,.8164,.48,1.6328,.48,2.7129,0,4.3682-3.5522,7.8486-7.8486,7.8486-1.3682,0-2.4961-.3848-2.832-.5039-.2881-.1445-.3604,.2393-.144,.3359,.48,.1914,1.5122,.5518,2.9761,.5518,4.5366,0,8.2329-3.6963,8.2329-8.2324,0-1.1279-.2163-1.9688-.5283-2.833-.0957-.2871-.4561-.1914-.3359,.1201Z"/>
    <path d="M55.8135,23.8264l-13.5615,14.4971c-.2158,.2646-.5996,.2881-.8638,.0488-.0723-.0723-.2163-.0967-.2881,0-.0718,.0957-.0479,.2158,.0239,.2881,.48,.4316,1.0801,.3359,1.416-.0488l13.5615-14.5693c.0479-.0713,.0479-.1436-.0244-.2158-.0718-.0957-.1919-.0957-.2637,0Z"/>
    <path d="M69.6602,31.675c1.248-1.0078,2.1367-2.6162,2.1367-4.584,0-3.2881-2.6885-6.001-5.9766-6.001h-3.6963c-.3604,0-.8403,.0967-1.248,.3359-1.2964,.793-1.5122,2.4004-.8882,3.457l1.9199,3.2637c-.9839,.0967-2.04,1.1523-2.04,2.3281v6.9131c0,1.2725,1.1279,2.4004,2.4722,2.4004,1.3203,0,2.4482-1.1279,2.4482-2.376v-4.2725l3.168,5.4004c.7441,1.2715,2.2803,1.5596,3.4326,.8877,1.1045-.624,1.5361-2.1357,.8164-3.4082l-2.5449-4.3447Zm-5.0879,.3125c-.4561,0-.8403,.4316-.8403,.8643v4.5117c0,.7207-.624,1.3447-1.3682,1.3447-.7681,0-1.416-.5762-1.416-1.3682v-6.7451c0-.8398,.6724-1.3916,1.3921-1.3916h3.5283c1.1523,0,2.1123-.96,2.1123-2.1123s-.9844-2.1602-2.1123-2.0879l-.3599,.0234c-.5039,.0244-1.1284,.4805-.7681,1.1279l1.5361,2.6162s-.2163,.0488-.4082,.0488h-1.416l-2.2563-3.8408c-.144-.2637-.48-.0479-.3359,.1445l2.1123,3.6963h-.4561l-2.6162-4.5127c-.3843-.624-.144-1.584,.5762-1.9443,.2158-.1201,.4077-.168,.6479-.168h3.6963c2.6406,0,4.8721,2.208,4.8721,4.8965,0,2.7842-2.3037,4.8965-4.8242,4.8965h-1.2959Zm2.4004-4.2725l-1.1045-1.8721c.4082,0,.792,.168,1.0566,.5762,.3115,.4561,.2158,1.0078,.0479,1.2959Zm3.8877,10.8008c-.6719,.4082-1.584,.1924-1.9922-.5283l-2.2559-3.8643c-.168-.3359-.168-.6719-.1201-1.0322l2.7363,4.7285c.3838,.6729,1.1045,.5527,1.4404,.3604,.1914-.0957-.0244-.4561-.2646-.3125-.1914,.1201-.5762,.1445-.8398-.2637l-2.8564-4.9199c.1201-.2168,.3359-.3848,.5762-.4805,.8643-.3359,1.4883,.0957,1.7285,.4805l2.3037,3.96c.3604,.5996,.1445,1.4883-.4561,1.8721Z"/>
    <path d="M69.9971,25.4347c-.0967-.2881-.4805-.2158-.3848,.0957,.168,.4326,.3125,.96,.3125,1.5605,0,2.2803-1.8965,4.1279-4.0566,4.1279h-1.2959c-.9121,0-1.6084,.7686-1.6084,1.6562v4.4648c0,.3359-.2881,.5996-.624,.5996-.0957,0-.2158,.0723-.2158,.2158,0,.0967,.1201,.168,.2158,.168,.6479,0,1.0083-.5039,1.0083-.9834v-4.4883c0-.8408,.7441-1.248,1.2241-1.248h1.2002c2.5439,0,4.5361-2.0645,4.5361-4.5127,0-.6484-.1436-1.2002-.3115-1.6562Z"/>
    <path d="M68.4366,25.7951c-.4561-.9121-1.3926-1.5605-2.5684-1.5605-.6001,0-1.104,.1924-1.5361,.4326-.2881,.1436-.0718,.5518,.1919,.3594,.2402-.2158,.8164-.4082,1.3442-.4082,1.0078,0,1.7764,.5527,2.208,1.2969,.1924,.3115,.5039,.1436,.3604-.1201Z"/>
    <path d="M79.5963,29.5392c.1445,.2158,.4316-.0244,.2637-.2402l-.1191-.168,4.8477-5.0645c.3359-.3359,.4316-1.0078-.0234-1.4404-.0488-.0479-.1934-.0713-.2637,0-.0977,.1201-.0488,.2402,0,.2881,.2871,.2646,.2148,.6484,0,.8887l-4.8008,5.04c-.1445,.1445-.168,.3359-.0723,.4805l.168,.2158Z"/>
    <path d="M82.6197,35.5637l-4.6309-6.0488c-.1699-.2393-.457,.0479-.2891,.2402l4.584,6.0488c.1445,.168,.4805-.0723,.3359-.2402Z"/>
    <path d="M81.6842,29.2267l3.9609-4.1523c.959-1.0322,.8867-2.5918-.0723-3.5039-.9844-.9365-2.4492-.9844-3.5293,.1201l-3.2637,3.4326v-1.8008c0-1.3203-1.0801-2.4482-2.4473-2.4482-1.3687,0-2.4731,1.1279-2.4731,2.4482v13.9209c0,1.3682,1.1045,2.4727,2.4731,2.4727h8.3516c1.3691,0,2.4727-1.1045,2.4727-2.4727,0-.5273-.2402-1.1514-.5762-1.6074l-4.8965-6.4092Zm4.2012,8.7129c-.2168,.4082-.6484,.6963-1.2012,.6963h-8.3516c-.8892,0-1.3931-.6963-1.3931-1.3926v-13.9443c0-.6963,.6484-1.3203,1.3931-1.3203,.7441,0,1.3906,.5762,1.3906,1.3203v3.9844l-.3828,.3838v-4.249c0-.3115-.3848-.3115-.3848-.0479v4.7529c-.1914,.2402-.2637,.5518-.2871,.8643,0,.4316,.0957,.7676,.2871,1.0557v5.5684c0,.3359,.3848,.3359,.3848,0v-5.04l.3828,.4795v4.0322c0,.4082,.3848,.792,.793,.792h3.3848l-4.4648-5.8564c-.2637-.3594-.3848-.5752-.3848-1.0078,0-.3359,.1445-.6475,.3613-.8643l5.4473-5.7363c.4805-.5283,1.3438-.6475,1.9688-.0479,.4082,.3838,.6953,1.248,.0469,1.9443l-4.6309,4.8486,5.4961,7.2002c.3828,.5283,.4316,1.0801,.1445,1.584Zm-7.1055-3.4561v-.8877l.9121,1.1758h-.6484c-.168,0-.2637-.1445-.2637-.2881Z"/>
    <path d="M85.2838,36.5959c-.1426,.0723-.168,.1914-.0957,.2402,.3848,.5273-.1191,1.0312-.5039,1.0312h-8.3281c-.0957,0-.168,.0967-.168,.2168,0,.0957,.0723,.168,.1445,.168h8.3516c.793,0,1.3203-.9121,.8164-1.584-.0488-.0488-.1191-.1201-.2168-.0723Z"/>
    <path d="M94.0924,28.2433l-2.1602-2.1123c-.2168-.2158-.4805,.0723-.2891,.2881l2.1602,2.1123c.168,.1914,.4336-.1201,.2891-.2881Z"/>
    <path d="M98.2213,37.0519c-.1445,0-.2168,.0957-.2168,.1914,0,.3369-.2871,.624-.625,.624h-6.5273c-.0957,0-.168,.0967-.168,.2168,0,.0957,.0723,.168,.1445,.168h6.5508c.5059,0,1.0098-.3604,1.0098-1.0088,0-.0957-.0723-.1914-.168-.1914Z"/>
    <path d="M97.3795,34.7951h-3.8398c-.1445,0-.2637-.1191-.2637-.2871v-1.8008c0-.1201,.0957-.2402,.2637-.2402h3c1.3691,0,2.3281-.8877,2.5449-2.0879,.1914-1.1279-.5762-2.04-.8398-2.3281l-2.0156-1.9922h.7441c1.3672,0,2.4707-1.1045,2.4707-2.4961,0-1.3438-1.1035-2.4727-2.4707-2.4727h-6.793c-.8164,0-1.5117,.4561-1.9688,1.0566-.6719,.9121-.623,2.3037,.1914,3.1445l2.2812,2.2559c-.4082,0-1.0078,.1924-1.4648,.5762-.5039,.4082-.8633,1.1279-.8633,1.8477v7.2725c0,1.3682,1.1035,2.4727,2.4727,2.4727h6.5508c1.3691,0,2.4727-1.1045,2.4727-2.4727,0-1.3438-1.1035-2.4482-2.4727-2.4482Zm0,3.8408h-6.5508c-.7695,0-1.3926-.5762-1.3926-1.3926v-7.2725c0-.7441,.623-1.3682,1.3672-1.3682h2.5215l-4.1055-4.0557c-.8887-.8887-.1914-2.3525,.9609-2.3525h6.793c.7441,0,1.3906,.624,1.3906,1.3682,0,.7676-.5508,1.416-1.3906,1.416h-3.3848l3.8887,3.8408c.7188,.7197,.5996,1.3916,.4316,1.752-.2637,.5039-.6719,.8154-1.3691,.8154h-3.5273c-.5273,0-.793,.4805-.793,.792v2.9043c0,.4082,.3848,.792,.793,.792h4.3672c.8164,0,1.3926,.6006,1.3926,1.3682,0,.7441-.5762,1.3926-1.3926,1.3926Z"/>
    <path d="M91.6431,35.8752c.1211,0,.1934-.1191,.1934-.1914v-3.5049c0-.624,.4785-1.1758,1.1758-1.1758h3.625c.5039,0,1.0078-.3604,1.0078-1.0078,0-.0957-.0723-.1924-.168-.1924-.1445,0-.2168,.0967-.2168,.1924,0,.3359-.2871,.624-.623,.624h-3.625c-.8164,0-1.5605,.624-1.5605,1.5596v3.5049c0,.0723,.0723,.1914,.1914,.1914Z"/>
    <path d="M92.6275,25.4103c.1445,.1445,.4805-.0479,.3125-.2637l-.4082-.3838c-.0957-.1201-.0469-.168,.1211-.168h4.3203c.5273,0,1.0078-.3838,1.0078-1.0322,0-.0957-.0723-.2158-.168-.2158-.1445,0-.2168,.1201-.2168,.2158,0,.3359-.2402,.6484-.623,.6484h-4.8496c-.2637,0-.5039,.1914-.1914,.5039l.6953,.6953Z"/>
    <path d="M111.4927,25.4347c-.0957-.2881-.4805-.2158-.3848,.0957,.168,.4326,.3125,.96,.3125,1.5605,0,2.2803-1.8965,4.1279-4.0566,4.1279h-1.2969c-.9121,0-1.6074,.7686-1.6074,1.6562v4.4648c0,.3359-.2871,.5996-.623,.5996-.0977,0-.2168,.0723-.2168,.2158,0,.0967,.1191,.168,.2168,.168,.6465,0,1.0078-.5039,1.0078-.9834v-4.4883c0-.8408,.7441-1.248,1.2227-1.248h1.2012c2.5449,0,4.5371-2.0645,4.5371-4.5127,0-.6484-.1445-1.2002-.3125-1.6562Z"/>
    <path d="M111.1568,31.675c1.248-1.0078,2.1348-2.6162,2.1348-4.584,0-3.2881-2.6875-6.001-5.9766-6.001h-3.6953c-.3594,0-.8398,.0967-1.248,.3359-1.2969,.793-1.5117,2.4004-.8887,3.457l1.9199,3.2637c-.9824,.0967-2.0391,1.1523-2.0391,2.3281v6.9131c0,1.2725,1.127,2.4004,2.4727,2.4004,1.3184,0,2.4473-1.1279,2.4473-2.376v-4.2725l3.168,5.4004c.7441,1.2715,2.2812,1.5596,3.4336,.8877,1.1035-.624,1.5352-2.1357,.8145-3.4082l-2.543-4.3447Zm-5.0898,.3125c-.4551,0-.8398,.4316-.8398,.8643v4.5117c0,.7207-.623,1.3447-1.3672,1.3447-.7676,0-1.416-.5762-1.416-1.3682v-6.7451c0-.8398,.6719-1.3916,1.3926-1.3916h3.5273c1.1523,0,2.1113-.96,2.1113-2.1123s-.9824-2.1602-2.1113-2.0879l-.3594,.0234c-.5039,.0244-1.1289,.4805-.7695,1.1279l1.5371,2.6162s-.2168,.0488-.4082,.0488h-1.416l-2.2559-3.8408c-.1445-.2637-.4805-.0479-.3359,.1445l2.1113,3.6963h-.4551l-2.6172-4.5127c-.3828-.624-.1445-1.584,.5762-1.9443,.2168-.1201,.4082-.168,.6484-.168h3.6953c2.6406,0,4.873,2.208,4.873,4.8965,0,2.7842-2.3047,4.8965-4.8242,4.8965h-1.2969Zm2.4004-4.2725l-1.1035-1.8721c.4082,0,.793,.168,1.0566,.5762,.3125,.4561,.2148,1.0078,.0469,1.2959Zm3.8887,10.8008c-.6719,.4082-1.584,.1924-1.9922-.5283l-2.2559-3.8643c-.168-.3359-.168-.6719-.1191-1.0322l2.7363,4.7285c.3828,.6729,1.1035,.5527,1.4395,.3604,.1914-.0957-.0234-.4561-.2637-.3125-.1934,.1201-.5762,.1445-.8398-.2637l-2.8574-4.9199c.1211-.2168,.3359-.3848,.5762-.4805,.8652-.3359,1.4883,.0957,1.7285,.4805l2.3047,3.96c.3594,.5996,.1426,1.4883-.457,1.8721Z"/>
    <path d="M109.9322,25.7951c-.457-.9121-1.3926-1.5605-2.5684-1.5605-.5996,0-1.1035,.1924-1.5352,.4326-.2891,.1436-.0723,.5518,.1914,.3594,.2402-.2158,.8164-.4082,1.3438-.4082,1.0078,0,1.7754,.5527,2.209,1.2969,.1914,.3115,.5039,.1436,.3594-.1201Z"/>
    <path d="M133.2603,25.051c.8887-.9844,.8652-2.5449-.1191-3.4805-1.0078-.9365-2.5684-.8643-3.457,.1201l-.3105,.3359c-1.0801-.7197-3.002-1.3203-4.8008-1.3203-1.416,0-2.9277,.3125-4.3926,1.0566-.6719,.3359-1.1035,1.0078-1.2246,1.5117-.7441,.0244-1.3438,.3359-1.8242,.9121-.9355,1.1045-2.2559,3.3604-2.2559,6.2168,0,2.0879,.6953,3.96,1.6328,5.4004l-.4336,.4561c-.9121,.9834-.8633,2.5439,.1445,3.4561,.9844,.9121,2.5918,.8877,3.4805-.0957l.5273-.6006c1.1523,.6484,2.8086,1.0566,4.3457,1.0566,5.3281,0,9.6973-4.3447,9.6973-9.6729,0-1.7764-.5059-3.5283-1.3926-4.9443l.3828-.4082Zm-12.625-2.2803c1.0098-.5762,2.377-.9844,3.9375-.9844,1.7031,0,3.2871,.5039,4.6562,1.3926l-.8652,.9121c-.1426,.168-.3828,.3359-.6953,.5039-.3848-.2158-1.5117-.792-3.0957-.792-1.3203,0-2.5684,.4561-2.9277,.6719-.1699,.1436-.5762,.2158-.8418-.1924-.168-.2402-.4785-.0234-.3594,.1924,.457,.7197,1.1523,.4795,1.3691,.3604,.8398-.4326,1.6543-.6484,2.7598-.6484,1.0566,0,1.8965,.2158,2.6406,.5762-.625,.0957-.793,.0479-1.2734-.0479-.4082-.0723-.5996-.1445-1.3672-.1445-1.0332,0-2.1367,.3125-2.5918,.6006-.5762,.3594-1.3926,.1914-1.8008-.4082-.4316-.6484-.3359-1.5361,.4551-1.9922Zm5.1855,3.0479l-5.7363,6.1445c-.2402-.5039-.2891-1.0801-.2891-1.5596,0-1.248,.457-2.2568,1.1055-3.0488,.2637-.3115,.4551-.6963,.4785-.9121,.3613,0,.8164-.168,1.1055-.3115,.5508-.2881,1.2715-.5039,2.0879-.5039,.3828,0,.8633,.0713,1.248,.1914Zm-9.8652,4.585c0-2.2803,.9844-4.3447,2.0156-5.5449,.3848-.4316,1.1289-.6719,1.6816-.2881,.0703,.1924,.3359,.7207,.7422,.9121,.0254,.3604,.0977,.6484-.3105,1.1523-.7441,.9355-1.3691,2.208-1.3691,3.7686,0,.624,.1211,1.2236,.2891,1.7998,.2148,.624,.0957,.8877,.0957,1.1758-.3848-.624-.7676-1.7998-.7676-2.9756,0-1.584,.5762-2.8086,1.3672-3.8643,.0957-.168-.1191-.4082-.3125-.2168-.7441,.8643-1.4395,2.4004-1.4395,4.0811,0,1.416,.5039,2.7119,1.0078,3.4805-.0234,.1436-.2402,.5039-.3594,.6719l-.9121,.9834c-1.0801-1.3682-1.7285-3.2637-1.7285-5.1357Zm2.9531,8.4727c-.5527,.5762-1.416,.5518-1.9453,.0713-.5762-.5273-.623-1.3916-.0957-1.9678l13.5859-14.5449c.5039-.5762,1.3906-.5762,1.9434-.0479,.5273,.5039,.5762,1.3193,.0723,1.9199l-13.5605,14.5693Zm10.4395-8.4727c0,2.6396-2.1348,4.7764-4.7754,4.7764-.1934,0-.5039-.0244-.6973-.0479l5.3535-5.7607c.0469,.2637,.1191,.7441,.1191,1.0322Zm3.8418,0c0,4.752-3.8652,8.6162-8.6172,8.6162-1.3926,0-2.5918-.3838-2.9531-.5039-.5039-.1924-.8867-1.0078-.3594-1.6318l1.0566-1.0801c.6953,.3359,1.7031,.4561,2.2559,.4561,3.2402,0,5.832-2.6162,5.832-5.8564,0-.96-.2637-2.0166-.623-2.6406l1.0312-1.1045c.5273-.5273,1.3203-.3594,1.6328,.2168,.2383,.4316,.7441,1.9922,.7441,3.5283Z"/>
    <path d="M131.942,27.6906c.2637,.8164,.4785,1.6328,.4785,2.7129,0,4.3682-3.5508,7.8486-7.8477,7.8486-1.3691,0-2.4961-.3848-2.832-.5039-.2891-.1445-.3613,.2393-.1445,.3359,.4805,.1914,1.5117,.5518,2.9766,.5518,4.5352,0,8.2324-3.6963,8.2324-8.2324,0-1.1279-.2168-1.9688-.5273-2.833-.0977-.2871-.457-.1914-.3359,.1201Z"/>
    <path d="M131.8931,23.8264l-13.5605,14.4971c-.2168,.2646-.6016,.2881-.8652,.0488-.0723-.0723-.2148-.0967-.2871,0-.0723,.0957-.0488,.2158,.0234,.2881,.4805,.4316,1.0801,.3359,1.416-.0488l13.5605-14.5693c.0488-.0713,.0488-.1436-.0234-.2158-.0723-.0957-.1914-.0957-.2637,0Z"/>
    <path d="M148.6197,27.091c.2168-.9121-.0469-1.584-.3359-2.0166-.2402-.3838-.5996-.8398-.7676-1.0322-3.4082-3.8154-7.8965-3.5518-9.6719-3.0723-.8652,.2402-1.8965,1.0811-1.8965,2.4004v14.0654c0,.9121,.6484,2.208,2.1113,2.4482,.3848,.0957,.9844,.1924,2.1602,.1924,1.4414,0,3.3125-.4561,4.6328-1.2246,1.5605-.9121,3.3359-2.2559,4.4648-5.2559,.4551-1.248,.6953-3.1924,.3828-4.9688-.0703-.4316-.5273-1.2246-1.0801-1.5361Zm-.2148,5.8086c-1.1758,3.792-4.7773,6.0967-8.1602,6.0967-.6973,0-1.4883-.0967-2.0898-.1924-.623-.1201-1.127-.6484-1.127-1.3916v-14.0654c0-.6719,.5996-1.2246,1.0566-1.3203,.8145-.1924,2.4961-.5283,4.584,.1201,2.1836,.6719,3.8887,2.208,4.7031,3.5518,.3125,.5049,.3359,1.2725-.1914,1.6807-.2168,.0234-.5996,.0723-.8887,.2881-.2148-.0244-.6719-.1201-.959-.5762-.6484-1.0322-2.0156-2.1367-2.7852-2.3281-1.5352-.3604-2.7363,.7197-2.7363,2.04v7.3447c0,1.3682,1.3691,2.0645,2.2559,1.8242,1.8965-.5039,3.7207-2.4004,3.9844-4.8965,.0723-.6719,.0488-1.1523-.0469-1.7998-.0957-.6006,.1191-1.2246,.8164-1.4404,.7441-.2158,1.584,.1436,1.7754,1.0322,.2637,1.1279,.2637,2.5439-.1914,4.0322Zm-3.2891-3.6484c.0234,.6719,.1445,1.6797-.168,2.5918-.4551,1.3926-1.3203,2.377-2.6152,3.0488-.6484,.3359-1.4648-.1201-1.4648-.8887v-7.2002c0-.624,.793-1.2959,1.6328-.8643,.7676,.4082,1.3438,1.0078,1.8242,1.7041,.2148,.3604,.5273,.6484,.8867,.7441-.1191,.168-.0957,.5762-.0957,.8643Z"/>
    <path d="M147.9009,29.0588c.0723,.3848,.1426,.7441,.1426,1.3447,0,4.3682-3.5508,7.8486-7.8477,7.8486-.7676,0-1.4648-.0967-2.1113-.2881-.2891-.0723-.3613,.3115-.0488,.3838,.6719,.1924,1.3926,.2881,2.1602,.2881,4.5371,0,8.2324-3.6963,8.2324-8.2324,0-.6729-.0957-1.1045-.1445-1.416-.0469-.3125-.4316-.2168-.3828,.0713Z"/>
    <path d="M145.4049,24.5949c.4551,.2881,.9121,.8877,1.1992,1.2715,.168,.2646,.3359,.3848,.2402,.6484-.0957,.3359,.2637,.3838,.3359,.1436,.1211-.2871,.0488-.5518-.1191-.8154-.625-.8887-.9844-1.2246-1.4883-1.6084-.2168-.168-.5039,.1201-.168,.3604Z"/>
    <path d="M140.0767,35.756c-.3613-.3359-.6484-.9365-.6484-1.5361v-7.417c0-.5283,.2148-1.7041,1.4395-2.3047,.168-.0713,.6953-.2637,1.2969-.2158,.3828,.0244,.3594-.3594,.0234-.3838-.5762-.0479-1.1289,.1201-1.3203,.1924-1.416,.5996-1.8242,1.8721-1.8242,2.7119v7.417c0,.4072,.168,1.248,.7676,1.7754,.2402,.2646,.4336-.0713,.2656-.2393Z"/>
    <path d="M161.5806,25.4347c-.0957-.2881-.4805-.2158-.3848,.0957,.168,.4326,.3125,.96,.3125,1.5605,0,2.2803-1.8965,4.1279-4.0566,4.1279h-1.2969c-.9121,0-1.6074,.7686-1.6074,1.6562v4.4648c0,.3359-.2871,.5996-.623,.5996-.0977,0-.2168,.0723-.2168,.2158,0,.0967,.1191,.168,.2168,.168,.6465,0,1.0078-.5039,1.0078-.9834v-4.4883c0-.8408,.7441-1.248,1.2227-1.248h1.2012c2.5449,0,4.5371-2.0645,4.5371-4.5127,0-.6484-.1445-1.2002-.3125-1.6562Z"/>
    <path d="M160.0201,25.7951c-.457-.9121-1.3926-1.5605-2.5684-1.5605-.5996,0-1.1035,.1924-1.5352,.4326-.2891,.1436-.0723,.5518,.1914,.3594,.2402-.2158,.8164-.4082,1.3438-.4082,1.0078,0,1.7754,.5527,2.209,1.2969,.1914,.3115,.5039,.1436,.3594-.1201Z"/>
    <path d="M161.2447,31.675c1.248-1.0078,2.1348-2.6162,2.1348-4.584,0-3.2881-2.6875-6.001-5.9766-6.001h-3.6953c-.3594,0-.8398,.0967-1.248,.3359-1.2969,.793-1.5117,2.4004-.8887,3.457l1.9199,3.2637c-.9824,.0967-2.0391,1.1523-2.0391,2.3281v6.9131c0,1.2725,1.127,2.4004,2.4727,2.4004,1.3184,0,2.4473-1.1279,2.4473-2.376v-4.2725l3.168,5.4004c.7441,1.2715,2.2812,1.5596,3.4336,.8877,1.1035-.624,1.5352-2.1357,.8145-3.4082l-2.543-4.3447Zm-5.0898,.3125c-.4551,0-.8398,.4316-.8398,.8643v4.5117c0,.7207-.623,1.3447-1.3672,1.3447-.7676,0-1.416-.5762-1.416-1.3682v-6.7451c0-.8398,.6719-1.3916,1.3926-1.3916h3.5273c1.1523,0,2.1113-.96,2.1113-2.1123s-.9824-2.1602-2.1113-2.0879l-.3594,.0234c-.5039,.0244-1.1289,.4805-.7695,1.1279l1.5371,2.6162s-.2168,.0488-.4082,.0488h-1.416l-2.2559-3.8408c-.1445-.2637-.4805-.0479-.3359,.1445l2.1113,3.6963h-.4551l-2.6172-4.5127c-.3828-.624-.1445-1.584,.5762-1.9443,.2168-.1201,.4082-.168,.6484-.168h3.6953c2.6406,0,4.873,2.208,4.873,4.8965,0,2.7842-2.3047,4.8965-4.8242,4.8965h-1.2969Zm2.4004-4.2725l-1.1035-1.8721c.4082,0,.793,.168,1.0566,.5762,.3125,.4561,.2148,1.0078,.0469,1.2959Zm3.8887,10.8008c-.6719,.4082-1.584,.1924-1.9922-.5283l-2.2559-3.8643c-.168-.3359-.168-.6719-.1191-1.0322l2.7363,4.7285c.3828,.6729,1.1035,.5527,1.4395,.3604,.1914-.0957-.0234-.4561-.2637-.3125-.1934,.1201-.5762,.1445-.8398-.2637l-2.8574-4.9199c.1211-.2168,.3359-.3848,.5762-.4805,.8652-.3359,1.4883,.0957,1.7285,.4805l2.3047,3.96c.3594,.5996,.1426,1.4883-.457,1.8721Z"/>
    <path d="M168.9244,33.7394v-10.417c0-.0723-.0957-.1436-.1934-.1436-.0957,0-.1914,.0713-.1914,.168v10.3926c0,.8877,.4316,1.8721,1.0566,2.3281,.1914,.1445,.4316-.1201,.2402-.2637-.5039-.4326-.9121-1.2725-.9121-2.0645Z"/>
    <path d="M175.356,20.8742c-1.3672,0-2.4727,1.1279-2.4727,2.4482v10.417c0,.6963-.5508,1.248-1.248,1.248-.6953,0-1.2715-.5518-1.2715-1.248v-10.417c0-1.3203-1.0801-2.4482-2.4473-2.4482-1.3691,0-2.4727,1.1279-2.4727,2.4482v10.417c0,3.4082,2.7832,6.1924,6.1914,6.1924s6.1699-2.7842,6.1699-6.1924v-10.417c0-1.3203-1.1055-2.4482-2.4492-2.4482Zm1.3691,12.8652c0,2.832-2.2812,5.1123-5.0898,5.1123-2.832,0-5.1113-2.2803-5.1113-5.1123v-10.417c0-.7441,.6484-1.3438,1.3926-1.3438s1.3906,.5762,1.3906,1.3438v10.417c0,1.2725,1.0332,2.3281,2.3281,2.3281,1.2734,0,2.3281-1.0557,2.3281-2.3281v-10.417c0-.7441,.6484-1.3438,1.3926-1.3438s1.3691,.5762,1.3691,1.3438v10.417Z"/>
    <path d="M176.1724,23.1789c-.0957,0-.2168,.0713-.2168,.168v10.3926c0,2.376-1.9434,4.3447-4.3203,4.3447-.3359,0-.6465-.0723-.9824-.1201-.2891-.0479-.3379,.3115-.1211,.3594,.3125,.0967,.6953,.1445,1.1035,.1445,2.6172,0,4.7051-2.1123,4.7051-4.7285v-10.417c0-.0723-.0723-.1436-.168-.1436Z"/>
    <path d="M189.8756,30.4748c-.2871-.1914-.5273,.168-.2871,.2881,1.1035,.6963,1.6309,2.5449,1.1035,4.249-.5996,1.8477-1.9434,2.8555-3.5996,3.168-.9844,.168-2.0879,.1201-2.8086-.0957-.3359-.1201-.4316,.2637-.1445,.3594,1.7285,.4326,4.1289,.3604,5.7363-1.2715,1.2969-1.3203,1.6797-3.4082,1.2734-4.7285-.1211-.4326-.457-1.3682-1.2734-1.9688Z"/>
    <path d="M182.8912,34.9396c-.2402-.6963-.1191-1.3203,.0234-1.7041,.2402-.5762,.3848-.8643,.8418-1.4404,.168-.1914,.3105-.4316,.3359-.6475,.0234-.2881-.0488-.7207-.3125-.792-.2402,0-.2168,.1914-.168,.3115,.0723,.168,.1191,.3125,.0723,.5039-.0723,.2402-.5293,.792-.6719,1.0078-.3848,.624-.5059,1.0088-.5762,1.4648-.168,.8877,0,1.8242,1.0547,2.832,.1445,.168,.4336-.1201,.2656-.2637-.1445-.1445-.7207-.7686-.8652-1.2725Z"/>
    <path d="M188.1236,27.883l-.4805-.168c-.3359-.1201-2.1348-.4316-2.2559-1.2002-.0469-.3115,.0488-.5283,.1445-.6484,.2148-.1914,.4805-.2637,.791-.1436,.1934,.0479,1.4648,.5518,1.6562,.624,.6016,.1924,1.1289,.2158,1.6094,0,.8164-.3604,1.3672-.9121,1.5605-1.6797,.2148-.7686,0-1.7051-.5527-2.3047-1.3203-1.416-3.8652-1.6562-5.3281-1.416-1.8008,.3115-3.5527,1.2236-4.4883,3.2881-.7441,1.6807-.3848,3.3125,.5996,4.9922-1.7773,1.3926-2.4004,4.3447-2.1133,6.0732,.3848,2.1602,1.5371,3.5996,3.6973,4.3682,2.041,.7197,5.5195,.6475,7.584-1.0801,2.0645-1.7041,2.4961-4.248,2.209-5.9287-.4316-2.6885-1.9922-3.792-4.6328-4.7764Zm2.0156,9.625c-1.7754,1.7764-4.2949,1.7998-5.8555,1.4395-1.7773-.4072-3.0723-1.248-3.793-3.0957-.5273-1.3438-.168-3.5283,.7441-4.8242,.5527-.8164,1.0566-1.4648,1.9453-1.416,.3828,.0234,.9824,.2393,1.248,.96,.2148,.5762-.0723,1.1279-.5293,1.7275-.5508,.7207-1.0312,1.6562-.5508,2.7129,.4082,.8633,1.248,1.3193,2.1836,1.416,.8633,.1201,2.1367-.0479,2.9043-.96,.5039-.624,.5762-1.4404,.3828-2.1367-.4551-1.4395-2.207-1.8477-3.2148-2.2559-.2168-.0957-.7676-.3604-.7676-.3604,0,0-.0488-.4082-.2402-.6475,.5273,.3115,1.3203,.6953,2.3281,1.0312,.3594,.1201,.4316-.2871,.1191-.3838-.6484-.2158-1.416-.5039-2.1836-.9844-1.0078-.5996-1.1289-.792-1.584-1.2959-.2637-.2881-.457,.0723-.3848,.1924,.0723,.1436,.0957,.2158,.5762,.624-.2637-.0723-.623,0-.623,0-1.3926-1.6084-1.5859-2.7119-1.25-4.0566,.4082-1.5361,1.4883-2.5684,3.1211-3.0723,1.3203-.4082,3.625-.1914,4.8477,.7441,.457,.3604,.6973,.9365,.5527,1.4639-.1191,.5049-.4805,.8643-.9121,1.0322-.7676,.2402-1.9688-.5273-2.6875-.7197-.5527-.168-1.2734-.0479-1.8008,.5518-.3359,.3604-.5527,1.0322-.3848,1.6328,.3125,1.1279,1.5137,1.416,2.5684,1.7754l.5762,.2168c2.0176,.7197,3.6484,1.4873,4.1289,3.7676,.3359,1.4404-.1191,3.5527-1.4648,4.9209Zm-4.8711-5.377c.623,.2168,2.3281,.6006,2.543,1.6562,.0723,.3604,0,.7686-.3594,1.1279-.4316,.4326-1.2969,.5762-1.9199,.4326-.4805-.0967-1.0566-.4082-1.2246-.9121-.2637-.7441,.3125-1.2959,.9609-2.3047Z"/>
    <path d="M184.7877,24.5949c1.0078-.7207,2.0156-.3359,3.0723,.0957,.3125,.1201,.5273,.3359,.9121,.3359,.3594,0,.791-.2158,.8887-.5996,.0469-.168-.2656-.3125-.3359-.1445-.1211,.2646-.4805,.4326-.7441,.3359-.7441-.3115-.8652-.3838-1.5371-.624-1.0312-.3359-1.7031-.3115-2.6406,.3848-.4551,.3359-.8398,1.0801-.8867,1.7754-.0254,.2168,.0234,.3359,.1426,.3359,.1445,0,.2168-.0713,.2402-.3115,.0254-.4805,.2637-1.1523,.8887-1.584Z"/>
    <path d="M202.8834,27.883l-.4805-.168c-.3359-.1201-2.1348-.4316-2.2559-1.2002-.0469-.3115,.0488-.5283,.1445-.6484,.2148-.1914,.4805-.2637,.791-.1436,.1934,.0479,1.4648,.5518,1.6562,.624,.6016,.1924,1.1289,.2158,1.6094,0,.8164-.3604,1.3672-.9121,1.5605-1.6797,.2148-.7686,0-1.7051-.5527-2.3047-1.3203-1.416-3.8652-1.6562-5.3281-1.416-1.8008,.3115-3.5527,1.2236-4.4883,3.2881-.7441,1.6807-.3848,3.3125,.5996,4.9922-1.7773,1.3926-2.4004,4.3447-2.1133,6.0732,.3848,2.1602,1.5371,3.5996,3.6973,4.3682,2.041,.7197,5.5195,.6475,7.584-1.0801,2.0645-1.7041,2.4961-4.248,2.209-5.9287-.4316-2.6885-1.9922-3.792-4.6328-4.7764Zm2.0156,9.625c-1.7754,1.7764-4.2949,1.7998-5.8555,1.4395-1.7773-.4072-3.0723-1.248-3.793-3.0957-.5273-1.3438-.168-3.5283,.7441-4.8242,.5527-.8164,1.0566-1.4648,1.9453-1.416,.3828,.0234,.9824,.2393,1.248,.96,.2148,.5762-.0723,1.1279-.5293,1.7275-.5508,.7207-1.0312,1.6562-.5508,2.7129,.4082,.8633,1.248,1.3193,2.1836,1.416,.8633,.1201,2.1367-.0479,2.9043-.96,.5039-.624,.5762-1.4404,.3828-2.1367-.4551-1.4395-2.207-1.8477-3.2148-2.2559-.2168-.0957-.7676-.3604-.7676-.3604,0,0-.0488-.4082-.2402-.6475,.5273,.3115,1.3203,.6953,2.3281,1.0312,.3594,.1201,.4316-.2871,.1191-.3838-.6484-.2158-1.416-.5039-2.1836-.9844-1.0078-.5996-1.1289-.792-1.584-1.2959-.2637-.2881-.457,.0723-.3848,.1924,.0723,.1436,.0957,.2158,.5762,.624-.2637-.0723-.623,0-.623,0-1.3926-1.6084-1.5859-2.7119-1.25-4.0566,.4082-1.5361,1.4883-2.5684,3.1211-3.0723,1.3203-.4082,3.625-.1914,4.8477,.7441,.457,.3604,.6973,.9365,.5527,1.4639-.1191,.5049-.4805,.8643-.9121,1.0322-.7676,.2402-1.9688-.5273-2.6875-.7197-.5527-.168-1.2734-.0479-1.8008,.5518-.3359,.3604-.5527,1.0322-.3848,1.6328,.3125,1.1279,1.5137,1.416,2.5684,1.7754l.5762,.2168c2.0176,.7197,3.6484,1.4873,4.1289,3.7676,.3359,1.4404-.1191,3.5527-1.4648,4.9209Zm-4.8711-5.377c.623,.2168,2.3281,.6006,2.543,1.6562,.0723,.3604,0,.7686-.3594,1.1279-.4316,.4326-1.2969,.5762-1.9199,.4326-.4805-.0967-1.0566-.4082-1.2246-.9121-.2637-.7441,.3125-1.2959,.9609-2.3047Z"/>
    <path d="M197.6509,34.9396c-.2402-.6963-.1191-1.3203,.0234-1.7041,.2402-.5762,.3848-.8643,.8418-1.4404,.168-.1914,.3105-.4316,.3359-.6475,.0234-.2881-.0488-.7207-.3125-.792-.2402,0-.2168,.1914-.168,.3115,.0723,.168,.1191,.3125,.0723,.5039-.0723,.2402-.5293,.792-.6719,1.0078-.3848,.624-.5059,1.0088-.5762,1.4648-.168,.8877,0,1.8242,1.0547,2.832,.1445,.168,.4336-.1201,.2656-.2637-.1445-.1445-.7207-.7686-.8652-1.2725Z"/>
    <path d="M199.5474,24.5949c1.0078-.7207,2.0156-.3359,3.0723,.0957,.3125,.1201,.5273,.3359,.9121,.3359,.3594,0,.791-.2158,.8887-.5996,.0469-.168-.2656-.3125-.3359-.1445-.1211,.2646-.4805,.4326-.7441,.3359-.7441-.3115-.8652-.3838-1.5371-.624-1.0312-.3359-1.7031-.3115-2.6406,.3848-.4551,.3359-.8398,1.0801-.8867,1.7754-.0254,.2168,.0234,.3359,.1426,.3359,.1445,0,.2168-.0713,.2402-.3115,.0254-.4805,.2637-1.1523,.8887-1.584Z"/>
    <path d="M204.6353,30.4748c-.2871-.1914-.5273,.168-.2871,.2881,1.1035,.6963,1.6309,2.5449,1.1035,4.249-.5996,1.8477-1.9434,2.8555-3.5996,3.168-.9844,.168-2.0879,.1201-2.8086-.0957-.3359-.1201-.4316,.2637-.1445,.3594,1.7285,.4326,4.1289,.3604,5.7363-1.2715,1.2969-1.3203,1.6797-3.4082,1.2734-4.7285-.1211-.4326-.457-1.3682-1.2734-1.9688Z"/>
  </g>
  <g>
    <g class="cls-8">
      <path class="cls-4" d="M2.832,17.977c.313-1.402,.819-3.672,1.347-4.012s3.092-2.9,3.555-3.039c.465-.137,3.841-1.58,5.033-2.127,1.191-.549,4.435-1.922,5.032-2.06,.597-.143,4.175-1.451,4.773-1.459,.599-.008,3.724-.313,3.724-.313,0,0,1.909-.744,2.182-1.162,.271-.414,3.799-2.103,4.229-2.381,.433-.279,2.855-.636,3.585-.644,.735-.01,2.516,.449,2.938,.629,.422,.179,1.408,.779,1.414,1.246s-.24,2.066,.297,2.461c.539,.39,1.019,1.715,.822,1.851-.197,.135-.31,1.6-1.562,2.748-1.248,1.149-2.491,3.16-3.02,3.367-.529,.207-2.182,1.161-2.84,1.832-.656,.674-2.566,2.229-4.551,3.186-1.984,.959-3.974,1.449-4.904,1.727-.929,.279-2.25,.894-2.515,1.164-.262,.269-2.307,1.693-2.967,2.168-.658,.474-5.098,2.06-5.697,2.134-.598,.075-3.922,.317-4.389,.323-.466,.007-2.463-.102-3.333-.426-.868-.317-3.54-.951-3.945-1.412-.406-.461-1.084-1.451-.831-2.52,.253-1.066,1.623-3.281,1.623-3.281"/>
      <path class="cls-3" d="M12.6111,8.8043c1.191-.549,4.435-1.922,5.032-2.06,.597-.143,4.175-1.451,4.773-1.459,.599-.008,3.724-.313,3.724-.313,0,0,1.909-.744,2.182-1.162,.271-.414,3.799-2.103,4.229-2.381,.433-.279,2.855-.636,3.585-.644,.735-.01,2.516,.449,2.938,.629,.422,.179,1.408,.779,1.414,1.246s-.24,2.066,.297,2.461c.539,.39,1.019,1.715,.822,1.851-.197,.135-.31,1.6-1.562,2.748-1.248,1.149-2.491,3.16-3.02,3.367-.529,.207-2.182,1.161-2.84,1.832L12.6111,8.8043Z"/>
    </g>
    <g class="cls-7">
      <path class="cls-5" d="M27.115,13.43c.211-.045,.27,.064,.402,.096-.019,.175-.17,.232-.398,.207,0-.102-.002-.201-.004-.303"/>
    </g>
    <g class="cls-6">
      <polygon class="cls-2" points="42.578 7.18 49.529 11.85 49.984 13.149 49.213 15.008 41.805 20.1 22.531 22.416 22.601 20.836 27.867 19.817 34.328 16.309 39.101 11.147 42.578 7.18"/>
    </g>
    <g class="cls-10">
      <path class="cls-5" d="M36.76,21.947c-2.07,.487-3.935,.567-6.074,.85-1.955,.226-5.666,.318-7.891,.336-.418,.037-.687,.041-1.703,.521-4.051,2.907-10.699,3.565-15.851,2.918-.707,.606,.519,1.112,.221,1.606,1.15,.232,1.096,.736,2.225,.98,.141,.192,.365,.303,.409,.598,1.131,.068,2.397,.054,3.556-.149,1.473-.072,2.221,.069,3.688,.358,1.01,.728,1.951,1.529,2.846,2.377-.016,.492,.187,.76,.117,1.304-.133,.071-.184,.221-.195,.407-1.434,1.076-1.506,2.849-2.462,4.154-.023,.029-.152-.143-.203-.098-.232,.219-.503,.727-.89,1.118-.338,.337-.915,.669-1.094,.919-.082,.112,.006,.389-.094,.502-.121,.135-.492,.2-.601,.311-.436,.449-.615,1.201-1.29,1.324-.105,.467-.29,.24-.394,.709-.743,.127-1.797,.654-2.601,1.037-.61-.099-.846-.687-.422-1.504,1.041-.148,1.717-1.453,2.389-2.041-1.141,.19-2.286,2.926-3.705,1.254-.477,.104-.491,.266-.907,.012,.123-.711,1.129-1.459,1.785-2.133,1.379-1.428,3.094-2.836,4.573-4.182-2.671,.967-4.811,3.629-6.467,5.614-.228-.072-.225-.383-.506-.399,.841-2.256,2.731-3.492,4.361-4.982-2.048,.494-3.646,2.342-5.19,3.184,.132,.406-.253,.503,.114,1.003-.451,.159-.728,.063-1.008-.187-.021-.459-.088-.395-.011-.805,2.89-3.025,7.363-5.277,11.191-5.771-.086-.424-.595-.41-.615-.901,.225-.244,.319-.613,.595-.808-.638-.231-1.871-.658-2.517-.072-.295-.069-.497-.235-.709-.393-.666,.332-1.066,.369-1.809,.123-.703,.426-.968,.289-1.91,.125-.406-.066-.851,.051-1.105-.086-.358-.189-.633-1.029-.922-1.295-.271-.248-1.087,.082-1.411-.285-.74-.828-.222-2.023-.242-3.215-.756-.562-1.679-.555-2.429-1.176-1.449-1.201-1.162-3.638-.869-5.119,.343-.861,.689-1.113,1.188-1.521-.29-1.246,.449-2.209,1.166-3.133,3.603-4.645,9.865-7.094,15.775-9.15,.162-.034,.42-.125,.3-.083,2.377-.521,5.547-1.566,8.028-1.431,3.469-2.338,5.804-4.051,10.506-4.055,1.931-.002,3.357,.863,3.953,2.262,.49,1.156,.088,3.201,1.049,3.607,.068,.03,.134,.053,.205,.098,.431,.293,1.892,1.121,2.127,1.281,.996,.686,2.279,1.154,3.14,1.871,.158,.131,2.295,1.112,2.252,3.19-.062,3.252-6.763,7.244-9.049,7.959-.554,.174-4.254,.978-4.613,1.062m-1.049-19.193c.153-.36-.342-.057-.304-.299,.164-.572,1.009-.103,1.707-.221-.479-1.068,2.324-.004,1.298-.72-.712,.009-1.171,.242-1.81-.079-.91,.206-2.195,.719-3.211,.745-.391,.593-1.156,.687-1.897,.828-.439,.771-1.939,.763-2.595,1.742,.572,.174,1.504-.94,2.004-.527,.793-.858,2.42-.696,3.302-1.248,.258,.207,1.157,.003,1.809-.327,.053,.325,.625,.334,.703,.094-.279-.144-.553,.106-.707-.293-.055,.145-.152,.246-.299,.305m3.932,.654c.158,.477-.078,.252-.092,.705,.24-.064,.731,.117,.805-.109-.059-.113-.121-.555-.115-1.006-1.051,.012-1.62-.271-2.618-.268,.424,.481,1.321,.795,2.02,.678m-14.121,4.604c.51-.153,.369-.561,.9-.313,2.752-1.154,5.34-2.291,8.113-2.515,1.118,.24,1.625,.492,2.926,.666-.082-.709,.395-.875,.485-1.415-.323-.255-.461-.416-.211-.802-1.598,.082-3.239-.28-4.518,.56-.519-.541-.976,.483-1.607,.121,.043,.518-.641,.475-.901,.414-.308,.381-.701,.497-1.101,.416-.709,.547-1.838,1.264-2.596,1.442-.246,.719-1.242,.709-1.49,1.426m2.582-2.748c-.026-.078-.088-.116-.207-.098,.09,.615,.805-.117,1.004-.314-.473,.154-.512,.113-.797,.412m-3.512,.849c-.195-.4-.31,.205-.504-.195-.056,.146-.154,.248-.299,.305-.015-.121-.033-.237-.203-.198-.054,.459-.699,.118-.801,.313,1.477,.029,2.258,.271,3.514-.447-.228-.6-1.267-.071-1.707,.222m10.861,.063c-.084,.326,.331,.138,.409,.299,.078-.362-.221-.498-.409-.299m4.838,.746c.215,.256,1.018,.459,1.106-.016-.35-.049-.34-.465-.709-.494,.047,.344-.299,.307-.397,.51m-7.535,.596c-.504,.371-.834,.91-1.189,1.423,.5-.418,1.324-1.011,1.388-1.525,.442-.066,.481-.227,.6-.41-.213-.315-.41-.055-.707-.194,.008,.174-.074,.26-.197,.305-1.215-.207-3.047,.324-4.211,.959,.533-.182,.541,.096,.607,.395-.521,.062-.472,.955-.998,.715,.133,.25-.047,.318,.108,.402,.4-.371,.802-.742,1.193-1.121,.059,.244,.24,.363,.406,.496,.58-.627,1.404-1.014,1.992-1.633-.015,.219,.086,.318,.307,.299-.053-.416,.768-.817,.701-.111m-12.76,.966c1.422-.582,3.084-.531,4.108-1.259-1.049,.095-1.793,.07-2.717-.166-3.264,.435-5.406,1.658-8.517,2.722-.217,.147,.132,.244-.093,.303-.982,.23-2.214,.976-3.197,1.851,.236-.035,.414-.201,.604-.009,.943-1.069,2.703-1.078,3.998-1.961,.855-.149,2.053-.289,2.705-.838,.148,.434,.455-.145,.803-.109,.771,.679,1.508-.207,2.306-.534m4.012-.957c.504,.067,.389-.359,.703-.008-.08-.308,.272-.197,.194-.505-.373,.105-.258,.218-.703,.109,.078,.275-.196,.207-.194,.404m9.852-.224c.238-.067,.465-.141,.498-.409-.403,.059-.301,.059-.705,.008-.071,.278,.203,.201,.207,.401m4.328,.347c-.395-.173-.617,.168-1.008-.187-.016,.117,.022,.285-.096,.303-.23,.033-.117-.289-.306-.299,.236,.623,.998,.381,1.41,.183m-4.916,.868c.129-.055,.207-.11,.5-.208,.002-.14-.049-.22-.106-.302,.143,.008,.387-.026,.2-.102-.174,.01-.311-.017-.401-.095,.1,.386-.428,.373-.193,.707m6.941,.212c.012-.218,.25-.218,.5-.207-.269-.429,.291-.375,.291-.808-.793-.076-.97,.664-.791,1.015m-14.781,.086c-.289,.381-.547,.791-.789,1.217,.195-.031,.199,.135,.303,.199,1.496-.576,2.746,1.133,4.242,1.354,.236-.234,.226-.705,.49-.912,.283-.086,.262,.14,.504,.095-.127-.542,.672-.728,.285-1.412-.15,.12-.281,.256-.398,.409-.422-.508-.686,.455-1.108-.188-.127,.274-.293,.508-.697,.51-.199-.065-.273-.264-.309-.498-.414,.431-.808-.069-1.201,.519-.148-.119-.449-.082-.406-.398,.221-.645,.937-.809,1.291-1.322,.23-.037,.113,.289,.305,.296,.058-.273,.416-.253,.394-.607-.574-.16-1.281,.705-1.506,.32-.326,.239-.957,.618-1.4,.418m10.559,.069c-.235-.338-.555-.391-.11-.701-.582,.125-.621,.048-1.107-.188-.09,.275-.543,.197-.393,.707,.658-.332,1.102-.06,1.61,.182m-11.967,.051c-.996-.686-1.789-.391-2.912,.238,.05,.517-.737,.623-1.102,.416-.211,.314-.805,.101-1.201,.416,.287,.65-.484,.67-.69,1.117,.545,.424,1.1-.166,1.811,.078,1.201-.867,3.309-1.594,4.094-2.265m13.277,.132c.199-.15,.371-.054,.703-.008-.254-.449-.299-.232-.41-.699-.35,.026-.65,.094-.598,.512,.12,.014,.286-.021,.303,.096-.055,.002-.111,.082,.002,.099m-6.123,.784c-.041-.356-.014-.518-.111-.602-.073,.23-.369,.631,.111,.602m1.307,.084c.004-.061,.013-.12,.101-.102-.07,.385,.369,.109,.399-.006-.121-.019-.061-.111-.002-.201-.274-.061-.795,.139-.498,.309M6.078,21.23c.479-.275,.954-.984,.686-1.414,.426,.018,.508-.3,.799-.412-.324-.603,.484-.976,.793-.916-.022-.834,.488-.803,.89-1.219,.219-.226,.312-.632,.493-.81,.073-.074,.484-.104,.601-.209,.303-.275,.383-.92,.895-.816-.248-.413,.371-.286,.497-.409,.137-.131,.11-.515,.294-.707,.211-.224,.654-.275,.898-.515,.279-.274,.406-.713,.792-.916,.271-.141,.376-.133,.296-.504,.793-.09,1.109-1.36,1.9-.83,.317-.385,.662-.746,1.297-.821-.189-.615,.544-.33,.493-.812-2.282,.519-4.604,1.16-6.61,2.195,.219-.019,.32,.078,.305,.299-.494,.397-.689,.486-1.401,.521-.187,.18,.141,.309-.197,.405-1.166,.392-2.687,1.146-3.789,2.463,.19,.017,.219-.118,.4-.108-.11,.319,.161,.241,.206,.401-.202,.134-.334,.334-.394,.609,.734,.443-.229,1.182-.479,1.916,.281,.916-.488,2.561-1.366,3.234,.022-.472,.274-.726,.387-1.111-.905,.559-.579,1.721-.27,2.52,.649-1.541,1.496-3.096,2.159-4.352,.112,.018,.156,.109,.203,.199-.084,.813-.809,1.526-.778,2.119M38.616,9.656c-.139-.004-.221,.051-.299,.104,.002,.068,.002,.136,.002,.203,.381-.086,.31,.291,.605,.293,.076-.135,.504-.731,.297-.506-.232-.055-.533,.441-.605-.094m-4.922,.567c.078-.225,.623,.009,.5-.409-.268-.021-.842,.161-.5,.409m.504-.01c.293-.028,.312,.226,.607,.195-.113-.349,.375-.127,.303,.098,.349-.127,.33-.151,.599-.209,.014,.123,.034,.236,.203,.197,.012-.25-.054-.416-.207-.498-.433,.117-.802-.219-1.505,.217m-7.829,1.31c-.646-.068-.765,.36-1.402,.317-.021,.277-.158,.512-.494,.711-.168-.508-.803,.232-1.01-.289,.09-.444,.565-.508,.895-.715-.002,.172,.082,.256,.205,.297,.084-.383,.791-.68,.49-1.112-1.873-.082-3.219,1.471-5.014,1.17-.177,.438-1.062,.389-1.701,.625,.004-.377-.437-.297-.312-.8-.858,.3-1.456,.156-1.592,1.328-.889,.302-1.549,.771-2.197,1.134,.46,.038-.148,.434,.107,.5,.461-.662,.816-.837,1.491-1.224-.153,.396,.265,.205,.308,.398-.527,.754-1.211,.871-2.095,1.434-.03,.234,.021,.387,.107,.504-.302,.17-.618,.736-.897,.613-.482,.928-1.467,1.281-1.579,2.332-.644,.313-.722,1.176-.981,1.924-.284,.816-.641,1.545-.476,2.117-.757,.119-.406,1.465,.312,.902-.206-.378,.08-.662,.392-.81,.142,.025,.119,.221,.205,.301-.38,.214-.138,.447-.392,.707,.451-.285,1.036-.41,1.607-.121-.117-.387,.352-.362,.094-.604-.217-.219-.297,.133-.604,.107-.136-.367-.334-.675-.714-.794-.024-.289-.02-.549,.294-.506-.004-.405-.008-.805-.014-1.209,1.229-1.647,2.15-3.596,3.967-4.674,.989-1.531,2.452-1.988,4.186-2.77-.084,.325,.262,.207,.305,.399-2.563,1.656-4.897,3.474-6.155,6.213-.071,.31,.28,.189,.207,.498-.334,.06-.367,.343-.293,.509,.12-.179,.306-.296,.394-.509,.113,.021,.157,.111,.204,.199-.394,.375-.096,1.369-.885,1.721-.404-.327-.386-.793-.615-1.098,.149-.193,.235-.676,.289-.908,.078-.332,.56-1.319,.481-1.717-.136,.365-.69,.51-.389,1.012-.923,.545-1.448,1.879-.867,3.027,.572-.162,.721,.053,1.111,.287-.148-.705,.667-.474,1.198-.519,.198-.545,.064-.479,.497-.608,.067-.402,.067-.406-.012-.804,.311,.267,.022-.383,.6-.311,.054,.316-.138,.395-.192,.607,.63-.595,.864-1.578,1.278-2.128,.14,.095,.205,.265,.308,.398-.253,.402-.612,1.213-.782,1.719,.011-.25,.34-.034,.402-.002,.292-.446,.374-1.094,.887-1.321-.064-.263,.205-1.056,.488-1.312,.607,.377-.185,1.127-.281,1.713,1.002-.631,.869-1.752,1.677-2.535,.147,.052,.249,.152,.307,.297-.256,.482-.594,1-.387,1.312,.129-.312,.606-.453,.196-.506,.019-.312,.275-.392,.394-.607-.027,.263,.391,.074,.307,.396-.41,.543-.406,.869-.787,1.418,.353-.037,.59,.037,1.408-.017-.002-.133-.004-.27-.006-.403-.394-.086-.248,.354-.699,.211,.029-.328,.096-.689,.289-.908,.402-.166,.738,.25,.805,.09,.025-.791,.386-1.586,.978-2.225,.145,.053,.248,.153,.305,.297-.328,.051-.361,.899-.291,1.01,.34-.201,.08-.984,.695-.914,.065,.56-.291,.709-.287,1.211,.676,.058,.147-.737,.695-.612-.043-.738,.297-1.103,.789-1.318,.225,.207-.084,.326,.108,.502,.234,.029,.385-.021,.502-.107-.309-.621,.447-.825,.89-1.018-.25-.012-.033-.34-.005-.4-.26-.174-.481,.109-.606-.295,.113-.446,.871-.701,.69-1.116-.434,.04-.291,.645-.797,.614-.004-.199-.276-.125-.207-.401,0-.33,.427-.246,.396-.607-.33-.102-.25-.627-.613-.697,.471-.823,.976-1.383,1.799-.928-.094,.307-.258,.543-.289,.91,.117,.014,.283-.021,.3,.096-.013,.355-1,.697-.388,1.01,.23-.383,.308-.627,.793-.914,0,.101,.082,.117,.101,.199-.314,.937-.834,1.537-1.082,1.824,1.168,.045,.633-1.389,1.588-1.729,.004,.133,.178,.09,.203,.198-.414,.25,.092,.529-.291,.808,.239,.028,.19,.348,.506,.295,.693-1.113,.389-1.261,.369-2.619-.344-.25-.84-.174-.803,.111-.339-.259-.718,.01-.712-.695-.278,.016-.342,.197-.204-.096m4.526-.16c.234,.028,.418,.192,.601-.008,.004-.173-.08-.257-.205-.298-.023,.207-.443,.029-.396,.306m1.31,.285c.069-.207,.311-.402,.094-.603-.594,.107-.758,.73-.094,.603m7.045,.514c.567-.127,1.496-.904,1.194-1.221-.244,.391-.887,.635-1.194,1.221m-32.07,.809c-.13,.082-.359-.067-.502,.006-.368,.189-.668,.761-1.092,1.121-.49,.412-1.174,.654-1.291,1.324,1.516-.922,2.649-1.68,3.989-2.666-.118-.315-.012-.227-.008-.604,.386-.187,.898-.248,1.099-.617-1.033,.039-1.389,.934-2.195,1.436m25.629-1.231c.396,.358,1.824,.143,2.424,.574,.183-.355,.66-.066,.802,.192,.29-.117,.487-.324,.495-.711-.37-.027-.69-.106-.909-.291-.046,.119-.101,.23-.197,.305-.732-.28-2.357-.856-2.615-.069m7.787,.195c-.375,1.016,1.523,1.069,2.299,2.092,1.094,.936,2.275,1.164,2.23,1.481,.27-.004,.537-.008,.805-.012-.018-.248,.154-.312,.195-.504-1.076-.992-2.3-2.295-3.654-2.67-.584-.349-1.312-1.131-1.875-.387m-9.084,.528c.15-.02,.371,.029,.4-.108-.173-.029,.125-.351-.304-.296-.031,.134-.143,.193-.096,.404m1.912,.176c-.209-.057-.326-.207-.506-.295-.049,.119-.103,.228-.197,.302-.002-.099-.004-.201-.004-.3-.14-.002-.221,.05-.301,.103,0,.069,.002,.135,.002,.201,.463,.057,.717,.096,1.006-.011m.102,.097c.176-.009,.312,.02,.404,.098,.059-.373-.43-.58-.404-.098m-3.719,.149c-.361,0-.371,.488-.506-.194-.307-.035-.166,.368-.396,.407,.582,.146,.127,.597,.314,1.002,.014-.418,.385-.551,.494-.61-.293-.138,.024-.496,.094-.605m5.338,.636c.416-.058,.678-.265,.898-.513-.586-.506-.648,.26-.898,.513m-4.221,.256c.301,.2,1.047-.054,1.11,.387,.38-.314,1.244,.359,1.406-.42-1,.363-1.606-.568-2.516,.033m17.807,.377c.07-.33,.746-.59,.49-.912-.166,.254-.988,.637-.49,.912m-13.885-.427c-.406-.098-.445,.162-.602,.308-.167-.32-.515-.08-.699,.109,.42-.158,.022,.522,.307,.5,.092-.267,.557-.5,.799-.31,.097-.18,.455-.609,.193-.809,.002,.067,.002,.135,.002,.202m6.248,1.027c-.217-.123-.723-.106-1.008-.287-.25-.16-.345-.449-.511-.498-.803-.242-1.686,.388-2.297,1.236,1.025,.365,1.943,.838,2.927,.766,.553,.892,1.698,1.177,2.536,1.779,.443-.231,.828-.518,1.197-.82-.719-.536-2.037-1.717-2.844-2.176m-11.269-.561c-.307,.086-.514,.018-.604,.108,.195,.111,.625,.379,.604-.108m6.041,.627c.181,.186,.253-.086,.603-.009-.002-.098-.004-.2-.004-.301-.221,.082-.545,.064-.599,.31m-23.416,1.201c-.012-.113,.144-.158-.004-.201-.795,.649-1.381,1.5-2.287,2.041,.041,.42-.291,.834-.596,.612-.027,.337-.042,.685-.19,.908-.168,.002-.335,.004-.503,.004-.603,1.3-1.503,2.308-2.575,3.15,.006,.268-.03,.574,.112,.703,.762-.115,.545-1.187,1.39-1.224-.119,.414-.365,.701-.488,1.113,.224,.26,.33-.317,.603-.008,.25-.693,.87-1.072,.979-2.125,.101-.002,.121,.08,.203,.098,.004-.174-.027-.311-.106-.399,1.317-1.603,2.616-4.15,4.562-5.088-.016-.539,.456-.451,.493-.711-1.365-.232-.569,1.032-1.593,1.127m19.796-1.154c.571,.225-.056,.295,.01,.803,.309-.074,.192-.072,.502-.006-.043-.705,1.053-.299,1.096-.918-.332,.023-.656,.248-.807-.092-.24,.141-.06,.201-.197,.305-.106-.258-.469-.379-.604-.092m-5.019,.666c.629-.113,1.385,.451,1.305-.117-.159-.064-.709,.039-1.01-.189,.037,.232-.289,.115-.295,.306m1.81,.178c.209,.236,.397-.143,.606,.094,.019-.192-.117-.223-.106-.401-.234,.037-.431,.108-.5,.307m2.924,.467c-.22,.019-.322-.078-.306-.299-.268,.004-.536,.008-.803,.01,.014,.312-.289,.388-.496,.711-.016-.358-.336-.401-.709-.393-.106,.506-.403,.078-.596,.51,.024-.053,.221,.883,.014,1.006,.898-.684,1.972-.883,2.896-1.545m-5.73,.172c.883-.186,1.019,.25,1.916,.377-.078-.272,.195-.204,.195-.405-1.101,.059-1.303-.515-2.111,.028m-22.102,1.789c-.408-.032-.4,.338-.699,.41-.069,.31,.107,.367,.108,.603-.143,.041-.169,.123-.302,.004,.175,.737-.533,1.315-.08,1.709,.212-.513,.905-1.312,.583-1.715,.671-.478,.992-.869,.984-1.621,.785,.02,.189-1.103,.894-.918-.429-.25-1.769,.748-1.488,1.528m23.824-.704c-.285-.294-.423-.458-.806-.191-.414-.244-.836-.328-1.51-.183-.254-.055-.697-.553-.703,.011,.568,.145,1.037,.16,1.613,.483-.025-.192,1.059-.166,1.006,.086,.09-.295,.371-.034,.4-.206m-4.611,1.165c.647,.035,.67-.54,.996-.821-.15-.047-.256-.142-.404-.193-.285,.254-.547,.525-.592,1.014m1.006-.114c.09,.147,.154,.315,.404,.295,.16-.48,.535-.545,.492-1.01-.675,.059-.699,.164-.896,.715m1.002-.213c.211,.28,.625-.347,.195-.406,.129,.324-.322,.08-.195,.406m-20.607,.762c.283-.006,.789-.683,.291-.808,.175,.535-.295,.441-.291,.808m21.81-.978c-.785,.093-.623,1.109-1.189,1.42,.943-.346,1.853-.645,2.4-1.135-.164-.203-.742,.013-.908-.19-.188,.18,.14,.309-.196,.405-.253-.125-.312,.056-.402-.096,.205-.029,.195-.272,.295-.404m-4.711,1.164c.094-.305,.26-.541,.291-.91-.328,.048-.699,.763-.291,.91m2.422,.574c.145-.236,.281-.195,.4-.006,.082-.371,.711-.141,.496-.51-.06,.34-1.332,.02-.896,.516M2.676,22.582c.345-.008,.75,.555,.411,.699,.446,.004,.752-.129,.798-.513-.149-.116-.254-.114-.402,.005-.511-.587,.235-.66,.182-1.511,.386-.155,1.038-1.596,.486-1.414-.065,.382-.667,1.66-1.089,1.421,.48,.387-.286,1.116-.386,1.313m2.184-2.342c.067,0,.133,0,.199-.002,.149-.021,.09-.244,.098-.402-.452,.012-.127,.23-.297,.404m16.291,.098c.123-.172,.287-.518,.5-.309,.009-.181-.102-.234-.303-.199,.043,.217-.754,.176-.197,.508m-1.901,.726c.061-.205,.508-.033,.397-.408-.19,.026-.223-.109-.403-.096-.058,.063-.23,.481,.006,.504m1.813,.381c.277-.08,.207,.196,.408,.194,.162-.121,.356-.641-.01-.704-.166,.319-.467,.133-.802,.112-.024,.142-.165,.172-.198,.303,.303-.077,.85-.198,.602,.095m2.719,.065c.677,.314,1.121-.344,1.502-.42-.276-.352-1.473-.1-1.502,.42m-6.638-.018c.02-.078,.083-.117,.2-.101-.028,.164,.139,.269,.202,.097-.302-.062,.094-.217-.005-.402-.297-.08-.649,.279-.397,.406m-2.003,.529c.25-.033,.549-.451,.191-.505-.039,.193-.211,.255-.191,.505m3.412-.445c.004,.135,.004,.268,.006,.401,.385,.046,.529-.143,.598-.407-.276-.209-.248,.231-.604,.006m-2.809,.539c.251,.012,.417-.058,.501-.209-.248-.062-.52-.195-.501,.209m3.62-.047c.132-.002,.269-.002,.402-.004,0-.101-.002-.201-.004-.302-.1,.002-.201,.002-.301,.004,.006,.138-.047,.22-.097,.302m-1.502,.522c.007-.174-.027-.313-.106-.401-.408,.256-.53-.048-.709-.293-.008,.192-.33,.075-.297,.307,.342-.08,.17,.367,.407,.395,.236-.389,.298,.045,.705-.008m2.107-.43l.006,.404c-.188,.082-.406,.135-.5,.309-.018-.119,.014-.287-.106-.301-.507,.621-1.181,.237-1.697,.926,.68,.256,1.457-.604,2.307-.432,.045-.75,1.291-.33,1.396-1.023-.201,.002-.404,.006-.603,.008,.158,.363-.362,.562-.5,.308-.02-.174,.566-.402,.097-.404-.066,.135-.214,.189-.4,.205m-1.6,.625c.098-.002,.198-.002,.301-.004,.147-.437-.468-.537-.506-.195,.178,.187,.385-.141,.205,.199m-2.113,.127c-.105-.478-.911-.478-.904,.113,.487-.304,1.231,.375,1.607-.121-.108,.451,.41,.26,.61,.395-.093-.322,.33-.143,.297-.406-.493,.171-.967-.237-1.61,.019m-12.556,1.166c.136-.002,.269-.004,.404-.006,.025-.228-.03-.379-.207-.4,.002,.201-.273,.133-.197,.406m2.116,.274c.182-.178,.008-.35-.306-.299-.076,.64,1.051,.299,.716,.898,.712,.108,1.034-.115,1.811,.078,.256-.385-.177-.83,.187-1.109-.414-.147-1.077-.063-1.109-.287-.419,.15-.651,.564-1.299,.719m6.835-.288c0-.066,0-.134-.002-.199,.453-.031,.71,.785,1.01,.287,.158,.559,1.011,.059,1.211,.387-.042-.336,.532-.064,.595-.51-.467-.002-.529-.01-1.101,.215,.167-.545-.642-.088-.512-.598-.592,.045-.672,.327-1.006-.087-.065,.113-.461,.396-.195,.505m4.121-.254c-.11-.259-.414-.322-.81-.291,.222,.415-.204,.381,.009,.604,.148-.557,.96,.014,.9-.414-.005,.062-.014,.121-.099,.101m-5.518,1.077c.201,.166,.127-.012,.403-.004-.003-.102-.004-.203-.005-.303-.252-.014-.312,.158-.398,.307m-.004-.303c-.431,.014-.706-.193-1.109-.186,.169,.532,1.011,.881,1.109,.186m-3.904,1.459c.179-.336,.822,.295,.902-.213-.438-.045-1.05-.113-.902,.213m7.523,6.342c-.005,.273,.168,.199,.003,.402,.333-.074,.395-.412,.598-.611-.296-.024-.308,.23-.601,.209m-5.09,3.08c.381,.07,.88-.26,.698-.41-.164,.205-.66,.084-.698,.41m2.027,1.283c-1.463,1.387-3.02,2.684-4.372,4.178-.016,.316,.386,.185,.603-.008,.809-.725,2.577-2.408,3.277-3.359,.447-.028,.449-.491,.798-.614-.16-.009-.084-.256-.306-.197"/>
    </g>
  </g>
</svg>