<svg version="1.1" id="Layer_1" xmlns="http://www.w3.org/2000/svg" xmlns:xlink="http://www.w3.org/1999/xlink" x="0px" y="0px" viewBox="0 0 144.25 45.75" style="enable-background:new 0 0 144.25 45.75;" xml:space="preserve">
<g>
	<defs>
		<rect id="SVGID_1_" width="144.25" height="45.75"/>
	</defs>
	<clipPath id="SVGID_2_">
		<use xlink:href="#SVGID_1_" style="overflow:visible;"/>
	</clipPath>
	<path style="clip-path:url(#SVGID_2_);" d="M32.626,40.361l-2.992-4.851c0.942-0.7,1.649-1.559,2.121-2.58   c0.473-1.022,0.709-2.104,0.709-3.239c0-1.213-0.259-2.359-0.781-3.439c-0.521-1.084-1.279-1.953-2.271-2.615   c-0.995-0.659-2.149-0.989-3.461-0.989h-4.553c-1.254,0-2.193,0.33-2.818,0.989c-0.625,0.662-0.938,1.439-0.938,2.336   c0,0.671,0.152,1.248,0.463,1.73l2.127,3.588c-0.895,0-1.539,0.262-1.934,0.791c-0.394,0.527-0.591,1.193-0.591,1.998v8.578   c0,0.844,0.289,1.504,0.869,1.979c0.578,0.474,1.261,0.714,2.052,0.714c0.866,0,1.616-0.265,2.246-0.794   c0.633-0.532,0.95-1.274,0.95-2.233V37.57c0.314,0.557,1.609,2.74,3.886,6.549c0.493,0.863,1.301,1.299,2.426,1.299   c0.84,0,1.58-0.262,2.225-0.781c0.642-0.518,0.965-1.211,0.965-2.075C33.326,41.867,33.093,41.135,32.626,40.361 M26.479,30.494   c-0.137-0.227-0.266-0.443-0.387-0.654c-0.121-0.207-0.242-0.414-0.361-0.623c-0.117-0.209-0.244-0.428-0.381-0.653   c0.33,0,0.629,0.133,0.899,0.403c0.265,0.265,0.4,0.576,0.4,0.927C26.648,30.078,26.591,30.279,26.479,30.494"/>
	<path style="clip-path:url(#SVGID_2_);fill:#FFFFFF;" d="M23.225,32.052c1.217,0,2.08-0.088,2.59-0.267   c-0.235-0.455-0.623-1.133-1.17-2.037c-0.545-0.903-0.822-1.485-0.822-1.745c0-0.265,0.146-0.445,0.431-0.535   c0.26-0.109,0.547-0.164,0.862-0.164c0.666,0,1.263,0.213,1.796,0.639c0.534,0.424,0.799,1.019,0.799,1.789   c0,0.297-0.043,0.596-0.131,0.894c-0.236,0.831-0.668,1.379-1.293,1.637c-0.625,0.26-1.414,0.391-2.365,0.391h-0.965h-1.761   c-0.584,0-1.016,0.035-1.297,0.109c-0.283,0.072-0.479,0.217-0.592,0.434c-0.115,0.215-0.172,0.554-0.172,1.013v8.18   c0,0.469,0.145,0.836,0.432,1.098c0.285,0.264,0.629,0.392,1.029,0.392c0.449,0,0.85-0.132,1.201-0.4   c0.352-0.268,0.526-0.609,0.526-1.025l-0.063-5.079c0-0.541,0.143-0.923,0.426-1.14c0.283-0.221,0.629-0.344,1.039-0.371   c0.406-0.028,0.738-0.047,0.992-0.055c1.43-0.142,2.606-0.529,3.525-1.162c0.922-0.631,1.596-1.404,2.02-2.316   c0.426-0.911,0.639-1.846,0.639-2.803c0-1.36-0.332-2.422-0.998-3.19c-0.661-0.773-1.323-1.345-1.985-1.72   c-0.664-0.373-1.472-0.575-2.435-0.608h-3.825c-0.74,0-1.339,0.213-1.8,0.637c-0.459,0.426-0.69,0.943-0.69,1.555   c0,0.437,0.121,0.859,0.364,1.265l2.662,4.584h0.429l-2.65-4.65c-0.029-0.065-0.041-0.154-0.041-0.268   c0-0.107,0.033-0.162,0.103-0.162c0.125,0,0.237,0.076,0.332,0.227L23.225,32.052z M25.887,37.439c0,0.617,0.02,0.971,0.062,1.063   l2.989,4.982c0.22,0.379,0.597,0.566,1.136,0.566c0.448,0,0.866-0.142,1.249-0.431c0.382-0.289,0.576-0.657,0.576-1.098   c0-0.289-0.102-0.598-0.301-0.928l-2.992-5.054c-0.207-0.352-0.594-0.528-1.162-0.528c-0.737,0-1.168,0.287-1.297,0.86   c0.484,0.818,1.062,1.834,1.732,3.048c0.666,1.213,1.164,2.057,1.49,2.526c0.329,0.473,0.618,0.707,0.866,0.707   c0.05,0,0.115-0.022,0.203-0.065c0.15,0,0.226,0.057,0.226,0.17c0,0.098-0.052,0.172-0.162,0.227   c-0.138,0.07-0.273,0.103-0.396,0.103c-0.336,0-0.629-0.177-0.881-0.541c-0.252-0.361-0.709-1.148-1.371-2.357   S26.535,38.398,25.887,37.439"/>
	<path style="clip-path:url(#SVGID_2_);" d="M20.701,43.021c0.553-0.244,0.828-0.518,0.828-0.826V36.54   c0-0.536,0.211-0.952,0.633-1.25c0.422-0.295,0.889-0.446,1.394-0.446c1.461,0,2.653-0.228,3.573-0.685   c0.918-0.457,1.605-1.075,2.062-1.85c0.457-0.777,0.785-1.703,0.979-2.779c0.031-0.244,0.111-0.367,0.234-0.367   c0.11,0,0.162,0.103,0.162,0.302c-0.031,1.823-0.685,3.264-1.959,4.325c-1.273,1.06-2.959,1.591-5.051,1.591   c-0.351,0-0.709,0.104-1.078,0.315c-0.367,0.211-0.552,0.471-0.552,0.781v5.848c0,0.345-0.342,0.732-1.03,1.16   c-0.222-0.074-0.332-0.176-0.332-0.301C20.564,43.104,20.609,43.049,20.701,43.021"/>
	<path style="clip-path:url(#SVGID_2_);" d="M23.289,26.803c0.529-0.33,1.139-0.494,1.826-0.494c1.272,0,2.246,0.484,2.928,1.459   c0.045,0.066,0.066,0.144,0.066,0.236c0,0.129-0.068,0.215-0.203,0.26c-0.097,0-0.162-0.033-0.195-0.098   c-0.303-0.373-0.695-0.695-1.184-0.967c-0.488-0.269-0.978-0.412-1.476-0.429c-0.498,0-0.932,0.123-1.299,0.367   c-0.129,0.062-0.238,0.096-0.324,0.096c-0.159-0.034-0.237-0.096-0.237-0.196C23.191,26.914,23.225,26.834,23.289,26.803"/>
	<path style="clip-path:url(#SVGID_2_);" d="M55.945,26.672c0.863-0.869,1.297-1.766,1.297-2.693c0-0.545-0.147-1.043-0.44-1.49   c-0.293-0.444-0.675-0.795-1.154-1.051c-0.478-0.26-0.988-0.387-1.529-0.387c-1.125,0-2.043,0.512-2.758,1.533   c-1.57-0.865-3.398-1.299-5.484-1.299c-1.051,0-2.061,0.118-3.03,0.354c-0.968,0.236-1.801,0.574-2.494,1.017   c-0.693,0.444-1.182,0.963-1.457,1.559c-0.926,0.006-1.793,0.432-2.605,1.281c-0.809,0.85-1.455,1.963-1.932,3.34   c-0.48,1.379-0.719,2.803-0.719,4.279c0,2.575,0.688,4.737,2.063,6.483c-0.955,0.953-1.43,1.914-1.43,2.891   c0,0.771,0.279,1.423,0.84,1.957c0.558,0.533,1.23,0.8,2.014,0.8c1.169,0,2.189-0.566,3.06-1.695   c1.92,0.863,3.826,1.297,5.721,1.297c1.66,0,3.217-0.324,4.67-0.973c1.451-0.648,2.72-1.543,3.804-2.677   c1.084-1.137,1.926-2.428,2.522-3.879c0.6-1.45,0.896-2.938,0.896-4.463C57.8,30.602,57.183,28.539,55.945,26.672 M39.961,32.653   c0-0.747,0.099-1.317,0.3-1.715c0.198-0.397,0.508-0.871,0.924-1.42c0.416-0.549,0.682-1.022,0.795-1.416   c0.223-0.016,0.49-0.078,0.809-0.182c0.314-0.107,0.636-0.223,0.968-0.348c0.329-0.123,0.631-0.22,0.909-0.294   c0.277-0.073,0.545-0.11,0.81-0.11c0.422,0,0.82,0.11,1.194,0.334l-6.483,7.082C40.037,33.865,39.961,33.221,39.961,32.653    M49.859,37.01c-0.492,0.563-1.113,1.002-1.861,1.318c-0.75,0.317-1.545,0.475-2.391,0.475c-0.422,0-0.742-0.022-0.965-0.063   l6.719-7.181c0.148,0.459,0.227,0.947,0.227,1.459C51.588,34.49,51.009,35.821,49.859,37.01"/>
	<path style="clip-path:url(#SVGID_2_);fill:#FFFFFF;" d="M37.065,39.134l1.695-1.832c-0.865-1.189-1.299-2.55-1.299-4.082   c0-1.048,0.2-2.066,0.598-3.054c0.396-0.987,0.951-1.854,1.666-2.6c0.059-0.088,0.139-0.131,0.236-0.131   c0.153,0,0.227,0.078,0.227,0.237c0,0.117-0.043,0.24-0.129,0.363c-1.375,1.396-2.063,3.058-2.063,4.982   c0,1.455,0.356,2.785,1.065,3.992l0.332-0.406c-0.623-1.14-0.934-2.291-0.934-3.455c0-1.883,0.666-3.564,1.996-5.047   c0.159-0.158,0.237-0.379,0.237-0.666c0-0.232-0.069-0.4-0.203-0.504c-0.244-0.154-0.5-0.521-0.764-1.093   c-0.07-0.174-0.236-0.262-0.504-0.262c-0.236,0-0.516,0.076-0.834,0.228c-0.318,0.151-0.562,0.309-0.723,0.471   c-0.73,0.816-1.339,1.854-1.826,3.111c-0.486,1.258-0.728,2.559-0.728,3.901C35.11,35.482,35.76,37.431,37.065,39.134    M36.098,41.027c-0.328,0.373-0.494,0.762-0.494,1.168c0,0.453,0.17,0.855,0.508,1.205c0.336,0.346,0.734,0.522,1.187,0.522   c0.444,0,0.865-0.209,1.266-0.631l16.617-17.85c0.397-0.43,0.592-0.894,0.592-1.396c0-0.44-0.152-0.815-0.463-1.129   c-0.309-0.313-0.684-0.471-1.127-0.471c-0.561,0-1.098,0.268-1.6,0.805L36.098,41.027z M51.092,24.011   c-1.709-0.951-3.469-1.427-5.281-1.427c-1.449,0-2.936,0.297-4.455,0.892c-0.822,0.352-1.235,0.883-1.235,1.598   c0,0.443,0.17,0.838,0.506,1.18c0.334,0.343,0.743,0.515,1.225,0.515c0.248,0,0.514-0.054,0.793-0.17   c1.004-0.416,2.019-0.625,3.059-0.625c0.873,0,1.892,0.166,3.06,0.494c-0.223-0.275-0.627-0.486-1.213-0.634   c-0.588-0.149-1.246-0.225-1.974-0.225c-1.143,0-2.051,0.154-2.729,0.463c-0.584,0.223-0.971,0.332-1.158,0.332   c-0.229,0-0.428-0.088-0.602-0.27c-0.136-0.126-0.203-0.25-0.203-0.361c0-0.094,0.033-0.17,0.1-0.236   c0.062-0.065,0.131-0.096,0.201-0.096c0.102,0,0.18,0.045,0.234,0.135c0.143,0.197,0.274,0.293,0.399,0.293   c0.103,0,0.203-0.031,0.297-0.096c1.236-0.531,2.476-0.795,3.726-0.795c1.487,0,2.674,0.332,3.555,0.996   c0.226-0.308,0.535-0.677,0.926-1.105C50.711,24.439,50.969,24.152,51.092,24.011 M52.059,29.529   c0.637,1.189,0.957,2.396,0.957,3.619c0,1.264-0.334,2.434-1,3.506c-0.664,1.068-1.557,1.918-2.678,2.543   c-1.117,0.625-2.318,0.937-3.601,0.937c-1.035,0-2.022-0.201-2.953-0.601c-1.108,1.07-1.664,1.848-1.664,2.33   c0,0.432,0.375,0.775,1.128,1.029c1.254,0.416,2.497,0.623,3.723,0.623c1.522,0,2.932-0.302,4.229-0.91   c1.296-0.609,2.418-1.437,3.359-2.488c0.939-1.049,1.66-2.215,2.16-3.502c0.502-1.283,0.752-2.584,0.752-3.897   c0-1.687-0.406-3.205-1.223-4.552c-0.273-0.403-0.541-0.6-0.804-0.6c-0.254,0-0.53,0.129-0.826,0.393   C53.319,28.22,52.799,28.744,52.059,29.529"/>
	<path style="clip-path:url(#SVGID_2_);" d="M54.217,25.043c0.166-0.18,0.32-0.27,0.461-0.27c0.092,0,0.141,0.045,0.141,0.141   c0,0.111-0.081,0.266-0.239,0.461L38.297,42.689c-0.4,0.401-0.766,0.602-1.096,0.602c-0.168,0-0.324-0.047-0.47-0.139   c-0.11-0.07-0.162-0.17-0.162-0.3c0-0.108,0.099-0.163,0.3-0.163c0.162,0.065,0.295,0.098,0.399,0.098   c0.244,0,0.474-0.111,0.697-0.332L54.217,25.043z"/>
	<path style="clip-path:url(#SVGID_2_);" d="M55.742,31.291c0.063,0.535,0.098,1.043,0.098,1.525c0,1.514-0.287,2.911-0.862,4.182   c-0.574,1.273-1.353,2.359-2.341,3.254c-0.987,0.894-2.096,1.582-3.327,2.057c-1.228,0.476-2.498,0.714-3.8,0.714   c-1.254,0-2.454-0.232-3.594-0.699c-0.223-0.097-0.332-0.209-0.332-0.332c0-0.113,0.088-0.172,0.265-0.172   c0.1,0,0.252,0.037,0.463,0.108c1.057,0.394,2.145,0.592,3.262,0.592c1.262,0,2.484-0.245,3.668-0.731   c1.184-0.486,2.236-1.172,3.16-2.053c0.924-0.883,1.649-1.908,2.18-3.08c0.529-1.17,0.797-2.426,0.797-3.767   c0-0.59-0.045-1.123-0.133-1.598c0-0.357,0.045-0.535,0.133-0.535C55.588,30.756,55.711,30.934,55.742,31.291"/>
	<path style="clip-path:url(#SVGID_2_);" d="M75.002,29.797c0.221-0.475,0.332-0.94,0.332-1.395c0-1.185-0.717-2.394-2.158-3.629   c-1.049-0.922-2.287-1.611-3.719-2.056c-1.431-0.448-2.918-0.668-4.457-0.668c-0.867,0-1.728,0.068-2.592,0.201   c-0.808,0.115-1.509,0.418-2.103,0.912c-0.592,0.496-0.889,1.211-0.889,2.148v16.682c0,2.262,1.75,3.391,5.248,3.391   c7.268-0.323,11.213-3.748,11.838-10.272c0.067-0.465,0.098-0.92,0.098-1.363C76.6,31.748,76.069,30.432,75.002,29.797    M70.387,33.414v1.365c-0.021,1.125-0.24,2.033-0.654,2.725c-0.412,0.693-0.873,1.185-1.373,1.476   c-0.504,0.291-0.957,0.479-1.366,0.555c-0.816,0-1.226-0.391-1.226-1.17v-9.101c0-0.774,0.455-1.162,1.355-1.162   c0.315,0,0.672,0.064,1.075,0.193c0.294,0.125,0.597,0.392,0.902,0.806c0.307,0.411,0.598,0.797,0.881,1.163   c0.283,0.365,0.572,0.595,0.869,0.693C70.539,31.314,70.387,32.133,70.387,33.414"/>
	<path style="clip-path:url(#SVGID_2_);fill:#FFFFFF;" d="M60.846,25.506v16.283c0,0.731,0.35,1.285,1.045,1.662   c0.697,0.381,1.435,0.569,2.217,0.569c2.07,0,3.904-0.321,5.5-0.965c1.595-0.645,2.873-1.653,3.834-3.022   c0.961-1.373,1.525-3.101,1.699-5.189c0.021-0.15,0.031-0.416,0.031-0.795c0-0.957-0.138-1.789-0.424-2.496   c-0.285-0.705-0.763-1.059-1.441-1.059c-0.422,0.057-0.766,0.241-1.029,0.557c-0.266,0.316-0.399,1.062-0.399,2.234   c0,1.266-0.172,2.477-0.51,3.635c-0.339,1.16-0.916,2.111-1.716,2.857c-0.803,0.747-1.854,1.12-3.153,1.12   c-1.488,0-2.23-0.821-2.23-2.459v-9.036c0-1.869,0.93-2.802,2.789-2.802c1.715,0.08,3.047,0.947,3.992,2.595   c0.109,0.25,0.283,0.498,0.525,0.735c0.241,0.242,0.463,0.363,0.668,0.363c0.071,0,0.149-0.021,0.237-0.064   c0.33-0.159,0.717-0.239,1.16-0.239c0.197-0.037,0.301-0.297,0.301-0.795c0-0.365-0.076-0.775-0.231-1.224   c-0.148-0.447-0.41-0.924-0.773-1.424c-0.365-0.5-0.852-0.979-1.455-1.439c-1.553-1.131-3.68-1.698-6.377-1.698   c-0.405,0-0.94,0.024-1.6,0.067c-0.639,0.043-1.242,0.226-1.808,0.55C61.127,24.352,60.846,24.844,60.846,25.506"/>
	<path style="clip-path:url(#SVGID_2_);" d="M74.539,32.119c0.131,0.664,0.195,1.33,0.195,1.996c0,0.897-0.117,1.795-0.351,2.688   c-0.237,0.896-0.576,1.732-1.022,2.511c-0.441,0.78-0.959,1.451-1.547,2.012c-0.804,0.742-1.798,1.311-2.972,1.705   c-1.178,0.395-2.369,0.592-3.576,0.592c-1.04,0-1.991-0.156-2.856-0.469c-0.314-0.137-0.471-0.312-0.471-0.529   c0-0.135,0.079-0.203,0.237-0.203c0.111,0,0.234,0.035,0.365,0.097c0.795,0.315,1.701,0.471,2.725,0.471   c1.845,0,3.617-0.486,5.316-1.461c1.125-0.633,2.006-1.662,2.641-3.088c0.632-1.424,0.953-2.922,0.953-4.49   c0-0.572-0.059-1.16-0.17-1.762c0.031-0.291,0.109-0.435,0.234-0.435C74.381,31.754,74.48,31.875,74.539,32.119"/>
	<path style="clip-path:url(#SVGID_2_);" d="M64.17,40.029c0,0.398-0.09,0.6-0.268,0.6c-0.14,0-0.25-0.112-0.332-0.332   c-0.22-0.379-0.334-0.813-0.334-1.299V28.865c0-0.895,0.338-1.666,1.01-2.315c0.676-0.648,1.725-0.972,3.145-0.972   c0.488,0.031,0.732,0.129,0.732,0.291c0,0.221-0.244,0.332-0.732,0.332c-1.2,0-2.08,0.31-2.645,0.926   c-0.56,0.617-0.844,1.263-0.844,1.939v10.068C63.902,39.465,63.992,39.763,64.17,40.029"/>
	<path style="clip-path:url(#SVGID_2_);" d="M72.352,26.6c0.432,0.455,0.721,0.836,0.865,1.141c0.147,0.304,0.266,0.836,0.36,1.588   c0,0.269-0.102,0.402-0.301,0.402c-0.168,0-0.27-0.11-0.303-0.33c-0.068-1.153-0.387-1.93-0.955-2.33   c-0.139-0.096-0.201-0.219-0.201-0.366c0-0.177,0.062-0.267,0.201-0.267C72.123,26.438,72.237,26.493,72.352,26.6"/>
	<path style="clip-path:url(#SVGID_2_);" d="M92.584,40.361l-2.992-4.851c0.942-0.7,1.649-1.559,2.119-2.58   c0.477-1.022,0.711-2.104,0.711-3.239c0-1.213-0.259-2.359-0.781-3.439c-0.523-1.084-1.281-1.953-2.271-2.615   c-0.995-0.659-2.147-0.989-3.461-0.989h-4.553c-1.256,0-2.195,0.33-2.82,0.989c-0.623,0.662-0.936,1.439-0.936,2.336   c0,0.671,0.154,1.248,0.461,1.73l2.127,3.588c-0.893,0-1.535,0.262-1.932,0.791c-0.394,0.527-0.592,1.193-0.592,1.998v8.578   c0,0.844,0.29,1.504,0.87,1.979c0.578,0.474,1.261,0.714,2.048,0.714c0.87,0,1.618-0.265,2.248-0.794   c0.635-0.532,0.954-1.274,0.954-2.233V37.57c0.31,0.557,1.607,2.74,3.882,6.549c0.495,0.863,1.303,1.299,2.428,1.299   c0.838,0,1.578-0.262,2.223-0.781c0.642-0.518,0.967-1.211,0.967-2.075C93.284,41.867,93.049,41.135,92.584,40.361 M86.434,30.494   c-0.135-0.227-0.264-0.443-0.387-0.654c-0.119-0.207-0.24-0.414-0.359-0.623c-0.117-0.209-0.244-0.428-0.381-0.653   c0.33,0,0.629,0.133,0.898,0.403c0.266,0.265,0.401,0.576,0.401,0.927C86.606,30.078,86.549,30.279,86.434,30.494"/>
	<path style="clip-path:url(#SVGID_2_);fill:#FFFFFF;" d="M83.182,32.052c1.217,0,2.078-0.088,2.588-0.267   c-0.235-0.455-0.621-1.133-1.168-2.037c-0.547-0.903-0.821-1.485-0.821-1.745c0-0.265,0.145-0.445,0.43-0.535   c0.262-0.109,0.547-0.164,0.861-0.164c0.665,0,1.264,0.213,1.795,0.639c0.537,0.424,0.799,1.019,0.799,1.789   c0,0.297-0.043,0.596-0.129,0.894c-0.236,0.831-0.67,1.379-1.295,1.637c-0.623,0.26-1.412,0.391-2.363,0.391h-0.965h-1.763   c-0.582,0-1.016,0.035-1.295,0.109c-0.282,0.072-0.479,0.217-0.594,0.434c-0.113,0.215-0.17,0.554-0.17,1.013v8.18   c0,0.469,0.143,0.836,0.432,1.098c0.285,0.264,0.629,0.392,1.029,0.392c0.449,0,0.85-0.132,1.199-0.4   c0.354-0.268,0.527-0.609,0.527-1.025l-0.062-5.079c0-0.541,0.141-0.923,0.426-1.14c0.283-0.221,0.629-0.344,1.037-0.371   c0.408-0.028,0.74-0.047,0.994-0.055c1.428-0.142,2.605-0.529,3.525-1.162c0.922-0.631,1.596-1.404,2.022-2.316   c0.424-0.911,0.637-1.846,0.637-2.803c0-1.36-0.332-2.422-0.998-3.19c-0.661-0.773-1.323-1.345-1.987-1.72   c-0.66-0.373-1.472-0.575-2.435-0.608h-3.823c-0.74,0-1.341,0.213-1.8,0.637c-0.461,0.426-0.69,0.943-0.69,1.555   c0,0.437,0.121,0.859,0.365,1.265l2.661,4.584h0.429l-2.654-4.65c-0.025-0.065-0.039-0.154-0.039-0.268   c0-0.107,0.035-0.162,0.107-0.162c0.123,0,0.235,0.076,0.33,0.227L83.182,32.052z M85.842,37.439c0,0.617,0.021,0.971,0.064,1.063   l2.987,4.982c0.222,0.379,0.599,0.566,1.136,0.566c0.45,0,0.866-0.142,1.25-0.431c0.381-0.289,0.577-0.657,0.577-1.098   c0-0.289-0.102-0.598-0.301-0.928l-2.994-5.054c-0.205-0.352-0.592-0.528-1.158-0.528c-0.739,0-1.17,0.287-1.301,0.86   c0.486,0.818,1.064,1.834,1.732,3.048c0.668,1.213,1.166,2.057,1.494,2.526c0.327,0.473,0.616,0.707,0.864,0.707   c0.048,0,0.115-0.022,0.203-0.065c0.15,0,0.224,0.057,0.224,0.17c0,0.098-0.05,0.172-0.16,0.227   c-0.14,0.07-0.273,0.103-0.398,0.103c-0.334,0-0.627-0.177-0.879-0.541c-0.252-0.361-0.709-1.148-1.371-2.357   C87.149,39.48,86.49,38.398,85.842,37.439"/>
	<path style="clip-path:url(#SVGID_2_);" d="M80.658,43.021c0.551-0.244,0.828-0.518,0.828-0.826V36.54   c0-0.536,0.209-0.952,0.631-1.25c0.424-0.295,0.887-0.446,1.396-0.446c1.461,0,2.651-0.228,3.571-0.685s1.607-1.075,2.064-1.85   c0.455-0.777,0.783-1.703,0.977-2.779c0.035-0.244,0.113-0.367,0.236-0.367c0.11,0,0.162,0.103,0.162,0.302   c-0.031,1.823-0.685,3.264-1.959,4.325c-1.275,1.06-2.959,1.591-5.051,1.591c-0.351,0-0.71,0.104-1.08,0.315   c-0.367,0.211-0.548,0.471-0.548,0.781v5.848c0,0.345-0.346,0.732-1.036,1.16c-0.216-0.074-0.332-0.176-0.332-0.301   C80.517,43.104,80.566,43.049,80.658,43.021"/>
	<path style="clip-path:url(#SVGID_2_);" d="M83.246,26.803c0.529-0.33,1.141-0.494,1.826-0.494c1.27,0,2.246,0.484,2.93,1.459   c0.043,0.066,0.064,0.144,0.064,0.236c0,0.129-0.068,0.215-0.205,0.26c-0.095,0-0.16-0.033-0.193-0.098   c-0.303-0.373-0.699-0.695-1.186-0.967c-0.486-0.269-0.978-0.412-1.474-0.429c-0.498,0-0.932,0.123-1.299,0.367   c-0.131,0.062-0.238,0.096-0.324,0.096c-0.159-0.034-0.237-0.096-0.237-0.196C83.148,26.914,83.182,26.834,83.246,26.803"/>
	<path style="clip-path:url(#SVGID_2_);" d="M93.807,24.773c0-0.871,0.299-1.549,0.895-2.031c0.593-0.485,1.3-0.727,2.125-0.727   c0.8,0,1.494,0.246,2.08,0.737c0.587,0.494,0.879,1.189,0.879,2.087v12.17c0,0.694,0.154,1.231,0.453,1.616   c0.3,0.384,0.658,0.574,1.074,0.574c0.355,0,0.668-0.153,0.932-0.461c0.265-0.309,0.398-0.74,0.398-1.299V25.043   c0-0.942,0.301-1.682,0.898-2.221c0.596-0.537,1.295-0.807,2.096-0.807c0.824,0,1.543,0.289,2.162,0.867   c0.619,0.58,0.928,1.389,0.928,2.428v13.192c0,1.134-0.34,2.23-1.02,3.281c-0.683,1.047-1.599,1.894-2.748,2.537   c-1.148,0.644-2.377,0.976-3.679,0.998c-1.411,0-2.69-0.342-3.832-1.025c-1.147-0.686-2.037-1.583-2.68-2.692   c-0.641-1.109-0.961-2.252-0.961-3.432V24.773z"/>
	<path style="clip-path:url(#SVGID_2_);fill:#FFFFFF;" d="M95.17,25.246V38.17c0,0.98,0.268,1.922,0.799,2.828   c0.533,0.904,1.271,1.635,2.211,2.191c0.941,0.553,1.998,0.83,3.166,0.83c0.758-0.037,1.496-0.212,2.22-0.527   c0.721-0.312,1.364-0.738,1.928-1.273c0.567-0.536,1.006-1.145,1.328-1.828c0.319-0.686,0.479-1.403,0.479-2.157V25.375   c0-0.678-0.16-1.199-0.479-1.57c-0.322-0.371-0.703-0.557-1.154-0.557c-0.447,0-0.838,0.197-1.166,0.588   c-0.332,0.392-0.496,0.949-0.496,1.668v11.935c0,1.063-0.273,1.897-0.822,2.506c-0.551,0.614-1.196,0.918-1.938,0.918   c-0.752,0-1.396-0.306-1.941-0.922c-0.545-0.611-0.817-1.466-0.817-2.566V25.107c0-0.601-0.156-1.066-0.468-1.396   c-0.317-0.33-0.688-0.494-1.12-0.494c-0.47,0-0.876,0.181-1.216,0.543C95.34,24.123,95.17,24.617,95.17,25.246"/>
	<path style="clip-path:url(#SVGID_2_);" d="M97.562,25.578c0-0.293,0.1-0.438,0.293-0.438c0.156,0,0.234,0.145,0.234,0.438v11.563   c0,1.375,0.325,2.382,0.967,3.027c0.045,0.041,0.065,0.105,0.065,0.193c0,0.18-0.08,0.268-0.235,0.268   c-0.113,0-0.201-0.043-0.262-0.129c-0.406-0.395-0.681-0.822-0.833-1.277c-0.153-0.459-0.229-1.12-0.229-1.987V25.578z"/>
	<path style="clip-path:url(#SVGID_2_);" d="M107,26.201v12.033c0,0.899-0.256,1.77-0.768,2.613   c-0.509,0.844-1.211,1.528-2.099,2.053c-0.891,0.526-1.883,0.787-2.985,0.787c-0.269,0-0.679-0.045-1.23-0.136   c-0.266-0.061-0.4-0.159-0.4-0.293c0-0.114,0.134-0.17,0.4-0.17c0.297,0.086,0.674,0.129,1.137,0.129   c0.851,0,1.705-0.198,2.549-0.596c0.847-0.399,1.546-0.986,2.097-1.762c0.551-0.775,0.826-1.693,0.826-2.754V26.201   c0-0.129,0.071-0.193,0.205-0.193C106.91,26.008,107,26.072,107,26.201"/>
	<path style="clip-path:url(#SVGID_2_);" d="M125.43,34.142c-0.528-0.998-1.348-1.828-2.467-2.488   c-0.473-0.285-1.039-0.555-1.709-0.807c-0.668-0.252-1.297-0.488-1.891-0.709c-0.592-0.222-1.09-0.469-1.488-0.738   c-0.375-0.223-0.561-0.502-0.561-0.838c0-0.41,0.278-0.633,0.826-0.666c0.292,0,0.559,0.068,0.795,0.203   c0.803,0.445,1.6,0.668,2.397,0.668c0.896,0,1.642-0.273,2.234-0.816c0.592-0.545,0.889-1.192,0.889-1.944   c0-0.763-0.342-1.482-1.023-2.162c-0.682-0.679-1.725-1.189-3.131-1.529c-0.551-0.107-1.094-0.162-1.623-0.162   c-1.266,0-2.496,0.262-3.694,0.783c-1.193,0.522-2.101,1.291-2.722,2.307c-0.733,1.17-1.098,2.332-1.098,3.49   c0,1.244,0.422,2.461,1.266,3.652c-1.911,1.629-2.864,3.598-2.864,5.912c0,0.922,0.155,1.829,0.471,2.727   c0.467,1.314,1.412,2.369,2.844,3.166c1.429,0.793,3.008,1.191,4.734,1.191c1.205,0,2.373-0.213,3.502-0.644   c1.125-0.43,2.109-1.07,2.94-1.918c0.666-0.666,1.191-1.479,1.58-2.44c0.384-0.959,0.578-1.962,0.578-3.003   C126.215,36.216,125.953,35.14,125.43,34.142 M119.453,39.148c-0.396,0.277-0.861,0.416-1.408,0.416   c-0.582,0-1.051-0.121-1.395-0.365c-0.443-0.281-0.666-0.692-0.666-1.233c0-0.724,0.309-1.476,0.926-2.254   c0.936,0.245,1.684,0.52,2.246,0.831c0.565,0.312,0.858,0.763,0.885,1.359C120.041,38.455,119.846,38.869,119.453,39.148"/>
	<path style="clip-path:url(#SVGID_2_);fill:#FFFFFF;" d="M113.291,33.414c-0.74,0.521-1.305,1.203-1.688,2.047   c-0.384,0.842-0.578,1.724-0.578,2.644c0,0.991,0.202,1.918,0.606,2.784c0.402,0.863,0.957,1.509,1.66,1.929   c1.318,0.825,2.762,1.235,4.324,1.235c1.131,0,2.203-0.231,3.223-0.694c1.016-0.463,1.863-1.105,2.541-1.927   c0.68-0.823,1.105-1.745,1.279-2.766c0.065-0.395,0.096-0.793,0.096-1.193c0-2.526-1.272-4.288-3.818-5.284   c-0.36-0.144-0.797-0.306-1.313-0.486c-0.516-0.178-0.963-0.348-1.344-0.506c-0.379-0.158-0.746-0.349-1.103-0.574   c-0.86-0.475-1.289-1.162-1.289-2.059c0-0.558,0.207-1.023,0.621-1.4c0.414-0.377,1.025-0.563,1.838-0.563   c0.42,0.038,1.193,0.327,2.32,0.868c0.168,0.064,0.346,0.097,0.535,0.097c0.44,0,0.842-0.15,1.209-0.451   c0.367-0.301,0.551-0.658,0.551-1.074c0-0.633-0.453-1.221-1.361-1.762c-0.901-0.535-1.952-0.803-3.159-0.803   c-1.107,0-2.144,0.243-3.111,0.731c-0.965,0.486-1.685,1.197-2.17,2.133c-0.379,0.758-0.566,1.566-0.566,2.426   c0,1.421,0.531,2.585,1.597,3.49c0.067,0.066,0.141,0.097,0.229,0.097c0.092,0,0.137-0.031,0.137-0.097   c0-0.033-0.037-0.1-0.106-0.203c-0.021-0.043-0.078-0.114-0.17-0.211c-0.094-0.096-0.146-0.157-0.164-0.188   c0-0.263,0.078-0.398,0.236-0.398c0.09,0,0.168,0.033,0.235,0.099c0.578,0.639,1.215,1.151,1.908,1.538   c0.693,0.384,1.572,0.761,2.645,1.123c0.156,0.033,0.234,0.097,0.234,0.195c0,0.199-0.1,0.301-0.299,0.301   c-0.303-0.061-0.56-0.127-0.771-0.202c-0.211-0.078-0.5-0.189-0.866-0.339c-0.365-0.149-0.605-0.244-0.724-0.286   c-0.088,0.026-0.129,0.069-0.129,0.127c0,0.137,0.062,0.227,0.193,0.27c0.682,0.23,1.201,0.41,1.561,0.535   c0.359,0.125,0.767,0.303,1.215,0.535c0.449,0.233,0.845,0.52,1.193,0.866c0.346,0.341,0.563,0.728,0.648,1.154   c0.047,0.18,0.075,0.422,0.075,0.73c0,0.91-0.352,1.637-1.043,2.184c-0.696,0.545-1.459,0.838-2.285,0.875   c-0.909,0-1.756-0.225-2.543-0.676c-0.788-0.453-1.18-1.137-1.18-2.049c0-0.482,0.142-1.049,0.435-1.697   c0.079-0.193,0.25-0.486,0.524-0.875c0.273-0.391,0.443-0.686,0.508-0.885c0.088-0.211,0.131-0.433,0.131-0.666   c0-0.367-0.104-0.676-0.301-0.924c-0.199-0.25-0.487-0.373-0.862-0.373C114.4,32.816,113.883,33.016,113.291,33.414"/>
	<path style="clip-path:url(#SVGID_2_);" d="M115.221,40.562c0.109,0.109,0.162,0.221,0.162,0.334c0,0.152-0.066,0.228-0.203,0.228   c-0.068,0-0.178-0.054-0.322-0.164c-0.528-0.462-0.885-0.927-1.075-1.39c-0.195-0.463-0.289-1.063-0.289-1.799   c0.016-0.275,0.086-0.57,0.215-0.887c0.125-0.318,0.313-0.699,0.555-1.148c0.242-0.449,0.426-0.803,0.543-1.067   c0.119-0.261,0.18-0.503,0.18-0.718c0-0.291,0.054-0.438,0.162-0.438c0.213,0,0.367,0.147,0.47,0.438   c0,0.257-0.07,0.535-0.207,0.822c-0.136,0.291-0.334,0.648-0.587,1.078c-0.252,0.426-0.446,0.787-0.569,1.084   c-0.135,0.357-0.203,0.758-0.203,1.203C114.053,39.268,114.442,40.076,115.221,40.562"/>
	<path style="clip-path:url(#SVGID_2_);" d="M115.48,28.369c-0.031,0.416-0.105,0.625-0.227,0.625c-0.076,0-0.152-0.063-0.222-0.184   c-0.074-0.123-0.112-0.267-0.112-0.441c0.094-0.889,0.432-1.576,1.018-2.061c0.588-0.486,1.279-0.732,2.074-0.732   c0.385,0,0.762,0.066,1.129,0.195c0.168,0.061,0.459,0.176,0.877,0.346c0.414,0.17,0.736,0.293,0.955,0.369   c0.223,0.076,0.389,0.112,0.496,0.112c0.239,0,0.393-0.106,0.463-0.323c0.024-0.052,0.067-0.074,0.129-0.074   c0.158,0,0.236,0.133,0.236,0.397c-0.216,0.359-0.515,0.537-0.9,0.537c-0.305-0.022-0.719-0.137-1.24-0.346   c-0.528-0.207-0.938-0.358-1.237-0.449c-0.294-0.092-0.699-0.139-1.209-0.139c-0.578,0-1.093,0.262-1.546,0.783   C115.709,27.508,115.48,27.969,115.48,28.369"/>
	<path style="clip-path:url(#SVGID_2_);" d="M116.211,42.893c0.535,0.129,1.059,0.195,1.564,0.195c1.032,0,2-0.226,2.918-0.681   c0.916-0.455,1.631-1.069,2.137-1.844c0.617-0.957,0.928-1.996,0.928-3.123c0-1.531-0.557-2.693-1.664-3.488   c-0.086-0.059-0.129-0.127-0.129-0.204c0-0.068,0.058-0.132,0.174-0.187c0.115-0.053,0.213-0.08,0.289-0.08   c1.308,1.006,1.963,2.291,1.963,3.853c0,1.17-0.332,2.288-0.998,3.36c-0.514,0.914-1.289,1.631-2.325,2.15   c-1.037,0.518-2.175,0.779-3.42,0.779c-0.58,0-1.101-0.046-1.568-0.138c-0.307-0.037-0.461-0.17-0.461-0.397   C115.619,42.957,115.815,42.893,116.211,42.893"/>
	<path style="clip-path:url(#SVGID_2_);" d="M143.006,34.142c-0.526-0.998-1.348-1.828-2.465-2.488   c-0.473-0.285-1.041-0.555-1.709-0.807c-0.67-0.252-1.299-0.488-1.891-0.709c-0.594-0.222-1.09-0.469-1.49-0.738   c-0.373-0.223-0.561-0.502-0.561-0.838c0-0.41,0.28-0.633,0.828-0.666c0.291,0,0.557,0.068,0.795,0.203   c0.801,0.445,1.6,0.668,2.393,0.668c0.898,0,1.646-0.273,2.236-0.816c0.592-0.545,0.889-1.192,0.889-1.944   c0-0.763-0.342-1.482-1.022-2.162c-0.681-0.679-1.724-1.189-3.13-1.529c-0.553-0.107-1.094-0.162-1.623-0.162   c-1.268,0-2.498,0.262-3.694,0.783c-1.195,0.522-2.103,1.291-2.724,2.307c-0.731,1.17-1.096,2.332-1.096,3.49   c0,1.244,0.42,2.461,1.264,3.652c-1.909,1.629-2.864,3.598-2.864,5.912c0,0.922,0.158,1.829,0.471,2.727   c0.467,1.314,1.414,2.369,2.846,3.166c1.427,0.793,3.007,1.191,4.732,1.191c1.205,0,2.373-0.213,3.502-0.644   c1.129-0.43,2.109-1.07,2.941-1.918c0.666-0.666,1.192-1.479,1.579-2.44c0.386-0.959,0.58-1.962,0.58-3.003   C143.793,36.216,143.529,35.14,143.006,34.142 M137.029,39.148c-0.393,0.277-0.861,0.416-1.406,0.416   c-0.586,0-1.051-0.121-1.397-0.365c-0.445-0.281-0.666-0.692-0.666-1.233c0-0.724,0.311-1.476,0.926-2.254   c0.938,0.245,1.686,0.52,2.248,0.831c0.563,0.312,0.857,0.763,0.885,1.359C137.619,38.455,137.422,38.869,137.029,39.148"/>
	<path style="clip-path:url(#SVGID_2_);fill:#FFFFFF;" d="M130.869,33.414c-0.742,0.521-1.307,1.203-1.689,2.047   c-0.385,0.842-0.577,1.724-0.577,2.644c0,0.991,0.202,1.918,0.606,2.784c0.402,0.863,0.955,1.509,1.66,1.929   c1.316,0.825,2.762,1.235,4.322,1.235c1.131,0,2.205-0.231,3.221-0.694c1.02-0.463,1.865-1.105,2.545-1.927   c0.68-0.823,1.105-1.745,1.275-2.766c0.067-0.395,0.098-0.793,0.098-1.193c0-2.526-1.272-4.288-3.82-5.284   c-0.358-0.144-0.793-0.306-1.311-0.486c-0.514-0.178-0.963-0.348-1.344-0.506c-0.377-0.158-0.746-0.349-1.101-0.574   c-0.862-0.475-1.289-1.162-1.289-2.059c0-0.558,0.207-1.023,0.619-1.4c0.414-0.377,1.025-0.563,1.838-0.563   c0.422,0.038,1.193,0.327,2.322,0.868c0.166,0.064,0.344,0.097,0.533,0.097c0.44,0,0.844-0.15,1.209-0.451   c0.367-0.301,0.553-0.658,0.553-1.074c0-0.633-0.455-1.221-1.363-1.762c-0.899-0.535-1.953-0.803-3.157-0.803   c-1.109,0-2.146,0.243-3.111,0.731c-0.967,0.486-1.689,1.197-2.17,2.133c-0.381,0.758-0.568,1.566-0.568,2.426   c0,1.421,0.533,2.585,1.595,3.49c0.067,0.066,0.143,0.097,0.231,0.097c0.092,0,0.137-0.031,0.137-0.097   c0-0.033-0.035-0.1-0.106-0.203c-0.019-0.043-0.08-0.114-0.172-0.211c-0.09-0.096-0.142-0.157-0.162-0.188   c0-0.263,0.08-0.398,0.237-0.398c0.091,0,0.168,0.033,0.236,0.099c0.578,0.639,1.215,1.151,1.906,1.538   c0.693,0.384,1.572,0.761,2.645,1.123c0.156,0.033,0.236,0.097,0.236,0.195c0,0.199-0.102,0.301-0.301,0.301   c-0.304-0.061-0.56-0.127-0.771-0.202c-0.211-0.078-0.498-0.189-0.864-0.339c-0.365-0.149-0.607-0.244-0.726-0.286   c-0.088,0.026-0.129,0.069-0.129,0.127c0,0.137,0.064,0.227,0.191,0.27c0.684,0.23,1.205,0.41,1.565,0.535   c0.359,0.125,0.765,0.303,1.213,0.535c0.449,0.233,0.845,0.52,1.193,0.866c0.346,0.341,0.563,0.728,0.649,1.154   c0.046,0.18,0.074,0.422,0.074,0.73c0,0.91-0.35,1.637-1.043,2.184c-0.696,0.545-1.457,0.838-2.285,0.875   c-0.911,0-1.754-0.225-2.541-0.676c-0.789-0.453-1.182-1.137-1.182-2.049c0-0.482,0.144-1.049,0.435-1.697   c0.079-0.193,0.252-0.486,0.526-0.875c0.271-0.391,0.441-0.686,0.508-0.885c0.086-0.211,0.131-0.433,0.131-0.666   c0-0.367-0.104-0.676-0.303-0.924c-0.199-0.25-0.487-0.373-0.862-0.373C131.976,32.816,131.457,33.016,130.869,33.414"/>
	<path style="clip-path:url(#SVGID_2_);" d="M132.799,40.562c0.107,0.109,0.162,0.221,0.162,0.334c0,0.152-0.066,0.228-0.203,0.228   c-0.068,0-0.18-0.054-0.324-0.164c-0.526-0.462-0.883-0.927-1.076-1.39c-0.192-0.463-0.288-1.063-0.288-1.799   c0.016-0.275,0.086-0.57,0.215-0.887c0.127-0.318,0.313-0.699,0.555-1.148c0.244-0.449,0.428-0.803,0.545-1.067   c0.119-0.261,0.18-0.503,0.18-0.718c0-0.291,0.05-0.438,0.162-0.438c0.211,0,0.365,0.147,0.468,0.438   c0,0.257-0.068,0.535-0.207,0.822c-0.136,0.291-0.335,0.648-0.587,1.078c-0.252,0.426-0.446,0.787-0.571,1.084   c-0.133,0.357-0.199,0.758-0.199,1.203C131.631,39.268,132.02,40.076,132.799,40.562"/>
	<path style="clip-path:url(#SVGID_2_);" d="M133.057,28.369c-0.029,0.416-0.107,0.625-0.225,0.625   c-0.078,0-0.152-0.063-0.224-0.184c-0.072-0.123-0.112-0.267-0.112-0.441c0.094-0.889,0.434-1.576,1.02-2.061   c0.588-0.486,1.277-0.732,2.072-0.732c0.385,0,0.762,0.066,1.129,0.195c0.168,0.061,0.459,0.176,0.877,0.346   c0.416,0.17,0.736,0.293,0.957,0.369c0.223,0.076,0.387,0.112,0.494,0.112c0.241,0,0.395-0.106,0.461-0.323   c0.024-0.052,0.067-0.074,0.133-0.074c0.154,0,0.234,0.133,0.234,0.397c-0.214,0.359-0.515,0.537-0.9,0.537   c-0.303-0.022-0.717-0.137-1.24-0.346c-0.528-0.207-0.936-0.358-1.235-0.449c-0.295-0.092-0.701-0.139-1.212-0.139   c-0.577,0-1.09,0.262-1.545,0.783C133.286,27.508,133.057,27.969,133.057,28.369"/>
	<path style="clip-path:url(#SVGID_2_);" d="M133.787,42.893c0.537,0.129,1.059,0.195,1.566,0.195c1.028,0,2-0.226,2.918-0.681   c0.914-0.455,1.629-1.069,2.137-1.844c0.617-0.957,0.928-1.996,0.928-3.123c0-1.531-0.557-2.693-1.664-3.488   c-0.086-0.059-0.131-0.127-0.131-0.204c0-0.068,0.058-0.132,0.174-0.187c0.117-0.053,0.213-0.08,0.289-0.08   c1.308,1.006,1.963,2.291,1.963,3.853c0,1.17-0.332,2.288-0.996,3.36c-0.516,0.914-1.289,1.631-2.327,2.15   c-1.037,0.518-2.175,0.779-3.42,0.779c-0.58,0-1.101-0.046-1.566-0.138c-0.309-0.037-0.463-0.17-0.463-0.397   C133.195,42.957,133.392,42.893,133.787,42.893"/>
	<path style="clip-path:url(#SVGID_2_);fill-rule:evenodd;clip-rule:evenodd;fill:#EC1B2E;" d="M2.832,17.977   c0.313-1.402,0.819-3.672,1.347-4.012c0.528-0.34,3.092-2.9,3.555-3.039c0.465-0.137,3.841-1.58,5.033-2.127   c1.191-0.549,4.435-1.922,5.032-2.06c0.597-0.143,4.175-1.451,4.773-1.459c0.599-0.008,3.724-0.313,3.724-0.313   s1.909-0.744,2.182-1.162c0.271-0.414,3.799-2.103,4.229-2.381c0.433-0.279,2.855-0.636,3.585-0.644   c0.735-0.01,2.516,0.449,2.938,0.629c0.422,0.179,1.408,0.779,1.414,1.246s-0.24,2.066,0.297,2.461   c0.539,0.39,1.019,1.715,0.822,1.851c-0.197,0.135-0.31,1.6-1.562,2.748c-1.248,1.149-2.491,3.16-3.02,3.367   c-0.529,0.207-2.182,1.161-2.84,1.832c-0.656,0.674-2.566,2.229-4.551,3.186c-1.984,0.959-3.974,1.449-4.904,1.727   c-0.929,0.279-2.25,0.894-2.515,1.164c-0.262,0.269-2.307,1.693-2.967,2.168c-0.658,0.474-5.098,2.06-5.697,2.134   c-0.598,0.075-3.922,0.317-4.389,0.323c-0.466,0.007-2.463-0.102-3.333-0.426c-0.868-0.317-3.54-0.951-3.945-1.412   c-0.406-0.461-1.084-1.451-0.831-2.52C1.462,20.192,2.832,17.977,2.832,17.977"/>
	<path style="clip-path:url(#SVGID_2_);fill-rule:evenodd;clip-rule:evenodd;" d="M27.115,13.43c0.211-0.045,0.27,0.064,0.402,0.096   c-0.019,0.175-0.17,0.232-0.398,0.207C27.119,13.631,27.117,13.532,27.115,13.43"/>
	<polygon style="clip-path:url(#SVGID_2_);fill-rule:evenodd;clip-rule:evenodd;fill:#FFFFFF;" points="42.578,7.18 49.529,11.85    49.984,13.149 49.213,15.008 41.805,20.1 22.531,22.416 22.601,20.836 27.867,19.817 34.328,16.309 39.101,11.147  "/>
	<path style="clip-path:url(#SVGID_2_);fill-rule:evenodd;clip-rule:evenodd;" d="M36.76,21.947c-2.07,0.487-3.935,0.567-6.074,0.85   c-1.955,0.226-5.666,0.318-7.891,0.336c-0.418,0.037-0.687,0.041-1.703,0.521c-4.051,2.907-10.699,3.565-15.851,2.918   c-0.707,0.606,0.519,1.112,0.221,1.606c1.15,0.232,1.096,0.736,2.225,0.98c0.141,0.192,0.365,0.303,0.409,0.598   c1.131,0.068,2.397,0.054,3.556-0.149c1.473-0.072,2.221,0.069,3.688,0.358c1.01,0.728,1.951,1.529,2.846,2.377   c-0.016,0.492,0.187,0.76,0.117,1.304c-0.133,0.071-0.184,0.221-0.195,0.407c-1.434,1.076-1.506,2.849-2.462,4.154   c-0.023,0.029-0.152-0.143-0.203-0.098c-0.232,0.219-0.503,0.727-0.89,1.118c-0.338,0.337-0.915,0.669-1.094,0.919   c-0.082,0.112,0.006,0.389-0.094,0.502c-0.121,0.135-0.492,0.2-0.601,0.311c-0.436,0.449-0.615,1.201-1.29,1.324   c-0.105,0.467-0.29,0.24-0.394,0.709c-0.743,0.127-1.797,0.654-2.601,1.037c-0.61-0.099-0.846-0.687-0.422-1.504   c1.041-0.148,1.717-1.453,2.389-2.041c-1.141,0.19-2.286,2.926-3.705,1.254c-0.477,0.104-0.491,0.266-0.907,0.012   c0.123-0.711,1.129-1.459,1.785-2.133c1.379-1.428,3.094-2.836,4.573-4.182c-2.671,0.967-4.811,3.629-6.467,5.614   C5.497,40.977,5.5,40.666,5.219,40.65c0.841-2.256,2.731-3.492,4.361-4.982c-2.048,0.494-3.646,2.342-5.19,3.184   c0.132,0.406-0.253,0.503,0.114,1.003c-0.451,0.159-0.728,0.063-1.008-0.187c-0.021-0.459-0.088-0.395-0.011-0.805   c2.89-3.025,7.363-5.277,11.191-5.771c-0.086-0.424-0.595-0.41-0.615-0.901c0.225-0.244,0.319-0.613,0.595-0.808   c-0.638-0.231-1.871-0.658-2.517-0.072c-0.295-0.069-0.497-0.235-0.709-0.393c-0.666,0.332-1.066,0.369-1.809,0.123   c-0.703,0.426-0.968,0.289-1.91,0.125C7.305,31.1,6.86,31.217,6.606,31.08c-0.358-0.189-0.633-1.029-0.922-1.295   c-0.271-0.248-1.087,0.082-1.411-0.285c-0.74-0.828-0.222-2.023-0.242-3.215c-0.756-0.562-1.679-0.555-2.429-1.176   c-1.449-1.201-1.162-3.638-0.869-5.119c0.343-0.861,0.689-1.113,1.188-1.521c-0.29-1.246,0.449-2.209,1.166-3.133   c3.603-4.645,9.865-7.094,15.775-9.15c0.162-0.034,0.42-0.125,0.3-0.083c2.377-0.521,5.547-1.566,8.028-1.431   c3.469-2.338,5.804-4.051,10.506-4.055c1.931-0.002,3.357,0.863,3.953,2.262c0.49,1.156,0.088,3.201,1.049,3.607   c0.068,0.03,0.134,0.053,0.205,0.098c0.431,0.293,1.892,1.121,2.127,1.281c0.996,0.686,2.279,1.154,3.14,1.871   c0.158,0.131,2.295,1.112,2.252,3.19c-0.062,3.252-6.763,7.244-9.049,7.959C40.819,21.059,37.119,21.863,36.76,21.947    M35.711,2.754c0.153-0.36-0.342-0.057-0.304-0.299c0.164-0.572,1.009-0.103,1.707-0.221c-0.479-1.068,2.324-0.004,1.298-0.72   c-0.712,0.009-1.171,0.242-1.81-0.079c-0.91,0.206-2.195,0.719-3.211,0.745C33,2.773,32.235,2.867,31.494,3.008   c-0.439,0.771-1.939,0.763-2.595,1.742c0.572,0.174,1.504-0.94,2.004-0.527c0.793-0.858,2.42-0.696,3.302-1.248   c0.258,0.207,1.157,0.003,1.809-0.327c0.053,0.325,0.625,0.334,0.703,0.094c-0.279-0.144-0.553,0.106-0.707-0.293   C35.955,2.594,35.858,2.695,35.711,2.754 M39.643,3.408c0.158,0.477-0.078,0.252-0.092,0.705c0.24-0.064,0.731,0.117,0.805-0.109   c-0.059-0.113-0.121-0.555-0.115-1.006c-1.051,0.012-1.62-0.271-2.618-0.268C38.047,3.211,38.944,3.525,39.643,3.408 M25.522,8.012   c0.51-0.153,0.369-0.561,0.9-0.313c2.752-1.154,5.34-2.291,8.113-2.515c1.118,0.24,1.625,0.492,2.926,0.666   c-0.082-0.709,0.395-0.875,0.485-1.415c-0.323-0.255-0.461-0.416-0.211-0.802c-1.598,0.082-3.239-0.28-4.518,0.56   c-0.519-0.541-0.976,0.483-1.607,0.121c0.043,0.518-0.641,0.475-0.901,0.414c-0.308,0.381-0.701,0.497-1.101,0.416   c-0.709,0.547-1.838,1.264-2.596,1.442C26.766,7.305,25.77,7.295,25.522,8.012 M28.104,5.264c-0.026-0.078-0.088-0.116-0.207-0.098   c0.09,0.615,0.805-0.117,1.004-0.314C28.428,5.006,28.389,4.965,28.104,5.264 M24.592,6.113c-0.195-0.4-0.31,0.205-0.504-0.195   c-0.056,0.146-0.154,0.248-0.299,0.305c-0.015-0.121-0.033-0.237-0.203-0.198c-0.054,0.459-0.699,0.118-0.801,0.313   c1.477,0.029,2.258,0.271,3.514-0.447C26.071,5.291,25.032,5.82,24.592,6.113 M35.453,6.176c-0.084,0.326,0.331,0.138,0.409,0.299   C35.94,6.113,35.641,5.977,35.453,6.176 M40.291,6.922c0.215,0.256,1.018,0.459,1.106-0.016c-0.35-0.049-0.34-0.465-0.709-0.494   C40.735,6.756,40.389,6.719,40.291,6.922 M32.756,7.518c-0.504,0.371-0.834,0.91-1.189,1.423c0.5-0.418,1.324-1.011,1.388-1.525   c0.442-0.066,0.481-0.227,0.6-0.41c-0.213-0.315-0.41-0.055-0.707-0.194c0.008,0.174-0.074,0.26-0.197,0.305   c-1.215-0.207-3.047,0.324-4.211,0.959c0.533-0.182,0.541,0.096,0.607,0.395c-0.521,0.062-0.472,0.955-0.998,0.715   c0.133,0.25-0.047,0.318,0.108,0.402c0.4-0.371,0.802-0.742,1.193-1.121c0.059,0.244,0.24,0.363,0.406,0.496   c0.58-0.627,1.404-1.014,1.992-1.633c-0.015,0.219,0.086,0.318,0.307,0.299C32.002,7.213,32.823,6.812,32.756,7.518 M19.996,8.484   c1.422-0.582,3.084-0.531,4.108-1.259c-1.049,0.095-1.793,0.07-2.717-0.166c-3.264,0.435-5.406,1.658-8.517,2.722   c-0.217,0.147,0.132,0.244-0.093,0.303c-0.982,0.23-2.214,0.976-3.197,1.851c0.236-0.035,0.414-0.201,0.604-0.009   c0.943-1.069,2.703-1.078,3.998-1.961c0.855-0.149,2.053-0.289,2.705-0.838c0.148,0.434,0.455-0.145,0.803-0.109   C18.461,9.697,19.198,8.811,19.996,8.484 M24.008,7.527c0.504,0.067,0.389-0.359,0.703-0.008c-0.08-0.308,0.272-0.197,0.194-0.505   c-0.373,0.105-0.258,0.218-0.703,0.109C24.28,7.398,24.006,7.33,24.008,7.527 M33.86,7.303c0.238-0.067,0.465-0.141,0.498-0.409   c-0.403,0.059-0.301,0.059-0.705,0.008C33.582,7.18,33.856,7.103,33.86,7.303 M38.188,7.65c-0.395-0.173-0.617,0.168-1.008-0.187   c-0.016,0.117,0.022,0.285-0.096,0.303c-0.23,0.033-0.117-0.289-0.306-0.299C37.014,8.09,37.776,7.848,38.188,7.65 M33.272,8.518   c0.129-0.055,0.207-0.11,0.5-0.208c0.002-0.14-0.049-0.22-0.106-0.302c0.143,0.008,0.387-0.026,0.2-0.102   c-0.174,0.01-0.311-0.017-0.401-0.095C33.565,8.197,33.037,8.184,33.272,8.518 M40.213,8.73c0.012-0.218,0.25-0.218,0.5-0.207   c-0.269-0.429,0.291-0.375,0.291-0.808C40.211,7.639,40.034,8.379,40.213,8.73 M25.432,8.816c-0.289,0.381-0.547,0.791-0.789,1.217   c0.195-0.031,0.199,0.135,0.303,0.199c1.496-0.576,2.746,1.133,4.242,1.354c0.236-0.234,0.226-0.705,0.49-0.912   c0.283-0.086,0.262,0.14,0.504,0.095c-0.127-0.542,0.672-0.728,0.285-1.412c-0.15,0.12-0.281,0.256-0.398,0.409   c-0.422-0.508-0.686,0.455-1.108-0.188c-0.127,0.274-0.293,0.508-0.697,0.51c-0.199-0.065-0.273-0.264-0.309-0.498   c-0.414,0.431-0.808-0.069-1.201,0.519c-0.148-0.119-0.449-0.082-0.406-0.398c0.221-0.645,0.937-0.809,1.291-1.322   c0.23-0.037,0.113,0.289,0.305,0.296c0.058-0.273,0.416-0.253,0.394-0.607c-0.574-0.16-1.281,0.705-1.506,0.32   C26.506,8.637,25.875,9.016,25.432,8.816 M35.991,8.885c-0.235-0.338-0.555-0.391-0.11-0.701c-0.582,0.125-0.621,0.048-1.107-0.188   c-0.09,0.275-0.543,0.197-0.393,0.707C35.039,8.371,35.483,8.643,35.991,8.885 M24.024,8.936c-0.996-0.686-1.789-0.391-2.912,0.238   c0.05,0.517-0.737,0.623-1.102,0.416c-0.211,0.314-0.805,0.101-1.201,0.416c0.287,0.65-0.484,0.67-0.69,1.117   c0.545,0.424,1.1-0.166,1.811,0.078C21.131,10.334,23.239,9.607,24.024,8.936 M37.301,9.068c0.199-0.15,0.371-0.054,0.703-0.008   c-0.254-0.449-0.299-0.232-0.41-0.699c-0.35,0.026-0.65,0.094-0.598,0.512c0.12,0.014,0.286-0.021,0.303,0.096   C37.244,8.971,37.188,9.051,37.301,9.068 M31.178,9.852c-0.041-0.356-0.014-0.518-0.111-0.602   C30.994,9.48,30.698,9.881,31.178,9.852 M32.485,9.936c0.004-0.061,0.013-0.12,0.101-0.102c-0.07,0.385,0.369,0.109,0.399-0.006   c-0.121-0.019-0.061-0.111-0.002-0.201C32.709,9.566,32.188,9.766,32.485,9.936 M6.078,21.23c0.479-0.275,0.954-0.984,0.686-1.414   c0.426,0.018,0.508-0.3,0.799-0.412c-0.324-0.603,0.484-0.976,0.793-0.916c-0.022-0.834,0.488-0.803,0.89-1.219   c0.219-0.226,0.312-0.632,0.493-0.81c0.073-0.074,0.484-0.104,0.601-0.209c0.303-0.275,0.383-0.92,0.895-0.816   c-0.248-0.413,0.371-0.286,0.497-0.409c0.137-0.131,0.11-0.515,0.294-0.707c0.211-0.224,0.654-0.275,0.898-0.515   c0.279-0.274,0.406-0.713,0.792-0.916c0.271-0.141,0.376-0.133,0.296-0.504c0.793-0.09,1.109-1.36,1.9-0.83   c0.317-0.385,0.662-0.746,1.297-0.821c-0.189-0.615,0.544-0.33,0.493-0.812c-2.282,0.519-4.604,1.16-6.61,2.195   c0.219-0.019,0.32,0.078,0.305,0.299c-0.494,0.397-0.689,0.486-1.401,0.521c-0.187,0.18,0.141,0.309-0.197,0.405   c-1.166,0.392-2.687,1.146-3.789,2.463c0.19,0.017,0.219-0.118,0.4-0.108c-0.11,0.319,0.161,0.241,0.206,0.401   c-0.202,0.134-0.334,0.334-0.394,0.609c0.734,0.443-0.229,1.182-0.479,1.916c0.281,0.916-0.488,2.561-1.366,3.234   c0.022-0.472,0.274-0.726,0.387-1.111c-0.905,0.559-0.579,1.721-0.27,2.52c0.649-1.541,1.496-3.096,2.159-4.352   c0.112,0.018,0.156,0.109,0.203,0.199C6.772,19.924,6.047,20.637,6.078,21.23 M38.616,9.656c-0.139-0.004-0.221,0.051-0.299,0.104   c0.002,0.068,0.002,0.136,0.002,0.203c0.381-0.086,0.31,0.291,0.605,0.293C39,10.121,39.428,9.525,39.221,9.75   C38.989,9.695,38.688,10.191,38.616,9.656 M33.694,10.223c0.078-0.225,0.623,0.009,0.5-0.409   C33.926,9.793,33.352,9.975,33.694,10.223 M34.198,10.213c0.293-0.028,0.312,0.226,0.607,0.195   c-0.113-0.349,0.375-0.127,0.303,0.098c0.349-0.127,0.33-0.151,0.599-0.209c0.014,0.123,0.034,0.236,0.203,0.197   c0.012-0.25-0.054-0.416-0.207-0.498C35.27,10.113,34.901,9.777,34.198,10.213 M26.369,11.523c-0.646-0.068-0.765,0.36-1.402,0.317   c-0.021,0.277-0.158,0.512-0.494,0.711c-0.168-0.508-0.803,0.232-1.01-0.289c0.09-0.444,0.565-0.508,0.895-0.715   c-0.002,0.172,0.082,0.256,0.205,0.297c0.084-0.383,0.791-0.68,0.49-1.112c-1.873-0.082-3.219,1.471-5.014,1.17   c-0.177,0.438-1.062,0.389-1.701,0.625c0.004-0.377-0.437-0.297-0.312-0.8c-0.858,0.3-1.456,0.156-1.592,1.328   c-0.889,0.302-1.549,0.771-2.197,1.134c0.46,0.038-0.148,0.434,0.107,0.5c0.461-0.662,0.816-0.837,1.491-1.224   c-0.153,0.396,0.265,0.205,0.308,0.398c-0.527,0.754-1.211,0.871-2.095,1.434c-0.03,0.234,0.021,0.387,0.107,0.504   c-0.302,0.17-0.618,0.736-0.897,0.613c-0.482,0.928-1.467,1.281-1.579,2.332c-0.644,0.313-0.722,1.176-0.981,1.924   c-0.284,0.816-0.641,1.545-0.476,2.117c-0.757,0.119-0.406,1.465,0.312,0.902c-0.206-0.378,0.08-0.662,0.392-0.81   c0.142,0.025,0.119,0.221,0.205,0.301c-0.38,0.214-0.138,0.447-0.392,0.707c0.451-0.285,1.036-0.41,1.607-0.121   c-0.117-0.387,0.352-0.362,0.094-0.604c-0.217-0.219-0.297,0.133-0.604,0.107c-0.136-0.367-0.334-0.675-0.714-0.794   c-0.024-0.289-0.02-0.549,0.294-0.506c-0.004-0.405-0.008-0.805-0.014-1.209c1.229-1.647,2.15-3.596,3.967-4.674   c0.989-1.531,2.452-1.988,4.186-2.77c-0.084,0.325,0.262,0.207,0.305,0.399c-2.563,1.656-4.897,3.474-6.155,6.213   c-0.071,0.31,0.28,0.189,0.207,0.498c-0.334,0.06-0.367,0.343-0.293,0.509c0.12-0.179,0.306-0.296,0.394-0.509   c0.113,0.021,0.157,0.111,0.204,0.199c-0.394,0.375-0.096,1.369-0.885,1.721c-0.404-0.327-0.386-0.793-0.615-1.098   c0.149-0.193,0.235-0.676,0.289-0.908c0.078-0.332,0.56-1.319,0.481-1.717c-0.136,0.365-0.69,0.51-0.389,1.012   c-0.923,0.545-1.448,1.879-0.867,3.027c0.572-0.162,0.721,0.053,1.111,0.287c-0.148-0.705,0.667-0.474,1.198-0.519   c0.198-0.545,0.064-0.479,0.497-0.608c0.067-0.402,0.067-0.406-0.012-0.804c0.311,0.267,0.022-0.383,0.6-0.311   c0.054,0.316-0.138,0.395-0.192,0.607c0.63-0.595,0.864-1.578,1.278-2.128c0.14,0.095,0.205,0.265,0.308,0.398   c-0.253,0.402-0.612,1.213-0.782,1.719c0.011-0.25,0.34-0.034,0.402-0.002c0.292-0.446,0.374-1.094,0.887-1.321   c-0.064-0.263,0.205-1.056,0.488-1.312c0.607,0.377-0.185,1.127-0.281,1.713c1.002-0.631,0.869-1.752,1.677-2.535   c0.147,0.052,0.249,0.152,0.307,0.297c-0.256,0.482-0.594,1-0.387,1.312c0.129-0.312,0.606-0.453,0.196-0.506   c0.019-0.312,0.275-0.392,0.394-0.607c-0.027,0.263,0.391,0.074,0.307,0.396c-0.41,0.543-0.406,0.869-0.787,1.418   c0.353-0.037,0.59,0.037,1.408-0.017c-0.002-0.133-0.004-0.27-0.006-0.403c-0.394-0.086-0.248,0.354-0.699,0.211   c0.029-0.328,0.096-0.689,0.289-0.908c0.402-0.166,0.738,0.25,0.805,0.09c0.025-0.791,0.386-1.586,0.978-2.225   c0.145,0.053,0.248,0.153,0.305,0.297c-0.328,0.051-0.361,0.899-0.291,1.01c0.34-0.201,0.08-0.984,0.695-0.914   c0.065,0.56-0.291,0.709-0.287,1.211c0.676,0.058,0.147-0.737,0.695-0.612c-0.043-0.738,0.297-1.103,0.789-1.318   c0.225,0.207-0.084,0.326,0.108,0.502c0.234,0.029,0.385-0.021,0.502-0.107c-0.309-0.621,0.447-0.825,0.89-1.018   c-0.25-0.012-0.033-0.34-0.005-0.4c-0.26-0.174-0.481,0.109-0.606-0.295c0.113-0.446,0.871-0.701,0.69-1.116   c-0.434,0.04-0.291,0.645-0.797,0.614c-0.004-0.199-0.276-0.125-0.207-0.401c0-0.33,0.427-0.246,0.396-0.607   c-0.33-0.102-0.25-0.627-0.613-0.697c0.471-0.823,0.976-1.383,1.799-0.928c-0.094,0.307-0.258,0.543-0.289,0.91   c0.117,0.014,0.283-0.021,0.3,0.096c-0.013,0.355-1,0.697-0.388,1.01c0.23-0.383,0.308-0.627,0.793-0.914   c0,0.101,0.082,0.117,0.101,0.199c-0.314,0.937-0.834,1.537-1.082,1.824c1.168,0.045,0.633-1.389,1.588-1.729   c0.004,0.133,0.178,0.09,0.203,0.198c-0.414,0.25,0.092,0.529-0.291,0.808c0.239,0.028,0.19,0.348,0.506,0.295   c0.693-1.113,0.389-1.261,0.369-2.619c-0.344-0.25-0.84-0.174-0.803,0.111c-0.339-0.259-0.718,0.01-0.712-0.695   C26.295,11.635,26.231,11.816,26.369,11.523 M30.895,11.363c0.234,0.028,0.418,0.192,0.601-0.008   c0.004-0.173-0.08-0.257-0.205-0.298C31.268,11.264,30.848,11.086,30.895,11.363 M32.205,11.648   c0.069-0.207,0.311-0.402,0.094-0.603C31.705,11.152,31.541,11.775,32.205,11.648 M39.25,12.162   c0.567-0.127,1.496-0.904,1.194-1.221C40.2,11.332,39.557,11.576,39.25,12.162 M7.18,12.971c-0.13,0.082-0.359-0.067-0.502,0.006   c-0.368,0.189-0.668,0.761-1.092,1.121c-0.49,0.412-1.174,0.654-1.291,1.324c1.516-0.922,2.649-1.68,3.989-2.666   c-0.118-0.315-0.012-0.227-0.008-0.604c0.386-0.187,0.898-0.248,1.099-0.617C8.342,11.574,7.986,12.469,7.18,12.971 M32.809,11.74   c0.396,0.358,1.824,0.143,2.424,0.574c0.183-0.355,0.66-0.066,0.802,0.192c0.29-0.117,0.487-0.324,0.495-0.711   c-0.37-0.027-0.69-0.106-0.909-0.291c-0.046,0.119-0.101,0.23-0.197,0.305C34.692,11.529,33.067,10.953,32.809,11.74    M40.596,11.935c-0.375,1.016,1.523,1.069,2.299,2.092c1.094,0.936,2.275,1.164,2.23,1.481c0.27-0.004,0.537-0.008,0.805-0.012   c-0.018-0.248,0.154-0.312,0.195-0.504c-1.076-0.992-2.3-2.295-3.654-2.67C41.887,11.973,41.159,11.191,40.596,11.935    M31.512,12.463c0.15-0.02,0.371,0.029,0.4-0.108c-0.173-0.029,0.125-0.351-0.304-0.296C31.577,12.193,31.465,12.252,31.512,12.463    M33.424,12.639c-0.209-0.057-0.326-0.207-0.506-0.295c-0.049,0.119-0.103,0.228-0.197,0.302c-0.002-0.099-0.004-0.201-0.004-0.3   c-0.14-0.002-0.221,0.05-0.301,0.103c0,0.069,0.002,0.135,0.002,0.201C32.881,12.707,33.135,12.746,33.424,12.639 M33.526,12.736   c0.176-0.009,0.312,0.02,0.404,0.098C33.989,12.461,33.5,12.254,33.526,12.736 M29.807,12.885c-0.361,0-0.371,0.488-0.506-0.194   c-0.307-0.035-0.166,0.368-0.396,0.407c0.582,0.146,0.127,0.597,0.314,1.002c0.014-0.418,0.385-0.551,0.494-0.61   C29.42,13.352,29.737,12.994,29.807,12.885 M35.145,13.521c0.416-0.058,0.678-0.265,0.898-0.513   C35.457,12.502,35.395,13.268,35.145,13.521 M30.924,13.777c0.301,0.2,1.047-0.054,1.11,0.387c0.38-0.314,1.244,0.359,1.406-0.42   C32.44,14.107,31.834,13.176,30.924,13.777 M48.731,14.154c0.07-0.33,0.746-0.59,0.49-0.912   C49.055,13.496,48.233,13.879,48.731,14.154 M34.846,13.727c-0.406-0.098-0.445,0.162-0.602,0.308   c-0.167-0.32-0.515-0.08-0.699,0.109c0.42-0.158,0.022,0.522,0.307,0.5c0.092-0.267,0.557-0.5,0.799-0.31   c0.097-0.18,0.455-0.609,0.193-0.809C34.846,13.592,34.846,13.66,34.846,13.727 M41.094,14.754   c-0.217-0.123-0.723-0.106-1.008-0.287c-0.25-0.16-0.345-0.449-0.511-0.498c-0.803-0.242-1.686,0.388-2.297,1.236   c1.025,0.365,1.943,0.838,2.927,0.766c0.553,0.892,1.698,1.177,2.536,1.779c0.443-0.231,0.828-0.518,1.197-0.82   C43.219,16.394,41.901,15.213,41.094,14.754 M29.825,14.193c-0.307,0.086-0.514,0.018-0.604,0.108   C29.416,14.412,29.846,14.68,29.825,14.193 M35.866,14.82c0.181,0.186,0.253-0.086,0.603-0.009c-0.002-0.098-0.004-0.2-0.004-0.301   C36.244,14.592,35.92,14.574,35.866,14.82 M12.45,16.021c-0.012-0.113,0.144-0.158-0.004-0.201c-0.795,0.649-1.381,1.5-2.287,2.041   c0.041,0.42-0.291,0.834-0.596,0.612c-0.027,0.337-0.042,0.685-0.19,0.908c-0.168,0.002-0.335,0.004-0.503,0.004   c-0.603,1.3-1.503,2.308-2.575,3.15c0.006,0.268-0.03,0.574,0.112,0.703c0.762-0.115,0.545-1.187,1.39-1.224   c-0.119,0.414-0.365,0.701-0.488,1.113c0.224,0.26,0.33-0.317,0.603-0.008c0.25-0.693,0.87-1.072,0.979-2.125   c0.101-0.002,0.121,0.08,0.203,0.098c0.004-0.174-0.027-0.311-0.106-0.399c1.317-1.603,2.616-4.15,4.562-5.088   c-0.016-0.539,0.456-0.451,0.493-0.711C12.678,14.662,13.474,15.926,12.45,16.021 M32.246,14.867   c0.571,0.225-0.056,0.295,0.01,0.803c0.309-0.074,0.192-0.072,0.502-0.006c-0.043-0.705,1.053-0.299,1.096-0.918   c-0.332,0.023-0.656,0.248-0.807-0.092c-0.24,0.141-0.06,0.201-0.197,0.305C32.744,14.701,32.381,14.58,32.246,14.867    M27.227,15.533c0.629-0.113,1.385,0.451,1.305-0.117c-0.159-0.064-0.709,0.039-1.01-0.189   C27.559,15.459,27.233,15.342,27.227,15.533 M29.037,15.711c0.209,0.236,0.397-0.143,0.606,0.094   c0.019-0.192-0.117-0.223-0.106-0.401C29.303,15.441,29.106,15.512,29.037,15.711 M31.961,16.178   c-0.22,0.019-0.322-0.078-0.306-0.299c-0.268,0.004-0.536,0.008-0.803,0.01c0.014,0.312-0.289,0.388-0.496,0.711   c-0.016-0.358-0.336-0.401-0.709-0.393c-0.106,0.506-0.403,0.078-0.596,0.51c0.024-0.053,0.221,0.883,0.014,1.006   C29.963,17.039,31.037,16.84,31.961,16.178 M26.231,16.35c0.883-0.186,1.019,0.25,1.916,0.377   c-0.078-0.272,0.195-0.204,0.195-0.405C27.241,16.381,27.039,15.807,26.231,16.35 M4.129,18.139c-0.408-0.032-0.4,0.338-0.699,0.41   c-0.069,0.31,0.107,0.367,0.108,0.603c-0.143,0.041-0.169,0.123-0.302,0.004c0.175,0.737-0.533,1.315-0.08,1.709   c0.212-0.513,0.905-1.312,0.583-1.715c0.671-0.478,0.992-0.869,0.984-1.621c0.785,0.02,0.189-1.103,0.894-0.918   C5.188,16.361,3.848,17.359,4.129,18.139 M27.953,17.435c-0.285-0.294-0.423-0.458-0.806-0.191   c-0.414-0.244-0.836-0.328-1.51-0.183c-0.254-0.055-0.697-0.553-0.703,0.011c0.568,0.145,1.037,0.16,1.613,0.483   c-0.025-0.192,1.059-0.166,1.006,0.086C27.643,17.346,27.924,17.607,27.953,17.435 M23.342,18.6c0.647,0.035,0.67-0.54,0.996-0.821   c-0.15-0.047-0.256-0.142-0.404-0.193C23.649,17.84,23.387,18.111,23.342,18.6 M24.348,18.486c0.09,0.147,0.154,0.315,0.404,0.295   c0.16-0.48,0.535-0.545,0.492-1.01C24.569,17.83,24.545,17.935,24.348,18.486 M25.35,18.273c0.211,0.28,0.625-0.347,0.195-0.406   C25.674,18.191,25.223,17.947,25.35,18.273 M4.743,19.035c0.283-0.006,0.789-0.683,0.291-0.808   C5.209,18.762,4.739,18.668,4.743,19.035 M26.553,18.057c-0.785,0.093-0.623,1.109-1.189,1.42c0.943-0.346,1.853-0.645,2.4-1.135   c-0.164-0.203-0.742,0.013-0.908-0.19c-0.188,0.18,0.14,0.309-0.196,0.405c-0.253-0.125-0.312,0.056-0.402-0.096   C26.463,18.432,26.453,18.189,26.553,18.057 M21.842,19.221c0.094-0.305,0.26-0.541,0.291-0.91   C21.805,18.359,21.434,19.074,21.842,19.221 M24.264,19.795c0.145-0.236,0.281-0.195,0.4-0.006c0.082-0.371,0.711-0.141,0.496-0.51   C25.1,19.619,23.828,19.299,24.264,19.795 M2.676,22.582c0.345-0.008,0.75,0.555,0.411,0.699c0.446,0.004,0.752-0.129,0.798-0.513   c-0.149-0.116-0.254-0.114-0.402,0.005c-0.511-0.587,0.235-0.66,0.182-1.511c0.386-0.155,1.038-1.596,0.486-1.414   c-0.065,0.382-0.667,1.66-1.089,1.421C3.542,21.656,2.776,22.385,2.676,22.582 M4.86,20.24c0.067,0,0.133,0,0.199-0.002   c0.149-0.021,0.09-0.244,0.098-0.402C4.705,19.848,5.03,20.066,4.86,20.24 M21.151,20.338c0.123-0.172,0.287-0.518,0.5-0.309   c0.009-0.181-0.102-0.234-0.303-0.199C21.391,20.047,20.594,20.006,21.151,20.338 M19.25,21.064   c0.061-0.205,0.508-0.033,0.397-0.408c-0.19,0.026-0.223-0.109-0.403-0.096C19.186,20.623,19.014,21.041,19.25,21.064    M21.063,21.445c0.277-0.08,0.207,0.196,0.408,0.194c0.162-0.121,0.356-0.641-0.01-0.704c-0.166,0.319-0.467,0.133-0.802,0.112   c-0.024,0.142-0.165,0.172-0.198,0.303C20.764,21.273,21.311,21.152,21.063,21.445 M23.782,21.51   c0.677,0.314,1.121-0.344,1.502-0.42C25.008,20.738,23.811,20.99,23.782,21.51 M17.144,21.492c0.02-0.078,0.083-0.117,0.2-0.101   c-0.028,0.164,0.139,0.269,0.202,0.097c-0.302-0.062,0.094-0.217-0.005-0.402C17.244,21.006,16.892,21.365,17.144,21.492    M15.141,22.021c0.25-0.033,0.549-0.451,0.191-0.505C15.293,21.709,15.121,21.771,15.141,22.021 M18.553,21.576   c0.004,0.135,0.004,0.268,0.006,0.401c0.385,0.046,0.529-0.143,0.598-0.407C18.881,21.361,18.909,21.801,18.553,21.576    M15.744,22.115c0.251,0.012,0.417-0.058,0.501-0.209C15.997,21.844,15.725,21.711,15.744,22.115 M19.364,22.068   c0.132-0.002,0.269-0.002,0.402-0.004c0-0.101-0.002-0.201-0.004-0.302c-0.1,0.002-0.201,0.002-0.301,0.004   C19.467,21.904,19.414,21.986,19.364,22.068 M17.862,22.59c0.007-0.174-0.027-0.313-0.106-0.401   c-0.408,0.256-0.53-0.048-0.709-0.293c-0.008,0.192-0.33,0.075-0.297,0.307c0.342-0.08,0.17,0.367,0.407,0.395   C17.393,22.209,17.455,22.643,17.862,22.59 M19.969,22.16l0.006,0.404c-0.188,0.082-0.406,0.135-0.5,0.309   c-0.018-0.119,0.014-0.287-0.106-0.301c-0.507,0.621-1.181,0.237-1.697,0.926c0.68,0.256,1.457-0.604,2.307-0.432   c0.045-0.75,1.291-0.33,1.396-1.023c-0.201,0.002-0.404,0.006-0.603,0.008c0.158,0.363-0.362,0.562-0.5,0.308   c-0.02-0.174,0.566-0.402,0.097-0.404C20.303,22.09,20.155,22.144,19.969,22.16 M18.369,22.785   c0.098-0.002,0.198-0.002,0.301-0.004c0.147-0.437-0.468-0.537-0.506-0.195C18.342,22.773,18.549,22.445,18.369,22.785    M16.256,22.912c-0.105-0.478-0.911-0.478-0.904,0.113c0.487-0.304,1.231,0.375,1.607-0.121c-0.108,0.451,0.41,0.26,0.61,0.395   c-0.093-0.322,0.33-0.143,0.297-0.406C17.373,23.064,16.899,22.656,16.256,22.912 M3.7,24.078c0.136-0.002,0.269-0.004,0.404-0.006   c0.025-0.228-0.03-0.379-0.207-0.4C3.899,23.873,3.624,23.805,3.7,24.078 M5.816,24.352c0.182-0.178,0.008-0.35-0.306-0.299   c-0.076,0.64,1.051,0.299,0.716,0.898c0.712,0.108,1.034-0.115,1.811,0.078c0.256-0.385-0.177-0.83,0.187-1.109   c-0.414-0.147-1.077-0.063-1.109-0.287C6.696,23.783,6.464,24.197,5.816,24.352 M12.651,24.064c0-0.066,0-0.134-0.002-0.199   c0.453-0.031,0.71,0.785,1.01,0.287c0.158,0.559,1.011,0.059,1.211,0.387c-0.042-0.336,0.532-0.064,0.595-0.51   c-0.467-0.002-0.529-0.01-1.101,0.215c0.167-0.545-0.642-0.088-0.512-0.598c-0.592,0.045-0.672,0.327-1.006-0.087   C12.781,23.672,12.385,23.955,12.651,24.064 M16.772,23.81c-0.11-0.259-0.414-0.322-0.81-0.291   c0.222,0.415-0.204,0.381,0.009,0.604c0.148-0.557,0.96,0.014,0.9-0.414C16.866,23.771,16.857,23.83,16.772,23.81 M11.254,24.887   c0.201,0.166,0.127-0.012,0.403-0.004c-0.003-0.102-0.004-0.203-0.005-0.303C11.4,24.566,11.34,24.738,11.254,24.887 M11.25,24.584   c-0.431,0.014-0.706-0.193-1.109-0.186C10.31,24.93,11.152,25.279,11.25,24.584 M7.346,26.043c0.179-0.336,0.822,0.295,0.902-0.213   C7.81,25.785,7.198,25.717,7.346,26.043 M14.869,32.385c-0.005,0.273,0.168,0.199,0.003,0.402c0.333-0.074,0.395-0.412,0.598-0.611   C15.174,32.152,15.162,32.406,14.869,32.385 M9.779,35.465c0.381,0.07,0.88-0.26,0.698-0.41   C10.313,35.26,9.817,35.139,9.779,35.465 M11.806,36.748c-1.463,1.387-3.02,2.684-4.372,4.178   c-0.016,0.316,0.386,0.185,0.603-0.008c0.809-0.725,2.577-2.408,3.277-3.359c0.447-0.028,0.449-0.491,0.798-0.614   C11.952,36.936,12.028,36.689,11.806,36.748"/>
</g>
</svg>