<svg version="1.1" id="Layer_1" xmlns="http://www.w3.org/2000/svg" xmlns:xlink="http://www.w3.org/1999/xlink" x="0px" y="0px" viewBox="0 0 138 48.25" style="enable-background:new 0 0 138 48.25;" xml:space="preserve">
<g>
	<defs>
		<rect id="SVGID_1_" width="138" height="48.25"/>
	</defs>
	<clipPath id="SVGID_2_">
		<use xlink:href="#SVGID_1_" style="overflow:visible;"/>
	</clipPath>
	<path style="clip-path:url(#SVGID_2_);fill:#FFFFFF;" d="M24.031,25.633c0.521,0.439,1.323,1.443,1.163,1.924   c-0.16,0.48,0.041,1.164-0.842,1.844c-0.883,0.683-1.203,1.084-1.324,1.445c-0.119,0.359,0.041,1.764,0.241,2.164   c0.2,0.402,2.045,2.887,2.085,3.529c0.041,0.641,1.123,2.196,0.723,3.93c-0.22,0.945-2.366,4.572-2.526,4.893   c-0.162,0.32-2.207,2.003-2.968,2.003c-0.762,0-1.925-0.32-2.166-0.601c-0.24-0.279-1.042-1.041-0.882-1.643   c0.161-0.601,0.962-1.484,1.203-1.605c0.241-0.119,2.126-1.403,2.486-1.725c0.361-0.32,0.762-1.562,0.802-2.004   c0.041-0.441-1.162-3.088-1.443-3.449c-0.281-0.361-2.487-4.57-2.446-4.932c0.04-0.361,1.364-3.968,1.444-4.089   c0.08-0.12,1.242-1.444,1.523-1.444S24.031,25.633,24.031,25.633"/>
	<path style="clip-path:url(#SVGID_2_);fill:#FFFFFF;" d="M100.984,44.543c-0.248-0.426-3.619-6.113-3.895-6.576   c0.522-0.42,1.282-1.055,1.385-1.287c0.149-0.332,0.85-2.291,0.885-2.881c0.037-0.59-0.072-2.621-0.109-2.879   c-0.038-0.258-0.332-1.365-0.703-1.957c-0.369-0.59-1.585-1.514-2.03-1.736c-0.443-0.221-2.99-1.329-3.654-1.586   c-0.666-0.26-2.143-0.26-2.918-0.112c-0.774,0.149-2.437,0.481-2.584,0.664c-0.148,0.186-1.069,1.44-1.069,1.588   c0,0.149,0.369,2.326,0.588,2.658c0.223,0.332,2.438,3.62,2.438,3.62l1.182,0.535c-0.867-0.03-1.332-0.057-1.956-0.057   c-0.741,0-1.404,0.371-1.625,0.85c-0.222,0.48-0.74,2.252-0.74,3.359c0,1.106,0.075,3.729,0.149,4.283   c0.074,0.553,0.259,2.547,0.443,2.916c0.185,0.369,0.073,0.887,0.85,1.071c0.775,0.185,1.587,0.48,1.919,0.332   c0.333-0.147,1.625-1.291,1.588-1.586c-0.039-0.297,0.442-4.395,0.442-4.504c0-0.112-0.295-1.625-0.295-2.031   c0-0.407,0.701-0.26,0.701-0.26l0.627,0.222c0,0,1.293,2.547,1.403,2.733c0.111,0.183,2.29,4.06,2.437,4.172   c0.147,0.109,1.439,1.291,1.81,1.402c0.37,0.111,2.326-0.85,2.362-0.996C100.652,46.352,101.242,44.986,100.984,44.543    M93.65,34.623c0.02-0.041,0.03-0.092,0.023-0.16c-0.036-0.404-0.219-0.774-0.515-1.328c-0.295-0.553-0.701-1.145-0.887-1.477   c-0.184-0.332-0.404-0.701-0.369-0.812c0.037-0.112,0.738-0.407,0.961-0.481c0.222-0.074,1.291-0.111,1.402-0.037   c0.112,0.074,0.813,1.293,0.813,1.293l0.22,1.328c0,0-0.664,0.85-0.738,1.035c-0.014,0.035-0.033,0.116-0.056,0.223   C94.258,34.352,94.049,34.531,93.65,34.623"/>
	<path style="clip-path:url(#SVGID_2_);" d="M88.742,45.789c-0.143-0.141-0.142-0.371,0.002-0.514   c0.399-0.392,0.644-0.996,0.67-1.478c0.029-0.455,0.037-2.055,0.037-3.518v-2.892l-0.002-0.379l0.379,0.013   c0.261,0.01,0.521,0.016,0.785,0.016c1.736,0.002,3.496-0.166,4.838-0.957c1.34-0.793,2.141-2.127,2.346-4.418   c0.016-0.199,0.191-0.348,0.391-0.33c0.2,0.019,0.349,0.193,0.331,0.394c-0.205,2.473-1.17,4.094-2.701,4.981   c-1.525,0.894-3.404,1.055-5.205,1.057c-0.145,0-0.291-0.002-0.434-0.006c0.001,0.502,0,1.525,0,2.521   c0,1.473-0.007,3.051-0.041,3.565c-0.042,0.666-0.338,1.402-0.882,1.947c-0.073,0.07-0.164,0.105-0.256,0.105   C88.906,45.896,88.811,45.861,88.742,45.789"/>
	<path style="clip-path:url(#SVGID_2_);" d="M95.541,30.42c-0.416-0.617-1.449-1.195-2.64-1.189c-0.513,0-1.057,0.103-1.604,0.347   c-0.183,0.08-0.399-0.002-0.481-0.183c-0.081-0.184,0.001-0.399,0.184-0.481c0.643-0.285,1.291-0.41,1.901-0.41   c1.417,0.006,2.638,0.643,3.239,1.506c0.114,0.164,0.071,0.39-0.095,0.504c-0.063,0.043-0.133,0.062-0.203,0.062   C95.726,30.576,95.61,30.522,95.541,30.42"/>
	<path style="clip-path:url(#SVGID_2_);" d="M101.436,43.785l-0.028-0.068l-3.732-5.887c1.629-1.225,2.759-3.209,2.795-5.861v-0.116   c0.004-2.486-1.459-4.216-2.982-5.279c-1.536-1.078-3.173-1.584-3.911-1.758c-0.449-0.103-1.221-0.185-2.171-0.187   c-1.153,0.004-2.526,0.125-3.706,0.607c-0.589,0.242-1.139,0.584-1.562,1.086c-0.424,0.5-0.686,1.176-0.682,1.93   c0,0.381,0.063,0.781,0.185,1.201c0.054,0.174,0.1,0.252,0.179,0.418c0.267,0.525,0.818,1.514,1.329,2.412   c0.255,0.447,0.499,0.869,0.69,1.193c0.029,0.053,0.059,0.1,0.086,0.147c-0.319,0.098-0.731,0.217-1.131,0.484   c-0.422,0.264-0.84,0.836-0.824,1.532c0,0.043,0.002,0.082,0.005,0.123c0-0.006,0.001,0.082,0.001,0.199   c0,1.486-0.123,8.887-0.123,9.254c0.003,0.304,0.029,1,0.466,1.699c0.426,0.699,1.328,1.279,2.617,1.279   c0.02,0,0.041-0.002,0.059-0.002c0.135,0,0.276-0.004,0.42-0.015c0.858-0.063,1.541-0.545,1.977-1.119   c0.439-0.584,0.679-1.264,0.722-1.918c0.024-0.379,0.03-1.17,0.03-2.102c0-1.045-0.01-2.242-0.016-3.088l4.08,7.041l0.008,0.012   c0.029,0.047,0.213,0.328,0.578,0.621c0.362,0.293,0.937,0.6,1.68,0.598h0.003c0.466,0,0.983-0.123,1.522-0.405   c0.633-0.326,1.076-0.797,1.33-1.295c0.256-0.5,0.33-1.007,0.33-1.433C101.657,44.357,101.453,43.838,101.436,43.785    M91.832,38.127c-0.139,0-0.275-0.002-0.414-0.008l-0.763-0.027l0.011,0.779c0,0.004,0.025,2.328,0.025,4.166   c0,0.914-0.006,1.729-0.025,2.008c-0.017,0.33-0.17,0.777-0.418,1.098c-0.255,0.324-0.556,0.521-0.937,0.55   c-0.112,0.008-0.215,0.014-0.315,0.014c-0.968-0.02-1.255-0.316-1.459-0.606c-0.197-0.3-0.234-0.72-0.232-0.886   c0-0.324,0.123-7.528,0.123-9.039c0-0.135,0.029-0.592,0.109-0.68c0.336-0.525,1.1-0.654,1.372-0.58   c0.485,0.164,1.331,0.271,2.562,0.271h0.006c0.49,0,1.048-0.029,1.679-0.099c1.451-0.18,2.465-1.574,2.473-2.961   c0.002-0.485-0.129-0.977-0.426-1.401c-0.527-0.775-1.308-1.019-1.967-1.013c-0.952,0.006-1.728,0.435-1.754,0.445l-0.343,0.186   l2.332,3.916c-0.127,0.047-0.26,0.076-0.393,0.091c-0.607,0.065-1.137,0.092-1.601,0.092h-0.131l-2.913-4.855   c-0.105-0.176-0.329-0.231-0.5-0.123c-0.171,0.107-0.226,0.336-0.119,0.511l2.62,4.368c-0.069-0.018-0.143-0.039-0.242-0.065   c-0.172-0.072-0.678-0.887-0.791-1.039c0-0.002,0-0.002-0.002-0.004c-0.024-0.037-0.21-0.345-0.43-0.722   c-0.348-0.596-0.827-1.438-1.229-2.161c-0.201-0.361-0.383-0.693-0.513-0.947c-0.068-0.125-0.12-0.232-0.159-0.305   c-0.017-0.041-0.031-0.07-0.04-0.087c0-0.002,0-0.002-0.001-0.004c-0.084-0.295-0.118-0.545-0.118-0.758   c0.007-0.428,0.121-0.701,0.333-0.965c0.319-0.389,0.948-0.715,1.723-0.906c0.77-0.196,1.662-0.268,2.442-0.268   c0.847-0.002,1.591,0.088,1.851,0.151c0.586,0.134,2.11,0.615,3.408,1.533c1.311,0.935,2.351,2.207,2.353,4.056   c0.001,0.028,0,0.057,0,0.094c-0.052,2.27-0.937,3.729-2.252,4.725C95.444,37.66,93.631,38.131,91.832,38.127 M88.818,33.682   l0.262-0.209l0.008-0.006L88.818,33.682z M94.344,32.976l-1.211-2.066c0.123-0.094,0.728-0.307,1.201,0.441   C94.732,32.045,94.689,32.822,94.344,32.976 M100.045,45.83c-0.123,0.23-0.311,0.455-0.703,0.662   c-0.364,0.19-0.646,0.242-0.867,0.244c-0.348-0.002-0.596-0.135-0.785-0.285c-0.094-0.072-0.166-0.148-0.209-0.201   c-0.022-0.024-0.039-0.047-0.045-0.057l-3.887-6.707c0.182-0.027,0.36-0.06,0.541-0.095l3.322,5.621l0.008,0.011   c0.008,0.01,0.152,0.221,0.377,0.448c0.23,0.216,0.522,0.484,0.959,0.507c0.033,0,0.064,0,0.093-0.002   c0.2-0.017,0.347-0.195,0.333-0.4c-0.016-0.205-0.192-0.357-0.391-0.34h-0.019c-0.067,0.014-0.297-0.119-0.467-0.299   c-0.086-0.086-0.161-0.173-0.215-0.24c-0.037-0.049-0.061-0.08-0.071-0.096l-3.185-5.39c0.551-0.156,1.086-0.356,1.596-0.61   l3.674,5.788c0.035,0.119,0.105,0.396,0.103,0.699C100.207,45.34,100.164,45.601,100.045,45.83"/>
	<path style="clip-path:url(#SVGID_2_);fill:#FFFFFF;" d="M67.454,44.381c-0.248-0.424-3.619-6.113-3.894-6.576   c0.52-0.42,1.28-1.053,1.384-1.287c0.148-0.332,0.849-2.289,0.886-2.881c0.036-0.59-0.074-2.619-0.111-2.879   c-0.037-0.258-0.332-1.365-0.702-1.955c-0.369-0.592-1.586-1.516-2.03-1.736c-0.443-0.221-2.99-1.331-3.654-1.588   c-0.666-0.258-2.142-0.258-2.918-0.112c-0.774,0.149-2.436,0.481-2.584,0.666c-0.147,0.184-1.07,1.44-1.07,1.586   c0,0.149,0.369,2.326,0.589,2.66c0.223,0.33,2.438,3.618,2.438,3.618l1.182,0.537c-0.867-0.032-1.332-0.057-1.957-0.057   c-0.739,0-1.404,0.369-1.625,0.848c-0.221,0.48-0.739,2.254-0.739,3.361c0,1.107,0.075,3.729,0.149,4.281   c0.074,0.555,0.258,2.547,0.443,2.918c0.184,0.367,0.073,0.885,0.848,1.071c0.776,0.183,1.588,0.48,1.92,0.332   c0.334-0.149,1.625-1.293,1.588-1.588c-0.038-0.295,0.443-4.393,0.443-4.504c0-0.112-0.295-1.625-0.295-2.031   c0-0.407,0.701-0.258,0.701-0.258l0.627,0.222c0,0,1.293,2.547,1.403,2.731c0.111,0.185,2.29,4.062,2.437,4.172   c0.148,0.111,1.44,1.293,1.81,1.404c0.369,0.109,2.325-0.85,2.362-0.998C67.122,46.19,67.713,44.824,67.454,44.381 M60.12,34.463   c0.018-0.043,0.03-0.092,0.024-0.16c-0.038-0.406-0.221-0.776-0.516-1.33c-0.295-0.553-0.701-1.145-0.886-1.477   c-0.184-0.332-0.407-0.701-0.37-0.812c0.037-0.11,0.738-0.407,0.961-0.479c0.221-0.074,1.291-0.111,1.402-0.037   c0.111,0.074,0.813,1.291,0.813,1.291l0.22,1.33c0,0-0.664,0.848-0.738,1.033c-0.014,0.036-0.033,0.118-0.056,0.223   C60.729,34.192,60.518,34.369,60.12,34.463"/>
	<path style="clip-path:url(#SVGID_2_);" d="M55.155,45.709c-0.142-0.141-0.141-0.371,0.002-0.512c0.4-0.394,0.644-0.998,0.671-1.48   c0.028-0.455,0.038-2.055,0.037-3.518c0-1.467-0.001-2.89-0.001-2.892l-0.002-0.379l0.379,0.013c0.26,0.01,0.522,0.016,0.785,0.016   c1.737,0.002,3.497-0.166,4.839-0.957c1.339-0.793,2.139-2.127,2.345-4.418c0.017-0.199,0.193-0.348,0.392-0.33   c0.2,0.018,0.349,0.193,0.331,0.393c-0.205,2.474-1.17,4.093-2.7,4.982c-1.527,0.893-3.404,1.055-5.207,1.057   c-0.144,0-0.289-0.002-0.434-0.006c0.002,0.502-0.001,1.523,0,2.521c-0.001,1.473-0.008,3.051-0.04,3.565   c-0.043,0.666-0.34,1.402-0.883,1.947c-0.071,0.07-0.164,0.105-0.256,0.105C55.319,45.816,55.225,45.781,55.155,45.709"/>
	<path style="clip-path:url(#SVGID_2_);" d="M61.954,30.34c-0.414-0.617-1.448-1.195-2.639-1.189c-0.514,0-1.058,0.103-1.605,0.347   h0.001c-0.183,0.08-0.399-0.002-0.48-0.183c-0.082-0.184,0-0.399,0.184-0.481c0.641-0.285,1.289-0.41,1.9-0.41   c1.417,0.006,2.638,0.643,3.239,1.504c0.113,0.166,0.071,0.391-0.095,0.506c-0.064,0.043-0.134,0.064-0.205,0.064   C62.139,30.498,62.024,30.442,61.954,30.34"/>
	<path style="clip-path:url(#SVGID_2_);" d="M67.849,43.705l-0.028-0.068l-3.734-5.885c1.629-1.227,2.76-3.209,2.797-5.865v-0.114   c0.003-2.486-1.459-4.216-2.982-5.279c-1.535-1.078-3.174-1.584-3.911-1.758c-0.449-0.101-1.221-0.185-2.171-0.187   c-1.154,0.002-2.526,0.125-3.706,0.607c-0.589,0.242-1.14,0.584-1.563,1.086c-0.423,0.5-0.686,1.176-0.682,1.93   c0,0.383,0.063,0.781,0.184,1.199c0.056,0.176,0.102,0.254,0.181,0.418c0.266,0.527,0.817,1.516,1.328,2.414   c0.256,0.447,0.5,0.869,0.69,1.193c0.03,0.053,0.059,0.102,0.086,0.147c-0.319,0.098-0.73,0.217-1.13,0.484   c-0.423,0.264-0.841,0.836-0.824,1.532c0,0.043,0.001,0.084,0.004,0.123c0.001-0.006,0.001,0.08,0.001,0.199   c0,1.486-0.123,8.887-0.123,9.254c0.003,0.304,0.029,1,0.467,1.697c0.426,0.701,1.327,1.279,2.616,1.279h0.06   c0.135,0,0.275-0.006,0.419-0.015c0.859-0.063,1.543-0.543,1.977-1.119c0.44-0.584,0.68-1.262,0.723-1.92   c0.023-0.377,0.029-1.168,0.029-2.1c0-1.045-0.008-2.242-0.016-3.088l4.08,7.041l0.009,0.014c0.03,0.045,0.212,0.326,0.578,0.621   c0.363,0.291,0.937,0.598,1.679,0.596h0.004c0.466,0,0.984-0.123,1.521-0.403c0.634-0.326,1.077-0.799,1.331-1.299   c0.257-0.498,0.33-1.005,0.33-1.431C68.07,44.277,67.866,43.758,67.849,43.705 M58.244,38.047c-0.137,0-0.275-0.002-0.414-0.008   l-0.762-0.027l0.01,0.779c0,0.004,0.025,2.328,0.025,4.166c0.001,0.914-0.006,1.729-0.025,2.008   c-0.016,0.33-0.17,0.775-0.418,1.096c-0.254,0.326-0.555,0.523-0.937,0.552c-0.11,0.01-0.215,0.012-0.314,0.012   c-0.968-0.018-1.255-0.314-1.458-0.604c-0.199-0.3-0.236-0.722-0.233-0.886c0-0.324,0.122-7.528,0.122-9.039   c0-0.135,0.029-0.592,0.11-0.68c0.335-0.525,1.099-0.654,1.372-0.58c0.485,0.164,1.331,0.271,2.561,0.271h0.006   c0.492,0,1.049-0.029,1.679-0.099c1.452-0.18,2.465-1.572,2.474-2.961c0.002-0.485-0.13-0.977-0.426-1.402   c-0.528-0.774-1.309-1.018-1.968-1.012c-0.951,0.006-1.728,0.435-1.755,0.445l-0.342,0.186l2.332,3.916   c-0.127,0.047-0.258,0.076-0.393,0.09c-0.606,0.066-1.137,0.093-1.601,0.093h-0.131l-2.913-4.855   c-0.105-0.176-0.329-0.231-0.499-0.123c-0.172,0.107-0.225,0.336-0.119,0.511l2.619,4.368c-0.069-0.02-0.143-0.039-0.241-0.063   c-0.173-0.074-0.677-0.889-0.791-1.041c0-0.002,0-0.002-0.002-0.004c-0.025-0.037-0.211-0.345-0.43-0.72   c-0.347-0.598-0.828-1.44-1.23-2.163c-0.2-0.361-0.381-0.693-0.513-0.945c-0.067-0.127-0.12-0.232-0.158-0.308   c-0.018-0.04-0.032-0.069-0.039-0.086c-0.001,0-0.001-0.002-0.002-0.004c-0.084-0.295-0.118-0.545-0.118-0.758   c0.004-0.428,0.121-0.701,0.334-0.965c0.317-0.389,0.946-0.713,1.721-0.906c0.771-0.196,1.662-0.268,2.443-0.268   c0.846-0.002,1.59,0.088,1.851,0.151c0.585,0.134,2.11,0.615,3.407,1.533c1.311,0.935,2.351,2.209,2.353,4.056   c0.001,0.028,0,0.059,0,0.094c-0.051,2.27-0.935,3.729-2.253,4.725C61.857,37.58,60.043,38.051,58.244,38.047 M55.231,33.602   l0.263-0.209l0.006-0.006L55.231,33.602z M60.756,32.895l-1.21-2.067c0.122-0.09,0.728-0.305,1.201,0.445   C61.145,31.965,61.1,32.742,60.756,32.895 M66.457,45.75c-0.122,0.23-0.31,0.455-0.703,0.662c-0.364,0.188-0.644,0.242-0.867,0.244   c-0.347-0.002-0.597-0.135-0.785-0.283c-0.093-0.074-0.165-0.15-0.208-0.203c-0.023-0.025-0.038-0.045-0.045-0.057h-0.001   l-3.887-6.707c0.182-0.027,0.361-0.06,0.541-0.097l3.322,5.623l0.008,0.011c0.008,0.01,0.153,0.223,0.379,0.448   c0.229,0.216,0.521,0.484,0.958,0.509c0.033,0,0.064-0.002,0.092-0.004c0.2-0.017,0.348-0.195,0.333-0.4   c-0.016-0.205-0.192-0.357-0.392-0.34h-0.018c-0.066,0.014-0.298-0.119-0.466-0.299c-0.087-0.086-0.162-0.173-0.215-0.24   c-0.037-0.049-0.062-0.08-0.072-0.096l-3.185-5.39c0.55-0.156,1.087-0.358,1.598-0.611l3.672,5.789   c0.036,0.119,0.106,0.396,0.104,0.699C66.62,45.26,66.576,45.52,66.457,45.75"/>
	<path style="clip-path:url(#SVGID_2_);fill:#FFFFFF;" d="M102.957,26.307c0.25-0.178,1.35-1.1,1.811-1.027   c0.46,0.07,1.843,1.027,1.916,1.275c0.07,0.248,0.283,3.051,0.175,4.188c-0.105,1.134-0.105,4.859-0.105,5.675   c0,0.815-0.035,3.014,0.035,3.299c0.07,0.283,0.746,2.164,1.135,2.377c0.39,0.213,1.596,0.248,1.773,0.176   c0.178-0.07,1.563-1.063,1.598-1.313c0.035-0.248-0.143-6.384-0.108-7.023c0.037-0.639,0.108-5.676,0.143-5.959   c0.035-0.283,0.391-1.846,0.531-1.951c0.143-0.106,1.987-0.496,2.129-0.496c0.143,0,1.455,0.531,1.703,1.027   c0.248,0.496,0.639,9.152,0.532,10.147c-0.106,0.994-0.78,7.767-0.887,7.839c-0.106,0.071-2.057,1.561-2.483,1.666   c-0.425,0.108-3.05,1.35-4.185,1.278c-1.137-0.071-4.506-1.205-4.684-1.491c-0.175-0.283-1.346-3.439-1.346-3.724   c0-0.283-0.179-12.166-0.179-12.416C102.461,29.606,102.957,26.307,102.957,26.307"/>
	<path style="clip-path:url(#SVGID_2_);" d="M109.542,48.036c-1.644,0.015-2.954-0.149-4.161-0.916   c-1.171-0.596-2.09-1.584-2.873-3.047c-0.19-0.379-0.255-0.776-0.337-1.325c-0.075-0.541-0.127-1.197-0.168-1.937   c-0.081-1.477-0.111-3.277-0.111-5.029c-0.005-3.395,0.092-6.596,0.098-6.793c0.002-0.119,0.005-0.235,0.01-0.352   c0.047-1.094,0.251-2.053,0.699-2.82c0.433-0.768,1.23-1.332,2.18-1.354c0.123-0.006,0.245-0.006,0.366,0   c1.454-0.01,2.293,1.295,2.293,1.295c0.485,0.83,0.35,1.881,0.36,3.385c0.006,3.117-0.053,8.416-0.006,11.164   c0.014,0.52,0.184,0.826,0.422,1.053c0.237,0.222,0.582,0.355,0.946,0.371c0.377,0.014,0.757-0.098,1.032-0.311   c0.272-0.218,0.466-0.515,0.513-1.011h-0.001c0.012-0.221-0.003-2.006-0.025-4.102c-0.024-2.105,0.039-8.455,0.039-8.455   c0.058-0.982,0.322-2.057,0.867-2.604c0.549-0.556,1.293-0.818,2.016-0.785c0.838,0.035,1.656,0.444,2.244,1.153   c0.59,0.709,0.887,1.988,0.834,3.191c-0.002,0.025-0.004,0.053-0.004,0.09c-0.008,0.109-0.014,0.228-0.019,0.359   c-0.125,2.932-0.02,10.44-0.102,12.418c-0.01,0.19-0.018,0.321-0.035,0.455c-0.485,3.317-3.326,5.922-6.891,5.916   C109.667,48.041,109.603,48.039,109.542,48.036 M103.443,29.016v0.006c0,0.006-0.078,2.514-0.096,5.471   c-0.017,2.949,0.032,6.371,0.262,8.062c0.059,0.471,0.164,0.828,0.183,0.84c0.706,1.307,1.388,1.996,2.255,2.443   c0.87,0.446,1.693,0.657,3.277,0.766l0.466,0.002c2.743,0.123,4.995-2.02,5.391-4.682c0.25-1.365,0.145-13.015,0.145-13.179   c0.056-1.801-0.504-2.833-1.686-2.842c-0.349-0.012-0.66,0.097-0.92,0.357c-0.257,0.26-0.533,0.973-0.572,1.703v0.018   c-0.004,0.15,0,0.961,0.012,2.031c0.012,1.139,0.029,2.613,0.045,4.094c0.035,2.976,0.07,5.918,0.052,6.363   c0,0.012-0.001,0.024-0.003,0.057c-0.069,0.867-0.487,1.584-1.067,2.029c-0.58,0.447-1.291,0.643-1.988,0.615   c-0.672-0.029-1.35-0.271-1.877-0.758c-0.529-0.484-0.873-1.22-0.883-2.082c-0.045-2.863,0.014-8.152,0.006-11.185   c0.002-1.385-0.053-3.26-1.262-3.242c-0.076-0.004-0.16-0.004-0.248,0c-0.445,0.031-0.695,0.189-0.982,0.642   c-0.273,0.45-0.465,1.207-0.502,2.153c-0.004,0.101-0.008,0.205-0.008,0.31L102.716,29l-0.726-0.021L102.716,29l0.727,0.008V29.016   z"/>
	<path style="clip-path:url(#SVGID_2_);" d="M106.08,42.9c-0.799-0.664-0.774-1.635-0.777-1.756h-0.001v-0.006v-0.002l0.001-0.002   l0.046-12.664c0.001-0.201,0.164-0.363,0.364-0.361c0.201,0,0.363,0.164,0.361,0.363l-0.047,12.725   c0.006,0.162,0.069,0.801,0.51,1.139c0.154,0.127,0.18,0.355,0.054,0.511c-0.073,0.092-0.185,0.137-0.294,0.133   C106.222,42.978,106.143,42.953,106.08,42.9"/>
	<path style="clip-path:url(#SVGID_2_);" d="M108.283,45.879c-0.193-0.053-0.306-0.254-0.252-0.447   c0.056-0.194,0.256-0.305,0.449-0.25c0-0.002,0.148,0.041,0.404,0.09c0.254,0.048,0.612,0.103,1.008,0.119   c0.789,0.039,1.739-0.158,2.348-0.647c1.682-1.336,1.891-3.957,1.953-4.918c0.065-0.961-0.051-4.258-0.043-6.812   c0.008-2.557,0-4.768,0-4.772c0-0.201,0.16-0.363,0.362-0.363c0.201-0.002,0.365,0.16,0.365,0.361c0,0.004,0.168,8.86,0.043,11.619   c-0.01,3.03-1.446,4.862-2.229,5.454c-0.611,0.459-1.961,0.841-2.832,0.804C108.976,46.078,108.301,45.885,108.283,45.879"/>
	<path style="clip-path:url(#SVGID_2_);fill:#FFFFFF;" d="M124.301,25.471c0.521,0.441,1.322,1.443,1.162,1.924   c-0.16,0.482,0.041,1.164-0.842,1.846c-0.883,0.681-1.203,1.082-1.322,1.443c-0.121,0.361,0.039,1.764,0.24,2.164   c0.199,0.402,2.045,2.889,2.084,3.529c0.041,0.643,1.125,2.196,0.723,3.93c-0.219,0.945-2.365,4.572-2.527,4.893   c-0.161,0.32-2.204,2.003-2.967,2.003c-0.762,0-1.924-0.32-2.164-0.601c-0.242-0.279-1.043-1.041-0.883-1.643   c0.16-0.601,0.963-1.484,1.203-1.603c0.24-0.121,2.125-1.405,2.486-1.725c0.362-0.322,0.762-1.564,0.801-2.006   c0.041-0.441-1.162-3.088-1.443-3.447c-0.28-0.361-2.487-4.572-2.446-4.934c0.04-0.359,1.364-3.968,1.444-4.089   c0.08-0.12,1.242-1.444,1.523-1.444C121.655,25.711,124.301,25.471,124.301,25.471"/>
	<path style="clip-path:url(#SVGID_2_);" d="M117.685,47.152c-0.469-0.55-0.717-1.306-0.727-2.125c0-0.404,0.071-0.824,0.252-1.224   c0.332-0.678,0.952-1.192,1.59-1.711c0.639-0.5,1.297-0.936,1.639-1.157c0.186-0.117,0.477-0.375,0.689-0.689   c0.219-0.316,0.36-0.676,0.36-1.041c0-0.166-0.028-0.338-0.096-0.525c0-0.022-0.18-0.346-0.422-0.704   c-0.246-0.374-0.564-0.837-0.902-1.326c-0.674-0.984-1.406-2.049-1.799-2.857c-0.283-0.6-0.398-1.346-0.402-2.199   c0.002-1.19,0.25-2.573,0.851-3.832c0.598-1.252,1.578-2.405,3.039-2.957c0.594-0.223,1.139-0.328,1.641-0.328   c0.902-0.008,1.635,0.367,2.107,0.845c0.481,0.479,0.737,1.033,0.879,1.479c0.092,0.304,0.137,0.537,0.141,0.769   c0,0.02-0.002,0.037-0.002,0.047v0.012v0.014c-0.051,0.998-0.621,1.687-1.137,2.095c-0.521,0.424-0.99,0.711-1.209,1.02   c-0.148,0.207-0.234,0.4-0.24,0.787c0,0.023,0,0.045,0.002,0.068c0,0.006,0.004,0.016,0.008,0.03   c0.01,0.035,0.031,0.089,0.064,0.158c0.067,0.136,0.178,0.322,0.319,0.535c0.283,0.426,0.685,0.961,1.103,1.541   c0.834,1.174,1.766,2.502,2.01,3.894c0.084,0.51,0.125,1.016,0.125,1.512c0.002,2.76-1.277,5.24-3.401,6.99   c-0.378,0.313-0.994,0.754-1.74,1.137c-0.746,0.377-1.615,0.703-2.535,0.707c-0.012,0.002-0.023,0.002-0.035,0.002   C119.099,48.119,118.277,47.834,117.685,47.152 M122.271,26.164c-1.023,0.387-1.752,1.201-2.242,2.225   c-0.49,1.017-0.711,2.22-0.709,3.205c-0.004,0.699,0.119,1.295,0.258,1.566c0.457,0.955,1.834,2.846,2.605,4.016   c0.264,0.406,0.453,0.691,0.574,1.009c0.125,0.344,0.184,0.69,0.182,1.02c0,0.738-0.277,1.373-0.613,1.863   c-0.342,0.494-0.741,0.854-1.1,1.088c-0.322,0.209-0.949,0.623-1.527,1.078c-0.576,0.436-1.104,0.989-1.166,1.172   c-0.078,0.17-0.121,0.387-0.121,0.621c-0.01,0.469,0.201,0.998,0.365,1.166c0.316,0.35,0.646,0.463,1.115,0.473   c0.549,0.004,1.25-0.229,1.875-0.551c0.625-0.318,1.18-0.715,1.475-0.961c1.828-1.519,2.869-3.564,2.873-5.871   c0-0.418-0.035-0.844-0.106-1.277c-0.115-0.766-0.74-1.85-1.451-2.852c-0.707-1.019-1.463-1.937-1.851-2.719   c-0.11-0.23-0.206-0.457-0.221-0.753c-0.002-0.051-0.002-0.098-0.002-0.137c-0.018-1.018,0.514-1.76,1.033-2.19   c0.524-0.443,1.014-0.73,1.262-1.045c0.166-0.208,0.263-0.394,0.293-0.742c0,0,0-0.006-0.002-0.017   c-0.002-0.02-0.006-0.045-0.012-0.075c-0.01-0.064-0.031-0.146-0.06-0.24c-0.059-0.185-0.155-0.408-0.289-0.605   c-0.286-0.399-0.622-0.692-1.311-0.703C123.103,25.928,122.732,25.99,122.271,26.164l-0.258-0.678L122.271,26.164z"/>
	<path style="clip-path:url(#SVGID_2_);" d="M121.221,31.699c-0.057-0.162-0.076-0.348-0.08-0.611   c-0.006-0.799,0.309-2.258,1.844-2.901c0.55-0.22,0.877-0.603,0.879-0.828c0.017-0.199,0.193-0.348,0.392-0.33   c0.201,0.02,0.348,0.195,0.33,0.395c-0.078,0.677-0.646,1.146-1.322,1.433c-1.16,0.479-1.391,1.572-1.397,2.231   c-0.001,0.197,0.032,0.361,0.036,0.361c0.068,0.187-0.028,0.396-0.217,0.467c-0.041,0.013-0.082,0.021-0.125,0.021   C121.414,31.937,121.274,31.845,121.221,31.699"/>
	<path style="clip-path:url(#SVGID_2_);" d="M122.967,37.643c-2.121-3.1-2.107-3.076-2.244-3.246c-0.125-0.156-0.1-0.385,0.056-0.51   c0.157-0.125,0.387-0.098,0.512,0.057c0.168,0.213,0.156,0.193,2.276,3.291c0.113,0.164,0.07,0.39-0.096,0.504   c-0.063,0.043-0.133,0.062-0.203,0.062C123.153,37.801,123.037,37.747,122.967,37.643"/>
	<path style="clip-path:url(#SVGID_2_);" d="M118.76,45.396c-0.057-0.193,0.053-0.395,0.246-0.451   c0.188-0.057,0.385,0.049,0.445,0.234h0.002c0,0.002,0.004,0.008,0.006,0.016c0.01,0.017,0.03,0.045,0.061,0.074   c0.062,0.057,0.17,0.137,0.453,0.139c0.119,0,0.271-0.018,0.459-0.065c0.146-0.027,0.711-0.32,1.283-0.744   c0.584-0.426,1.221-0.992,1.662-1.582c0.934-1.236,1.281-2.998,1.385-3.789c0.035-0.262,0.045-0.41,0.045-0.41v-0.002v0.002   c0.012-0.201,0.185-0.354,0.385-0.34c0.201,0.012,0.353,0.186,0.339,0.387c-0.007,0.027-0.158,2.685-1.572,4.588   c-0.508,0.675-1.189,1.275-1.814,1.732c-0.637,0.459-1.172,0.766-1.537,0.863c-0.237,0.061-0.446,0.086-0.635,0.086h-0.025   C119.053,46.134,118.76,45.465,118.76,45.396"/>
	<path style="clip-path:url(#SVGID_2_);fill:#FFFFFF;" d="M134.68,25.565c0.521,0.441,1.324,1.443,1.164,1.926   c-0.162,0.48,0.039,1.162-0.844,1.845c-0.881,0.68-1.203,1.081-1.322,1.442c-0.121,0.361,0.039,1.766,0.24,2.166   c0.201,0.4,2.045,2.887,2.084,3.529c0.041,0.641,1.125,2.196,0.723,3.928c-0.219,0.945-2.365,4.572-2.525,4.893   c-0.163,0.322-2.208,2.005-2.967,2.005c-0.764,0-1.926-0.32-2.166-0.601c-0.242-0.281-1.043-1.043-0.883-1.645   c0.16-0.601,0.963-1.482,1.203-1.603c0.24-0.121,2.125-1.405,2.486-1.725c0.362-0.32,0.762-1.564,0.801-2.004   c0.041-0.441-1.162-3.088-1.441-3.449c-0.282-0.361-2.487-4.572-2.448-4.932c0.04-0.361,1.364-3.97,1.444-4.088   c0.08-0.123,1.244-1.447,1.523-1.447C132.034,25.805,134.68,25.565,134.68,25.565"/>
	<path style="clip-path:url(#SVGID_2_);" d="M128.06,47.099c-0.469-0.551-0.717-1.308-0.729-2.127   c0.002-0.402,0.071-0.824,0.254-1.224c0.332-0.678,0.952-1.19,1.59-1.709c0.639-0.502,1.295-0.936,1.637-1.157   c0.186-0.119,0.477-0.376,0.691-0.691c0.217-0.316,0.36-0.676,0.358-1.041c0-0.166-0.028-0.338-0.094-0.523   c0-0.024-0.18-0.346-0.424-0.707c-0.244-0.373-0.564-0.834-0.9-1.323c-0.674-0.984-1.406-2.05-1.799-2.857   c-0.285-0.6-0.398-1.348-0.404-2.199c0.002-1.19,0.252-2.573,0.851-3.832c0.598-1.254,1.58-2.407,3.041-2.957   c0.594-0.225,1.139-0.33,1.639-0.33c0.902-0.006,1.635,0.367,2.109,0.847c0.479,0.479,0.737,1.031,0.877,1.479   c0.094,0.302,0.139,0.535,0.141,0.767v0.047v0.014l-0.002,0.014c-0.049,0.996-0.619,1.685-1.135,2.095   c-0.523,0.424-0.99,0.709-1.209,1.02c-0.148,0.205-0.236,0.398-0.242,0.785c0,0.025,0.002,0.047,0.002,0.07   c0.002,0.004,0.004,0.016,0.008,0.03c0.012,0.033,0.033,0.087,0.066,0.156c0.067,0.136,0.178,0.324,0.319,0.535   c0.283,0.428,0.683,0.961,1.101,1.541c0.834,1.176,1.768,2.502,2.012,3.893c0.082,0.513,0.123,1.017,0.123,1.513   c0.002,2.76-1.277,5.24-3.399,6.992c-0.378,0.313-0.996,0.754-1.742,1.135c-0.746,0.377-1.615,0.705-2.535,0.709h-0.035   C129.472,48.064,128.652,47.781,128.06,47.099 M132.645,26.111c-1.021,0.387-1.75,1.201-2.242,2.225   c-0.49,1.017-0.711,2.22-0.709,3.205c-0.004,0.699,0.121,1.293,0.258,1.566c0.457,0.955,1.834,2.846,2.607,4.016   c0.264,0.406,0.451,0.691,0.574,1.008c0.125,0.343,0.182,0.689,0.182,1.019c0,0.74-0.277,1.375-0.615,1.865   c-0.34,0.492-0.739,0.854-1.098,1.086c-0.324,0.211-0.949,0.625-1.527,1.08c-0.576,0.436-1.106,0.987-1.168,1.172   c-0.078,0.17-0.121,0.387-0.121,0.619c-0.01,0.471,0.203,0.998,0.365,1.168c0.318,0.348,0.646,0.463,1.115,0.471   c0.551,0.006,1.25-0.227,1.875-0.549c0.625-0.318,1.18-0.715,1.475-0.961c1.83-1.519,2.871-3.564,2.873-5.873   c0-0.416-0.033-0.842-0.106-1.275c-0.113-0.768-0.74-1.852-1.449-2.852c-0.709-1.019-1.465-1.937-1.853-2.719   c-0.11-0.23-0.204-0.457-0.219-0.753c-0.002-0.051-0.004-0.098-0.004-0.139c-0.016-1.016,0.514-1.758,1.035-2.19   c0.522-0.443,1.014-0.73,1.262-1.044c0.164-0.208,0.261-0.393,0.291-0.741c0-0.002,0-0.006-0.002-0.019   c0-0.018-0.004-0.043-0.01-0.074c-0.012-0.063-0.031-0.147-0.06-0.239c-0.059-0.185-0.157-0.408-0.29-0.607   c-0.285-0.399-0.621-0.69-1.312-0.701C133.479,25.875,133.107,25.937,132.645,26.111l-0.256-0.68L132.645,26.111z"/>
	<path style="clip-path:url(#SVGID_2_);" d="M131.594,31.646c-0.055-0.162-0.076-0.348-0.078-0.613   c-0.006-0.797,0.308-2.258,1.844-2.899c0.55-0.222,0.875-0.603,0.877-0.828c0.017-0.201,0.195-0.347,0.394-0.33   c0.199,0.018,0.346,0.195,0.328,0.395c-0.078,0.677-0.646,1.144-1.32,1.433c-1.16,0.479-1.391,1.572-1.397,2.229   c-0.003,0.199,0.032,0.361,0.034,0.363c0.07,0.188-0.028,0.396-0.215,0.465c-0.041,0.015-0.084,0.023-0.125,0.023   C131.787,31.885,131.649,31.793,131.594,31.646"/>
	<path style="clip-path:url(#SVGID_2_);" d="M133.34,37.59c-2.119-3.1-2.107-3.078-2.242-3.246c-0.127-0.156-0.1-0.385,0.056-0.51   c0.157-0.127,0.385-0.101,0.51,0.055c0.17,0.213,0.158,0.195,2.278,3.291c0.111,0.166,0.07,0.392-0.096,0.506   c-0.063,0.043-0.133,0.062-0.205,0.062C133.526,37.748,133.412,37.694,133.34,37.59"/>
	<path style="clip-path:url(#SVGID_2_);" d="M129.133,45.344c-0.057-0.193,0.055-0.396,0.246-0.451   c0.19-0.057,0.385,0.049,0.447,0.232v0.002c0.002,0.002,0.004,0.008,0.008,0.014c0.01,0.016,0.028,0.045,0.059,0.076   c0.064,0.055,0.17,0.135,0.453,0.139c0.121,0,0.273-0.018,0.461-0.065c0.144-0.029,0.709-0.32,1.283-0.744   c0.582-0.426,1.219-0.992,1.662-1.582c0.932-1.236,1.281-2.998,1.383-3.789c0.035-0.264,0.045-0.412,0.045-0.412   c0.014-0.199,0.185-0.352,0.387-0.338c0.199,0.012,0.351,0.186,0.337,0.385c-0.007,0.029-0.158,2.687-1.572,4.588   c-0.508,0.674-1.189,1.277-1.814,1.734c-0.637,0.459-1.172,0.766-1.535,0.863c-0.237,0.059-0.448,0.084-0.637,0.086h-0.025   C129.428,46.082,129.135,45.412,129.133,45.344"/>
	<path style="clip-path:url(#SVGID_2_);" d="M17.592,47.175c-0.469-0.549-0.717-1.306-0.727-2.125c0-0.404,0.07-0.824,0.252-1.224   c0.331-0.678,0.95-1.19,1.59-1.709c0.639-0.502,1.295-0.936,1.637-1.157c0.186-0.119,0.478-0.375,0.691-0.691   c0.217-0.316,0.36-0.676,0.358-1.041c0-0.166-0.028-0.338-0.094-0.525c0-0.022-0.18-0.344-0.423-0.705   c-0.245-0.372-0.565-0.836-0.901-1.325c-0.675-0.984-1.406-2.05-1.799-2.857c-0.285-0.6-0.398-1.346-0.404-2.197   c0.003-1.192,0.251-2.575,0.851-3.832c0.598-1.254,1.58-2.407,3.041-2.957c0.594-0.225,1.139-0.329,1.639-0.329   c0.902-0.007,1.636,0.366,2.109,0.844c0.479,0.479,0.737,1.033,0.877,1.479c0.094,0.304,0.139,0.537,0.141,0.769v0.047   l-0.001,0.014l-0.001,0.012c-0.049,0.998-0.619,1.687-1.135,2.097c-0.523,0.422-0.99,0.709-1.209,1.018   c-0.148,0.207-0.236,0.4-0.242,0.787c0,0.023,0.001,0.045,0.002,0.07c0.001,0.004,0.004,0.014,0.009,0.03   c0.011,0.033,0.032,0.087,0.065,0.156c0.067,0.136,0.178,0.322,0.319,0.535c0.283,0.428,0.683,0.961,1.102,1.541   c0.833,1.174,1.767,2.502,2.009,3.894c0.084,0.51,0.125,1.016,0.125,1.512c0.003,2.76-1.277,5.24-3.399,6.992   c-0.378,0.313-0.996,0.754-1.742,1.135c-0.746,0.377-1.615,0.705-2.535,0.709h-0.034C19.004,48.143,18.184,47.86,17.592,47.175    M22.177,26.19c-1.022,0.385-1.751,1.201-2.243,2.225c-0.489,1.015-0.71,2.22-0.708,3.205c-0.005,0.697,0.12,1.293,0.258,1.564   c0.456,0.957,1.833,2.848,2.606,4.016c0.263,0.408,0.451,0.693,0.574,1.011c0.125,0.342,0.182,0.688,0.182,1.018   c-0.001,0.74-0.277,1.375-0.614,1.865c-0.341,0.492-0.74,0.852-1.099,1.086c-0.324,0.209-0.951,0.623-1.527,1.078   c-0.576,0.438-1.106,0.989-1.168,1.174c-0.078,0.168-0.121,0.385-0.12,0.619c-0.011,0.471,0.201,0.998,0.365,1.166   c0.317,0.35,0.645,0.465,1.114,0.473c0.551,0.004,1.251-0.229,1.875-0.549c0.625-0.318,1.18-0.717,1.476-0.961   c1.829-1.519,2.87-3.566,2.872-5.873c0-0.416-0.033-0.842-0.106-1.277c-0.113-0.766-0.74-1.85-1.449-2.85   c-0.708-1.021-1.464-1.937-1.853-2.719c-0.11-0.232-0.204-0.457-0.219-0.753c-0.002-0.051-0.003-0.098-0.003-0.139   c-0.018-1.016,0.514-1.76,1.034-2.19c0.523-0.443,1.012-0.73,1.262-1.046c0.165-0.205,0.262-0.393,0.291-0.741   c0,0,0-0.006-0.001-0.017c-0.001-0.018-0.005-0.043-0.011-0.073c-0.012-0.064-0.031-0.148-0.06-0.242   c-0.059-0.185-0.156-0.408-0.29-0.605c-0.285-0.399-0.621-0.692-1.312-0.701C23.01,25.954,22.639,26.016,22.177,26.19l-0.257-0.68   L22.177,26.19z"/>
	<path style="clip-path:url(#SVGID_2_);" d="M21.125,31.723c-0.055-0.16-0.076-0.348-0.078-0.611   c-0.007-0.797,0.308-2.258,1.844-2.901c0.549-0.22,0.876-0.601,0.877-0.828l0.001,0.002c0.016-0.201,0.194-0.348,0.393-0.33   c0.199,0.018,0.347,0.193,0.329,0.393c-0.079,0.679-0.646,1.146-1.321,1.435c-1.16,0.477-1.391,1.57-1.398,2.229   c-0.002,0.197,0.032,0.361,0.036,0.361c0.069,0.189-0.029,0.396-0.216,0.467c-0.041,0.015-0.084,0.021-0.125,0.021   C21.318,31.961,21.18,31.871,21.125,31.723"/>
	<path style="clip-path:url(#SVGID_2_);" d="M22.873,37.668c-2.121-3.102-2.108-3.078-2.243-3.248   c-0.126-0.156-0.101-0.385,0.056-0.51c0.157-0.125,0.385-0.099,0.51,0.057c0.17,0.213,0.158,0.193,2.278,3.291   c0.112,0.166,0.07,0.392-0.096,0.504c-0.063,0.043-0.135,0.064-0.205,0.064C23.058,37.826,22.943,37.77,22.873,37.668"/>
	<path style="clip-path:url(#SVGID_2_);" d="M18.665,45.42c-0.057-0.191,0.055-0.395,0.246-0.451   c0.189-0.055,0.386,0.049,0.447,0.234v0.002c0.002,0.002,0.004,0.008,0.008,0.014c0.009,0.017,0.028,0.045,0.059,0.074   c0.063,0.057,0.171,0.137,0.454,0.139c0.12,0,0.272-0.016,0.46-0.063c0.145-0.029,0.71-0.32,1.283-0.746   c0.582-0.424,1.219-0.992,1.661-1.582c0.933-1.236,1.282-2.996,1.384-3.787c0.036-0.264,0.045-0.412,0.045-0.412h0.001   c0.013-0.201,0.185-0.352,0.386-0.34c0.199,0.014,0.351,0.186,0.337,0.387c-0.007,0.029-0.158,2.685-1.572,4.588   c-0.507,0.675-1.188,1.275-1.814,1.734c-0.637,0.459-1.171,0.764-1.536,0.863c-0.237,0.059-0.447,0.084-0.635,0.084h-0.027   C18.96,46.158,18.666,45.488,18.665,45.42"/>
	<path style="clip-path:url(#SVGID_2_);fill-rule:evenodd;clip-rule:evenodd;fill:#58595B;" d="M3.049,19.32   c0.337-1.502,0.877-3.934,1.443-4.297c0.567-0.365,3.313-3.109,3.811-3.258c0.497-0.148,4.115-1.693,5.392-2.279   c1.276-0.588,4.752-2.059,5.392-2.209c0.64-0.15,4.474-1.555,5.116-1.562c0.642-0.008,3.991-0.336,3.991-0.336   s2.044-0.795,2.337-1.243c0.292-0.445,4.069-2.255,4.532-2.552c0.463-0.299,3.058-0.682,3.843-0.692   c0.785-0.01,2.695,0.483,3.147,0.674c0.451,0.193,1.508,0.836,1.515,1.336c0.006,0.5-0.257,2.215,0.318,2.635   c0.576,0.42,1.094,1.84,0.881,1.986c-0.212,0.145-0.335,1.715-1.675,2.945c-1.34,1.229-2.666,3.385-3.234,3.608   c-0.569,0.221-2.338,1.242-3.042,1.963c-0.704,0.722-2.752,2.388-4.878,3.414c-2.127,1.025-4.261,1.553-5.256,1.849   c-0.994,0.299-2.412,0.959-2.694,1.248c-0.282,0.29-2.472,1.815-3.18,2.323c-0.707,0.508-5.464,2.209-6.105,2.287   c-0.642,0.08-4.205,0.34-4.703,0.346c-0.5,0.005-2.64-0.11-3.572-0.456c-0.932-0.343-3.793-1.021-4.229-1.513   c-0.433-0.494-1.16-1.555-0.888-2.699C1.58,21.693,3.049,19.32,3.049,19.32"/>
	<path style="clip-path:url(#SVGID_2_);fill:none;stroke:#231F20;" d="M3.049,19.32c0.337-1.502,0.877-3.934,1.443-4.297   c0.567-0.365,3.313-3.109,3.811-3.258c0.497-0.148,4.115-1.693,5.392-2.279c1.276-0.588,4.752-2.059,5.392-2.209   c0.64-0.15,4.474-1.555,5.116-1.562c0.642-0.008,3.991-0.336,3.991-0.336s2.044-0.795,2.337-1.243   c0.292-0.445,4.069-2.255,4.532-2.552c0.463-0.299,3.058-0.682,3.843-0.692c0.785-0.01,2.695,0.483,3.147,0.674   c0.451,0.193,1.508,0.836,1.515,1.336c0.006,0.5-0.257,2.215,0.318,2.635c0.576,0.42,1.094,1.84,0.881,1.986   c-0.212,0.145-0.335,1.715-1.675,2.945c-1.34,1.229-2.666,3.385-3.234,3.608c-0.569,0.221-2.338,1.242-3.042,1.963   c-0.704,0.722-2.752,2.388-4.878,3.414c-2.127,1.025-4.261,1.553-5.256,1.849c-0.994,0.299-2.412,0.959-2.694,1.248   c-0.282,0.29-2.472,1.815-3.18,2.323c-0.707,0.508-5.464,2.209-6.105,2.287c-0.642,0.08-4.205,0.34-4.703,0.346   c-0.5,0.005-2.64-0.11-3.572-0.456c-0.932-0.343-3.793-1.021-4.229-1.513c-0.433-0.494-1.16-1.555-0.888-2.699   C1.58,21.693,3.049,19.32,3.049,19.32z"/>
	<path style="clip-path:url(#SVGID_2_);fill-rule:evenodd;clip-rule:evenodd;" d="M29.071,14.449   c0.225-0.049,0.286,0.07,0.432,0.102c-0.024,0.189-0.182,0.248-0.428,0.22C29.074,14.664,29.073,14.556,29.071,14.449"/>
	<path style="clip-path:url(#SVGID_2_);fill-rule:evenodd;clip-rule:evenodd;" d="M15.253,21.09c0.225-0.049,0.286,0.07,0.433,0.104   c-0.047,0.769-0.445,1.197-0.733,1.732C14.406,22.319,15.383,21.725,15.253,21.09"/>
	<path style="clip-path:url(#SVGID_2_);fill-rule:evenodd;clip-rule:evenodd;" d="M7.658,25.496c0.554,0.074,0.187,0.633-0.207,0.65   C7.395,25.808,7.598,25.723,7.658,25.496"/>
	<path style="clip-path:url(#SVGID_2_);fill-rule:evenodd;clip-rule:evenodd;" d="M12.182,33.846   c-0.395,0.027-0.412,0.152-0.754,0.01c-0.002-0.11-0.003-0.217-0.004-0.324C11.689,33.291,12.131,33.532,12.182,33.846"/>
	<path style="clip-path:url(#SVGID_2_);fill-rule:evenodd;clip-rule:evenodd;" d="M12.826,33.621   c0.146,0.07,0.204,0.229,0.222,0.428c-0.344,0.097-0.336-0.164-0.543-0.209C12.532,33.465,12.798,33.846,12.826,33.621"/>
	<path style="clip-path:url(#SVGID_2_);fill-rule:evenodd;clip-rule:evenodd;" d="M38.988,23.161   c-2.219,0.519-4.216,0.605-6.509,0.908c-2.097,0.242-6.072,0.342-8.454,0.359c-0.448,0.041-0.735,0.045-1.825,0.563   c-4.342,3.111-11.466,3.814-16.987,3.123c-0.757,0.65,0.557,1.191,0.237,1.722c1.233,0.246,1.176,0.787,2.384,1.047   c0.152,0.207,0.392,0.326,0.44,0.641c1.209,0.076,2.565,0.06,3.809-0.156c1.578-0.079,2.383,0.072,3.953,0.38   c1.081,0.784,2.092,1.639,3.049,2.547c-0.018,0.53,0.2,0.815,0.125,1.401c-0.143,0.072-0.197,0.234-0.209,0.433   c-1.537,1.155-1.613,3.055-2.639,4.453c-0.023,0.032-0.165-0.154-0.217-0.105c-0.248,0.234-0.539,0.779-0.954,1.197   c-0.362,0.365-0.981,0.719-1.172,0.985c-0.087,0.121,0.007,0.418-0.102,0.541c-0.128,0.144-0.526,0.211-0.643,0.332   c-0.466,0.48-0.658,1.287-1.382,1.418c-0.112,0.5-0.309,0.257-0.421,0.759c-0.796,0.135-1.927,0.705-2.788,1.112   c-0.653-0.108-0.907-0.737-0.452-1.61c1.116-0.158,1.839-1.558,2.559-2.187c-1.221,0.199-2.448,3.133-3.971,1.344   c-0.509,0.109-0.523,0.285-0.968,0.011c0.13-0.763,1.209-1.562,1.91-2.287c1.478-1.529,3.316-3.037,4.9-4.48   c-2.861,1.037-5.154,3.89-6.928,6.013c-0.246-0.076-0.241-0.406-0.545-0.423c0.903-2.42,2.926-3.746,4.674-5.34   c-2.194,0.527-3.906,2.508-5.56,3.412c0.14,0.433-0.27,0.539,0.121,1.076c-0.481,0.168-0.781,0.066-1.08-0.203   c-0.023-0.49-0.094-0.42-0.01-0.861c3.096-3.245,7.889-5.657,11.99-6.186c-0.092-0.453-0.636-0.439-0.658-0.963   c0.24-0.264,0.342-0.66,0.636-0.871c-0.683-0.242-2.004-0.701-2.697-0.072c-0.316-0.076-0.532-0.254-0.758-0.422   c-0.714,0.357-1.144,0.392-1.939,0.133c-0.754,0.453-1.037,0.306-2.045,0.134c-0.436-0.076-0.914,0.051-1.187-0.093   c-0.382-0.205-0.678-1.106-0.987-1.389c-0.29-0.264-1.164,0.088-1.513-0.305c-0.791-0.888-0.235-2.17-0.259-3.445   c-0.81-0.603-1.8-0.592-2.603-1.26c-1.552-1.287-1.245-3.898-0.931-5.484c0.368-0.924,0.738-1.195,1.272-1.633   c-0.309-1.334,0.483-2.365,1.251-3.355c3.86-4.979,10.571-7.602,16.903-9.807c0.174-0.035,0.451-0.133,0.324-0.088   c2.547-0.558,5.942-1.678,8.599-1.531c3.719-2.508,6.22-4.344,11.261-4.346c2.069-0.002,3.597,0.926,4.234,2.424   c0.525,1.238,0.094,3.428,1.126,3.865c0.071,0.03,0.143,0.057,0.217,0.106c0.465,0.31,2.03,1.199,2.281,1.371   c1.064,0.734,2.44,1.236,3.365,2.006c0.17,0.14,2.458,1.189,2.415,3.418c-0.069,3.482-7.248,7.759-9.699,8.527   C43.337,22.206,39.374,23.071,38.988,23.161 M37.865,2.592c0.163-0.385-0.366-0.06-0.327-0.318c0.176-0.613,1.082-0.113,1.828-0.24   c-0.512-1.143,2.491-0.002,1.393-0.772c-0.763,0.012-1.256,0.262-1.942-0.082c-0.973,0.219-2.35,0.768-3.438,0.797   c-0.421,0.637-1.24,0.736-2.036,0.889c-0.47,0.826-2.076,0.818-2.778,1.867c0.612,0.185,1.612-1.008,2.148-0.567   c0.85-0.918,2.593-0.746,3.54-1.337c0.274,0.22,1.237,0.003,1.935-0.348c0.056,0.346,0.669,0.355,0.755,0.098   c-0.301-0.155-0.592,0.113-0.758-0.315C38.126,2.42,38.02,2.53,37.865,2.592 M42.077,3.293c0.17,0.512-0.084,0.27-0.098,0.756   c0.256-0.07,0.784,0.125,0.861-0.119c-0.062-0.119-0.13-0.592-0.121-1.076c-1.128,0.012-1.738-0.293-2.806-0.287   C40.366,3.082,41.326,3.418,42.077,3.293 M26.945,8.227c0.546-0.164,0.398-0.602,0.966-0.336c2.949-1.234,5.721-2.455,8.694-2.697   c1.198,0.26,1.742,0.529,3.134,0.715c-0.087-0.76,0.421-0.938,0.52-1.514c-0.346-0.273-0.495-0.447-0.227-0.859   c-1.713,0.087-3.469-0.303-4.842,0.599c-0.554-0.58-1.043,0.518-1.721,0.129c0.048,0.555-0.689,0.508-0.965,0.443   c-0.329,0.409-0.752,0.534-1.179,0.448c-0.763,0.586-1.973,1.351-2.783,1.543C28.277,7.467,27.212,7.457,26.945,8.227 M29.71,5.282   c-0.025-0.084-0.092-0.123-0.217-0.106c0.094,0.66,0.859-0.125,1.072-0.336C30.06,5.004,30.017,4.961,29.71,5.282 M25.949,6.192   c-0.21-0.428-0.331,0.219-0.542-0.209c-0.056,0.156-0.164,0.265-0.318,0.328c-0.014-0.133-0.035-0.256-0.219-0.213   c-0.056,0.49-0.747,0.125-0.857,0.334c1.582,0.031,2.42,0.291,3.765-0.478C27.535,5.311,26.421,5.877,25.949,6.192 M37.589,6.258   c-0.092,0.35,0.353,0.149,0.435,0.319C38.107,6.19,37.788,6.045,37.589,6.258 M42.771,7.055c0.23,0.276,1.09,0.494,1.186-0.014   c-0.374-0.052-0.365-0.5-0.762-0.529C43.246,6.879,42.878,6.838,42.771,7.055 M34.697,7.698c-0.539,0.396-0.893,0.972-1.274,1.523   c0.538-0.445,1.418-1.082,1.488-1.635c0.471-0.07,0.516-0.24,0.642-0.439c-0.23-0.336-0.441-0.059-0.757-0.205   c0.008,0.185-0.08,0.277-0.212,0.326c-1.3-0.223-3.265,0.348-4.513,1.025c0.573-0.193,0.58,0.106,0.652,0.424   c-0.559,0.069-0.505,1.026-1.068,0.768c0.141,0.267-0.051,0.338,0.114,0.429c0.428-0.396,0.859-0.792,1.277-1.201   c0.063,0.264,0.258,0.391,0.438,0.534c0.62-0.672,1.503-1.088,2.134-1.752c-0.017,0.236,0.092,0.341,0.326,0.32   C33.89,7.37,34.769,6.94,34.697,7.698 M21.024,8.733c1.525-0.625,3.305-0.569,4.402-1.35c-1.124,0.104-1.922,0.074-2.911-0.179   c-3.498,0.466-5.792,1.777-9.124,2.918c-0.237,0.158,0.138,0.261-0.105,0.326c-1.049,0.244-2.37,1.045-3.422,1.982   c0.25-0.037,0.442-0.217,0.647-0.008c1.009-1.144,2.894-1.156,4.283-2.101c0.916-0.16,2.2-0.311,2.898-0.899   c0.16,0.467,0.489-0.154,0.862-0.121C19.378,10.032,20.169,9.082,21.024,8.733 M25.322,7.707c0.542,0.071,0.415-0.386,0.754-0.009   c-0.084-0.33,0.293-0.209,0.208-0.541c-0.398,0.113-0.277,0.234-0.752,0.117C25.614,7.567,25.321,7.495,25.322,7.707 M35.88,7.467   c0.256-0.072,0.5-0.152,0.533-0.439c-0.43,0.064-0.324,0.064-0.754,0.011C35.585,7.332,35.876,7.252,35.88,7.467 M40.519,7.838   c-0.422-0.187-0.664,0.18-1.081-0.201c-0.015,0.127,0.022,0.305-0.103,0.324c-0.248,0.037-0.123-0.31-0.328-0.318   C39.262,8.309,40.077,8.051,40.519,7.838 M35.25,8.768c0.138-0.057,0.221-0.117,0.536-0.223c0.002-0.148-0.055-0.236-0.112-0.322   c0.151,0.006,0.411-0.029,0.214-0.109C35.7,8.123,35.553,8.092,35.456,8.01C35.563,8.426,34.999,8.407,35.25,8.768 M42.688,8.997   c0.013-0.237,0.269-0.235,0.536-0.223c-0.29-0.461,0.313-0.401,0.313-0.865C42.685,7.827,42.496,8.622,42.688,8.997 M26.849,9.09   c-0.31,0.407-0.588,0.846-0.846,1.303c0.211-0.035,0.215,0.143,0.326,0.211c1.602-0.615,2.943,1.215,4.544,1.453   c0.253-0.25,0.243-0.758,0.526-0.978c0.304-0.092,0.282,0.148,0.54,0.101c-0.135-0.58,0.72-0.779,0.305-1.512   c-0.159,0.129-0.302,0.274-0.426,0.436c-0.454-0.541-0.736,0.49-1.188-0.199c-0.135,0.293-0.313,0.545-0.746,0.547   c-0.215-0.073-0.292-0.284-0.331-0.534c-0.443,0.459-0.865-0.074-1.286,0.555c-0.163-0.125-0.483-0.088-0.436-0.426   c0.237-0.691,1.005-0.865,1.383-1.42c0.247-0.035,0.123,0.311,0.327,0.321c0.063-0.293,0.446-0.274,0.422-0.653   c-0.616-0.17-1.374,0.758-1.612,0.344C28.001,8.895,27.323,9.299,26.849,9.09 M38.165,9.164c-0.251-0.365-0.599-0.421-0.117-0.755   c-0.625,0.134-0.667,0.052-1.189-0.2c-0.097,0.295-0.583,0.211-0.421,0.758C37.144,8.61,37.617,8.901,38.165,9.164 M25.341,9.217   c-1.067-0.734-1.916-0.418-3.121,0.254c0.054,0.555-0.789,0.668-1.18,0.447c-0.228,0.336-0.863,0.108-1.288,0.446   c0.308,0.697-0.519,0.717-0.739,1.195c0.585,0.457,1.179-0.178,1.94,0.084C22.241,10.715,24.501,9.934,25.341,9.217 M39.567,9.36   c0.215-0.164,0.399-0.061,0.755-0.01c-0.27-0.48-0.319-0.25-0.44-0.75c-0.374,0.027-0.699,0.1-0.641,0.547   c0.127,0.017,0.307-0.022,0.325,0.105C39.507,9.252,39.444,9.34,39.567,9.36 M33.005,10.198c-0.041-0.381-0.014-0.555-0.115-0.647   C32.81,9.799,32.492,10.229,33.005,10.198 M34.407,10.289c0.005-0.068,0.014-0.13,0.107-0.111c-0.076,0.412,0.397,0.117,0.43-0.006   c-0.131-0.021-0.068-0.119-0.003-0.215C34.646,9.891,34.088,10.104,34.407,10.289 M6.11,22.391   c0.514-0.297,1.022-1.055,0.736-1.518c0.456,0.02,0.544-0.32,0.856-0.441c-0.35-0.643,0.518-1.043,0.85-0.98   c-0.024-0.895,0.521-0.86,0.953-1.305c0.234-0.244,0.334-0.678,0.527-0.869c0.08-0.078,0.52-0.112,0.645-0.225   c0.326-0.295,0.41-0.984,0.959-0.875c-0.266-0.441,0.397-0.306,0.533-0.437c0.144-0.139,0.117-0.551,0.312-0.758   c0.229-0.24,0.702-0.295,0.964-0.551c0.3-0.293,0.437-0.764,0.851-0.98c0.287-0.153,0.4-0.145,0.316-0.543   c0.85-0.094,1.189-1.455,2.035-0.889c0.341-0.412,0.709-0.797,1.391-0.879c-0.203-0.658,0.583-0.352,0.527-0.869   c-2.444,0.555-4.93,1.242-7.082,2.353c0.235-0.023,0.343,0.084,0.327,0.319c-0.53,0.426-0.739,0.519-1.502,0.558   c-0.2,0.192,0.152,0.332-0.209,0.434c-1.25,0.42-2.881,1.228-4.063,2.637c0.204,0.021,0.236-0.123,0.43-0.114   c-0.119,0.342,0.173,0.26,0.22,0.43c-0.214,0.145-0.359,0.358-0.421,0.65c0.787,0.479-0.246,1.268-0.514,2.055   c0.301,0.983-0.524,2.744-1.465,3.467c0.024-0.51,0.293-0.779,0.416-1.189c-0.971,0.597-0.619,1.843-0.288,2.697   c0.694-1.651,1.601-3.319,2.312-4.664c0.121,0.021,0.169,0.119,0.217,0.213C6.852,20.989,6.077,21.754,6.11,22.391 M40.977,9.989   c-0.148-0.004-0.237,0.052-0.322,0.111c0,0.072,0.002,0.145,0.002,0.217c0.409-0.094,0.335,0.31,0.652,0.314   c0.079-0.144,0.538-0.783,0.315-0.543C41.374,10.03,41.056,10.561,40.977,9.989 M35.704,10.594c0.082-0.24,0.667,0.012,0.533-0.439   C35.951,10.135,35.335,10.329,35.704,10.594 M36.243,10.588c0.315-0.033,0.334,0.239,0.649,0.205   c-0.12-0.375,0.402-0.134,0.324,0.104c0.377-0.133,0.353-0.16,0.644-0.223c0.014,0.131,0.035,0.254,0.219,0.213   c0.012-0.267-0.061-0.447-0.223-0.535C37.39,10.477,36.995,10.118,36.243,10.588 M27.854,11.987   c-0.695-0.073-0.822,0.388-1.503,0.342c-0.022,0.296-0.17,0.55-0.53,0.761c-0.18-0.543-0.859,0.248-1.082-0.31   c0.096-0.473,0.608-0.543,0.961-0.766c-0.004,0.186,0.086,0.275,0.22,0.32c0.089-0.412,0.846-0.732,0.524-1.191   c-2.008-0.09-3.451,1.574-5.373,1.252c-0.189,0.471-1.139,0.416-1.824,0.67c0.004-0.401-0.469-0.318-0.334-0.858   c-0.918,0.323-1.561,0.168-1.706,1.422c-0.952,0.325-1.661,0.828-2.355,1.215c0.493,0.043-0.16,0.467,0.114,0.539   c0.495-0.713,0.875-0.898,1.599-1.314c-0.164,0.424,0.284,0.22,0.329,0.428c-0.563,0.808-1.295,0.933-2.243,1.537   c-0.031,0.25,0.023,0.412,0.115,0.537c-0.324,0.185-0.662,0.791-0.962,0.658c-0.518,0.996-1.572,1.375-1.693,2.5   c-0.688,0.334-0.772,1.258-1.051,2.06c-0.304,0.875-0.686,1.657-0.51,2.27c-0.811,0.129-0.434,1.568,0.336,0.967   c-0.22-0.404,0.084-0.709,0.42-0.867c0.151,0.025,0.125,0.234,0.218,0.32c-0.406,0.23-0.147,0.478-0.421,0.76   c0.484-0.307,1.112-0.442,1.723-0.131c-0.125-0.414,0.376-0.387,0.1-0.647c-0.231-0.236-0.318,0.143-0.646,0.116   c-0.146-0.395-0.357-0.725-0.764-0.852c-0.025-0.309-0.021-0.59,0.315-0.543c-0.005-0.432-0.01-0.863-0.016-1.293   c1.317-1.767,2.303-3.855,4.247-5.012c1.063-1.64,2.632-2.129,4.49-2.966c-0.09,0.347,0.281,0.22,0.328,0.427   c-2.747,1.774-5.248,3.721-6.598,6.657c-0.075,0.332,0.299,0.203,0.223,0.535c-0.359,0.062-0.392,0.367-0.317,0.545   c0.129-0.194,0.331-0.317,0.424-0.545c0.122,0.021,0.17,0.117,0.219,0.213c-0.422,0.4-0.102,1.466-0.947,1.843   c-0.434-0.349-0.414-0.849-0.66-1.177c0.159-0.207,0.253-0.725,0.31-0.973c0.082-0.355,0.6-1.412,0.516-1.84   c-0.145,0.391-0.74,0.547-0.418,1.084c-0.988,0.586-1.552,2.016-0.928,3.244c0.613-0.174,0.773,0.057,1.19,0.309   c-0.159-0.756,0.714-0.508,1.285-0.555c0.211-0.586,0.068-0.514,0.531-0.654c0.072-0.43,0.072-0.434-0.012-0.86   c0.334,0.286,0.024-0.412,0.643-0.333c0.055,0.339-0.149,0.423-0.207,0.65c0.676-0.639,0.927-1.692,1.372-2.281   c0.146,0.103,0.219,0.285,0.329,0.427c-0.27,0.43-0.656,1.299-0.84,1.842c0.013-0.267,0.365-0.035,0.432-0.006   c0.313-0.474,0.4-1.17,0.951-1.412c-0.068-0.285,0.219-1.133,0.521-1.408c0.652,0.404-0.197,1.209-0.299,1.836   c1.073-0.676,0.93-1.877,1.797-2.717c0.156,0.059,0.265,0.164,0.328,0.319c-0.273,0.517-0.636,1.072-0.414,1.406   C20.45,20.153,20.96,20,20.52,19.946c0.021-0.334,0.294-0.422,0.422-0.653c-0.028,0.286,0.42,0.08,0.329,0.428   c-0.438,0.58-0.436,0.932-0.842,1.52c0.378-0.041,0.632,0.037,1.507-0.02c-0.001-0.142-0.003-0.287-0.004-0.43   c-0.425-0.095-0.267,0.377-0.751,0.225c0.032-0.352,0.103-0.738,0.31-0.975c0.431-0.177,0.791,0.268,0.863,0.098   c0.027-0.85,0.415-1.701,1.047-2.385c0.157,0.059,0.266,0.164,0.328,0.319c-0.349,0.054-0.389,0.963-0.309,1.082   c0.362-0.215,0.083-1.055,0.741-0.979c0.07,0.6-0.312,0.76-0.307,1.297c0.725,0.063,0.157-0.789,0.747-0.656   c-0.047-0.791,0.316-1.182,0.843-1.412c0.241,0.222-0.09,0.349,0.116,0.537c0.25,0.031,0.413-0.022,0.537-0.113   c-0.329-0.665,0.478-0.885,0.956-1.09c-0.269-0.014-0.036-0.366-0.005-0.432c-0.28-0.185-0.518,0.119-0.651-0.314   c0.123-0.477,0.934-0.752,0.739-1.196c-0.466,0.043-0.311,0.69-0.854,0.659c-0.004-0.215-0.295-0.133-0.221-0.428   c0-0.356,0.458-0.264,0.423-0.653c-0.354-0.109-0.266-0.673-0.656-0.746c0.505-0.882,1.047-1.484,1.927-0.996   c-0.101,0.328-0.278,0.582-0.311,0.975c0.127,0.015,0.306-0.022,0.325,0.103c-0.014,0.381-1.072,0.746-0.417,1.084   c0.247-0.41,0.331-0.672,0.85-0.98c0,0.107,0.088,0.127,0.109,0.213c-0.337,1.006-0.894,1.648-1.16,1.955   c1.251,0.047,0.676-1.488,1.701-1.854c0.002,0.143,0.19,0.096,0.217,0.213c-0.442,0.268,0.1,0.567-0.311,0.865   c0.255,0.03,0.204,0.374,0.543,0.317c0.743-1.193,0.415-1.35,0.395-2.807c-0.369-0.265-0.9-0.185-0.86,0.119   c-0.364-0.277-0.771,0.012-0.765-0.746C27.774,12.108,27.704,12.301,27.854,11.987 M32.702,11.817   c0.252,0.031,0.447,0.205,0.647-0.008c0.003-0.186-0.086-0.275-0.219-0.32C33.102,11.711,32.652,11.52,32.702,11.817    M34.106,12.122c0.076-0.221,0.332-0.43,0.1-0.647C33.571,11.592,33.396,12.258,34.106,12.122 M41.657,12.674   c0.607-0.135,1.602-0.97,1.278-1.31C42.673,11.784,41.985,12.045,41.657,12.674 M7.292,13.539c-0.141,0.088-0.388-0.07-0.539,0.008   c-0.395,0.203-0.716,0.817-1.17,1.2C5.059,15.19,4.326,15.448,4.2,16.166c1.624-0.988,2.837-1.8,4.274-2.857   c-0.125-0.338-0.012-0.242-0.008-0.645c0.414-0.201,0.963-0.267,1.178-0.662C8.536,12.043,8.154,13.002,7.292,13.539    M34.755,12.223c0.425,0.381,1.953,0.152,2.594,0.613c0.199-0.38,0.709-0.072,0.865,0.205c0.308-0.125,0.517-0.347,0.529-0.761   c-0.396-0.032-0.74-0.114-0.974-0.313c-0.051,0.129-0.112,0.248-0.211,0.328C36.77,11.997,35.031,11.379,34.755,12.223    M43.098,12.43c-0.402,1.09,1.631,1.145,2.464,2.242c1.171,1.002,2.439,1.246,2.391,1.586c0.287-0.004,0.575-0.008,0.862-0.011   c-0.019-0.268,0.165-0.336,0.209-0.541c-1.154-1.065-2.464-2.458-3.916-2.86C44.481,12.469,43.701,11.633,43.098,12.43    M33.363,12.995c0.161-0.022,0.399,0.033,0.431-0.114c-0.187-0.031,0.135-0.377-0.328-0.318   C33.434,12.707,33.315,12.77,33.363,12.995 M35.414,13.184c-0.226-0.061-0.352-0.223-0.543-0.316   c-0.052,0.129-0.112,0.246-0.212,0.326c-0.002-0.108-0.002-0.215-0.004-0.324c-0.148-0.002-0.236,0.054-0.322,0.113   c0.001,0.07,0.002,0.142,0.003,0.215C34.83,13.256,35.104,13.299,35.414,13.184 M35.522,13.289c0.188-0.009,0.336,0.02,0.433,0.104   C36.019,12.995,35.495,12.772,35.522,13.289 M31.537,13.448c-0.387,0.002-0.397,0.521-0.542-0.207   c-0.328-0.037-0.178,0.392-0.425,0.435c0.624,0.158,0.136,0.639,0.337,1.074c0.017-0.449,0.413-0.591,0.53-0.654   C31.122,13.95,31.462,13.565,31.537,13.448 M37.258,14.129c0.442-0.062,0.725-0.283,0.962-0.55   C37.594,13.039,37.524,13.858,37.258,14.129 M32.735,14.403c0.322,0.217,1.121-0.059,1.191,0.416   c0.405-0.338,1.331,0.385,1.503-0.449C34.359,14.758,33.71,13.76,32.735,14.403 M51.813,14.809   c0.079-0.355,0.803-0.633,0.528-0.977C52.161,14.102,51.282,14.516,51.813,14.809 M36.936,14.35   c-0.435-0.105-0.476,0.174-0.642,0.332c-0.181-0.344-0.555-0.088-0.752,0.117c0.451-0.172,0.023,0.557,0.33,0.533   c0.097-0.287,0.598-0.535,0.857-0.334c0.104-0.189,0.486-0.652,0.206-0.863C36.935,14.206,36.936,14.278,36.936,14.35    M43.632,15.452c-0.231-0.133-0.775-0.116-1.082-0.311c-0.266-0.17-0.368-0.477-0.545-0.531c-0.861-0.26-1.807,0.416-2.461,1.324   c1.098,0.391,2.08,0.898,3.135,0.822c0.594,0.955,1.822,1.26,2.718,1.905c0.475-0.247,0.886-0.555,1.283-0.879   C45.909,17.209,44.495,15.942,43.632,15.452 M31.556,14.85c-0.329,0.092-0.549,0.02-0.646,0.115   C31.118,15.084,31.579,15.372,31.556,14.85 M38.029,15.522c0.195,0.199,0.273-0.092,0.648-0.008   c-0.002-0.109-0.004-0.217-0.005-0.324C38.434,15.276,38.089,15.26,38.029,15.522 M12.936,16.809   c-0.011-0.121,0.155-0.17-0.002-0.215c-0.852,0.695-1.481,1.606-2.451,2.186c0.043,0.453-0.312,0.894-0.638,0.654   c-0.028,0.365-0.045,0.738-0.203,0.973c-0.18,0.002-0.36,0.007-0.54,0.007c-0.646,1.393-1.611,2.473-2.758,3.375   c0.005,0.288-0.033,0.616,0.117,0.752c0.819-0.123,0.587-1.271,1.491-1.31c-0.127,0.443-0.391,0.752-0.522,1.191   c0.239,0.28,0.353-0.338,0.645-0.008c0.27-0.744,0.932-1.148,1.05-2.277c0.107,0,0.129,0.086,0.216,0.106   c0.006-0.188-0.028-0.334-0.114-0.43c1.413-1.717,2.804-4.445,4.889-5.449c-0.017-0.578,0.488-0.485,0.529-0.762   C13.182,15.352,14.036,16.706,12.936,16.809 M34.151,15.571c0.612,0.242-0.062,0.316,0.01,0.861   c0.331-0.08,0.207-0.078,0.539-0.006c-0.047-0.756,1.127-0.32,1.172-0.984c-0.355,0.025-0.701,0.267-0.862-0.098   c-0.26,0.149-0.065,0.217-0.212,0.326C34.685,15.393,34.295,15.264,34.151,15.571 M28.771,16.286   c0.673-0.122,1.486,0.484,1.4-0.125c-0.17-0.071-0.762,0.041-1.08-0.204C29.127,16.206,28.78,16.081,28.771,16.286 M30.714,16.477   c0.222,0.252,0.424-0.154,0.647,0.1c0.023-0.205-0.124-0.239-0.113-0.43C30.997,16.186,30.785,16.262,30.714,16.477 M33.845,16.975   c-0.235,0.023-0.344-0.084-0.326-0.318c-0.29,0.004-0.577,0.007-0.864,0.011c0.018,0.332-0.306,0.414-0.528,0.76   c-0.018-0.383-0.362-0.43-0.761-0.422c-0.115,0.543-0.432,0.086-0.639,0.547c0.026-0.056,0.236,0.945,0.014,1.078   C31.706,17.899,32.856,17.684,33.845,16.975 M27.705,17.161c0.947-0.2,1.093,0.267,2.053,0.406   c-0.083-0.293,0.212-0.221,0.21-0.434C28.79,17.194,28.572,16.579,27.705,17.161 M4.02,19.077   c-0.435-0.034-0.427,0.363-0.748,0.441c-0.074,0.33,0.115,0.391,0.116,0.646c-0.153,0.043-0.18,0.131-0.323,0.002   C3.252,20.957,2.494,21.577,2.98,22c0.226-0.548,0.968-1.406,0.622-1.839c0.723-0.514,1.063-0.93,1.057-1.739   c0.839,0.024,0.202-1.179,0.957-0.982C5.157,17.174,3.721,18.243,4.02,19.077 M29.552,18.323c-0.305-0.315-0.453-0.489-0.866-0.203   c-0.441-0.262-0.896-0.352-1.619-0.196c-0.271-0.06-0.745-0.595-0.754,0.008c0.612,0.158,1.113,0.174,1.731,0.518   c-0.025-0.203,1.135-0.176,1.08,0.093C29.218,18.227,29.519,18.508,29.552,18.323 M24.61,19.571   c0.694,0.039,0.717-0.578,1.067-0.875c-0.16-0.055-0.274-0.157-0.434-0.211C24.94,18.756,24.657,19.049,24.61,19.571 M25.686,19.45   c0.096,0.156,0.166,0.339,0.435,0.318c0.172-0.516,0.575-0.586,0.525-1.086C25.926,18.748,25.899,18.86,25.686,19.45    M26.761,19.221c0.224,0.301,0.669-0.371,0.211-0.435C27.108,19.133,26.624,18.873,26.761,19.221 M4.679,20.039   c0.304-0.007,0.845-0.734,0.313-0.867C5.181,19.747,4.675,19.645,4.679,20.039 M28.052,18.989   c-0.843,0.099-0.672,1.191-1.275,1.523c1.009-0.371,1.984-0.693,2.572-1.217c-0.178-0.218-0.796,0.016-0.973-0.203   c-0.201,0.194,0.152,0.332-0.21,0.434c-0.272-0.135-0.337,0.058-0.433-0.102C27.954,19.391,27.945,19.133,28.052,18.989    M23.003,20.237c0.099-0.326,0.277-0.58,0.31-0.973C22.961,19.315,22.565,20.081,23.003,20.237 M25.597,20.852   c0.156-0.252,0.3-0.209,0.43-0.006c0.089-0.398,0.762-0.152,0.533-0.545C26.491,20.664,25.131,20.321,25.597,20.852 M2.464,23.838   c0.371-0.008,0.806,0.596,0.441,0.75c0.478,0.004,0.805-0.138,0.855-0.549c-0.16-0.125-0.273-0.123-0.431,0.004   c-0.547-0.625,0.25-0.707,0.195-1.619c0.414-0.166,1.114-1.711,0.52-1.515c-0.068,0.41-0.713,1.779-1.166,1.523   C3.393,22.848,2.571,23.627,2.464,23.838 M4.804,21.331c0.072-0.002,0.143-0.002,0.215-0.004c0.16-0.022,0.095-0.26,0.103-0.432   C4.64,20.909,4.987,21.143,4.804,21.331 M22.263,21.432c0.131-0.184,0.306-0.555,0.535-0.33c0.012-0.193-0.111-0.25-0.326-0.211   C22.519,21.122,21.665,21.077,22.263,21.432 M20.226,22.213c0.064-0.22,0.543-0.037,0.424-0.437   c-0.203,0.027-0.239-0.117-0.431-0.102C20.157,21.741,19.974,22.188,20.226,22.213 M22.17,22.62   c0.293-0.081,0.22,0.211,0.433,0.209c0.174-0.129,0.384-0.686-0.008-0.754c-0.179,0.341-0.5,0.14-0.862,0.119   c-0.023,0.154-0.174,0.183-0.211,0.326C21.847,22.436,22.435,22.307,22.17,22.62 M25.081,22.69   c0.725,0.338,1.201-0.369,1.611-0.451C26.394,21.864,25.112,22.133,25.081,22.69 M17.968,22.672   c0.023-0.084,0.089-0.127,0.215-0.111c-0.03,0.176,0.148,0.289,0.216,0.105c-0.324-0.066,0.1-0.232-0.005-0.429   C18.075,22.149,17.696,22.539,17.968,22.672 M15.819,23.239c0.271-0.035,0.59-0.487,0.209-0.541   C15.985,22.903,15.8,22.971,15.819,23.239 M19.477,22.76c0.002,0.145,0.004,0.289,0.006,0.432c0.414,0.049,0.569-0.153,0.641-0.44   C19.829,22.53,19.858,23,19.477,22.76 M16.468,23.338c0.267,0.012,0.445-0.06,0.536-0.222   C16.741,23.049,16.447,22.905,16.468,23.338 M20.347,23.289c0.143,0,0.287-0.003,0.431-0.005c-0.002-0.108-0.004-0.215-0.005-0.323   c-0.107,0-0.215,0.002-0.323,0.002C20.457,23.114,20.402,23.202,20.347,23.289 M18.737,23.848c0.006-0.187-0.028-0.334-0.113-0.43   c-0.438,0.274-0.567-0.05-0.758-0.314c-0.01,0.205-0.355,0.08-0.319,0.328c0.366-0.084,0.182,0.395,0.436,0.426   C18.236,23.44,18.302,23.903,18.737,23.848 M20.995,23.389c0.002,0.143,0.003,0.287,0.005,0.43c-0.199,0.09-0.434,0.144-0.534,0.33   c-0.02-0.127,0.013-0.305-0.114-0.32c-0.542,0.666-1.265,0.251-1.818,0.992c0.727,0.273,1.562-0.647,2.473-0.463   c0.049-0.805,1.385-0.352,1.494-1.096c-0.215,0.002-0.43,0.006-0.646,0.008c0.17,0.389-0.387,0.602-0.535,0.33   c-0.02-0.184,0.607-0.432,0.103-0.432C21.354,23.313,21.195,23.372,20.995,23.389 M19.278,24.057   c0.108-0.002,0.217-0.004,0.324-0.004c0.158-0.469-0.5-0.576-0.542-0.209C19.251,24.045,19.474,23.692,19.278,24.057    M17.018,24.194c-0.114-0.514-0.978-0.514-0.969,0.119c0.521-0.324,1.319,0.404,1.723-0.129c-0.117,0.484,0.436,0.279,0.651,0.422   c-0.098-0.344,0.353-0.152,0.318-0.434C18.216,24.356,17.706,23.92,17.018,24.194 M3.562,25.442   c0.144-0.002,0.289-0.004,0.431-0.006c0.027-0.246-0.031-0.404-0.221-0.428C3.774,25.221,3.479,25.149,3.562,25.442 M5.829,25.735   c0.196-0.192,0.008-0.373-0.327-0.319c-0.081,0.684,1.126,0.319,0.767,0.961c0.763,0.118,1.109-0.123,1.941,0.084   c0.273-0.414-0.19-0.888,0.199-1.189c-0.443-0.156-1.153-0.067-1.189-0.309C6.77,25.127,6.524,25.569,5.829,25.735 M13.153,25.428   c0-0.072-0.002-0.144-0.003-0.215c0.488-0.033,0.761,0.842,1.081,0.309c0.172,0.598,1.086,0.062,1.299,0.414   c-0.045-0.361,0.571-0.07,0.641-0.547c-0.502-0.004-0.567-0.01-1.184,0.231c0.18-0.584-0.686-0.096-0.547-0.639   c-0.634,0.047-0.72,0.349-1.078-0.096C13.293,25.008,12.868,25.311,13.153,25.428 M17.568,25.157   c-0.117-0.282-0.442-0.348-0.866-0.313c0.236,0.445-0.218,0.406,0.009,0.647c0.155-0.596,1.03,0.015,0.964-0.444   C17.67,25.114,17.66,25.174,17.568,25.157 M11.656,26.309c0.216,0.176,0.136-0.012,0.431-0.006   c-0.001-0.107-0.003-0.215-0.004-0.322C11.812,25.965,11.747,26.149,11.656,26.309 M11.651,25.985   c-0.462,0.013-0.755-0.209-1.187-0.199C10.645,26.354,11.546,26.729,11.651,25.985 M7.468,27.547   c0.192-0.359,0.883,0.317,0.967-0.228C7.966,27.27,7.31,27.198,7.468,27.547 M15.529,34.342c-0.006,0.295,0.183,0.215,0.005,0.43   c0.356-0.078,0.423-0.44,0.639-0.654C15.857,34.094,15.845,34.366,15.529,34.342 M10.075,37.643   c0.41,0.076,0.942-0.279,0.748-0.439C10.648,37.422,10.117,37.295,10.075,37.643 M12.248,39.018   c-1.567,1.486-3.235,2.875-4.685,4.477c-0.015,0.339,0.413,0.201,0.647-0.008c0.866-0.776,2.76-2.582,3.511-3.602   c0.477-0.029,0.481-0.521,0.853-0.656C12.403,39.221,12.485,38.956,12.248,39.018"/>
	<path style="clip-path:url(#SVGID_2_);fill-rule:evenodd;clip-rule:evenodd;" d="M9.074,35.178   c0.197,0.393,0.833-0.232,1.513,0.303c0.057,0.342-0.535,0.047-0.426,0.437c-0.943-0.07-2.344,0.653-3.006,0.901   c-0.281-0.317-0.609,0.091-0.652-0.424c0.752-0.348,1.215-0.326,1.607-0.774C8.415,35.811,8.796,35.535,9.074,35.178"/>
	<path style="clip-path:url(#SVGID_2_);fill-rule:evenodd;clip-rule:evenodd;" d="M4.359,37.285c0.11-0.115,0.667-0.309,0.854-0.658   c0.43,0.168,0.7-0.19,1.185-0.016c-0.278,0.856-1.495,1.283-2.143,0.891C4.313,37.4,4.551,37.334,4.359,37.285"/>
	<path style="clip-path:url(#SVGID_2_);fill:#FFFFFF;" d="M32.805,27.889c0.23-0.232,2.632-1.891,3.15-1.949   c0.52-0.059,2.885-0.461,3.232-0.461h3.057c0,0,3,1.556,3.29,1.674c0.288,0.115,3.403,2.711,3.519,2.884   c0.115,0.172,1.615,2.885,1.615,3.288c0,0.404-0.289,3.117-0.345,3.578c-0.059,0.461-0.174,3.576-0.463,3.98   c-0.288,0.404-3.923,4.733-4.5,4.904c-0.576,0.174-5.308,2.02-5.826,1.846c-0.52-0.172-6.002-2.422-6.002-2.422   s-3.172-4.039-3.403-4.5c-0.23-0.463-1.212-4.039-1.269-4.384c-0.059-0.348,0.519-4.963,0.806-5.309   c0.289-0.348,1.732-2.02,1.732-2.02l2.956,0.075c0,0,0.847,1.738,0.789,1.912c-0.059,0.175-3.037,5.707-1.883,7.195   c1.154,1.488,0.972,2.156,0.972,2.156s2.61,2.125,7.436,1.701c0.344-0.031,2.538-0.865,2.769-1.039   c0.23-0.171,1.486-2.468,1.544-2.757c0.057-0.288,0.236-2.903,0.121-3.248c-0.115-0.346-1.184-2.764-1.184-2.764   s-1.693-1.904-1.866-2.076c-0.173-0.174-2.749-0.352-2.749-0.352l-3.078,0.004c0,0-2.135,1.27-2.424,0.924   C34.513,30.383,32.805,27.889,32.805,27.889"/>
	<path style="clip-path:url(#SVGID_2_);" d="M39.817,24.262c-6.578,0-11.908,5.332-11.91,11.91   c0.002,6.578,5.332,11.908,11.91,11.908c6.577,0,11.908-5.33,11.909-11.908C51.725,29.594,46.394,24.262,39.817,24.262    M29.285,36.172c0-2.612,0.871-4.862,2.442-6.703c0.324-0.371,1.293-0.522,2.308,0.209c0.648,0.468,0.846,1.295,0.576,1.677   c-1.187,1.246-1.917,2.932-1.917,4.791c0,2.791,1.648,5.198,4.023,6.303l-0.451,0.477l-1.47,1.849l-0.169,0.561   c-0.828-0.471-1.589-1.047-2.258-1.717C30.462,41.711,29.285,39.082,29.285,36.172 M39.646,41.806   c-3.126-0.005-5.655-2.535-5.661-5.66c0.006-3.127,2.535-5.656,5.661-5.662c3.126,0.006,5.655,2.535,5.661,5.662   C45.301,39.271,42.772,41.801,39.646,41.806 M47.264,43.619c-1.908,1.908-4.537,3.086-7.447,3.086c-1.116,0-2.1-0.266-3.108-0.586   c-1.201-0.604-0.716-3.201,2.28-3.053c0.216,0.02,0.435,0.032,0.657,0.032c3.84,0,6.951-3.114,6.952-6.952   c-0.001-3.841-3.112-6.953-6.952-6.953c-1.128,0-2.193,0.272-3.133,0.748c-0.253,0.041-1.638,0.233-2.234-0.635   c-0.46-0.667-0.248-1.773,0.297-2.269c1.543-0.889,3.331-1.398,5.241-1.398c2.91,0,5.539,1.177,7.447,3.084   c1.908,1.91,3.086,4.539,3.086,7.449S49.172,41.711,47.264,43.619"/>
	<path style="clip-path:url(#SVGID_2_);" d="M32.171,40.021c-0.622-1.088-1.103-2.488-1.104-3.859c0-2.262,1.007-4.291,2.597-5.659   c0.153-0.13,0.381-0.113,0.512,0.039c0.131,0.153,0.114,0.381-0.038,0.512c-1.437,1.237-2.345,3.065-2.345,5.108   c-0.003,1.197,0.438,2.507,1.008,3.498c0.099,0.174,0.04,0.396-0.134,0.496c-0.058,0.031-0.12,0.047-0.181,0.047   C32.361,40.203,32.238,40.139,32.171,40.021"/>
	<path style="clip-path:url(#SVGID_2_);fill:#FFFFFF;" d="M39.646,43.098c0.255,0.006,0.684,0.123,0.641,0.25   c-0.043,0.129-0.687,1.459-0.687,1.459l-0.472,1.672c0,0,0.54,0.221,0.056,0.197c-1.553-0.074-3.802-0.941-4.557-1.34   c-0.246-0.129-0.516-0.744-0.516-0.744s1.484-2.771,1.673-2.658C35.971,42.045,37.826,43.055,39.646,43.098"/>
	<path style="clip-path:url(#SVGID_2_);" d="M36.997,45.469c-0.189-0.068-0.286-0.277-0.217-0.465   c0.069-0.189,0.278-0.285,0.466-0.217c0.532,0.196,1.226,0.307,2.003,0.307c1.902,0.002,4.295-0.662,6.18-2.16   c1.884-1.5,3.288-3.807,3.293-7.205c0-0.463-0.028-0.948-0.082-1.451c-0.022-0.2,0.121-0.379,0.32-0.401   c0.199-0.023,0.379,0.121,0.4,0.321c0.06,0.531,0.087,1.041,0.087,1.531c0.005,3.605-1.526,6.162-3.567,7.775   c-2.041,1.615-4.567,2.315-6.631,2.317C38.404,45.819,37.634,45.703,36.997,45.469"/>
	<path style="clip-path:url(#SVGID_2_);fill:#FFFFFF;" d="M75.748,25.504c1.09,0.182,5.205,0.242,5.688,0.242   c0.486,0,1.999,0.606,1.999,0.606s0.667,0.724,0.667,1.209c0,0.484,0.302,0.968-0.303,1.453c-0.607,0.484-0.364,0.726-1.453,0.847   c-1.089,0.122-2.846,0.122-3.329,0.122c-0.484,0-1.15,0.363-1.211-0.061C77.744,29.498,75.748,25.504,75.748,25.504"/>
	<path style="clip-path:url(#SVGID_2_);" d="M74.285,28.969l2.43,0.651l-2.433-0.92L74.285,28.969z M84.637,26.225   c-0.203-0.48-0.433-0.883-0.854-1.17c-0.259-0.156-0.461-0.187-0.724-0.24c-0.256-0.045-0.553-0.076-0.885-0.102   c-0.664-0.047-12.887,0.039-12.887,0.039s5.262,0.539,4.673,1.137c-0.571,0.607-1.04,1.387-1.052,2.291l1.374,0.52l-0.01-0.516   c-0.01-0.371,0.259-0.924,0.676-1.352c0.4-0.435,0.951-0.716,1.185-0.72c0.512-0.043,3.756-0.104,3.756-0.104   c0.744,0,1.477,0.018,2.068,0.057c1.069-0.018,1.652,0.459,1.633,1.785c0,0.426-0.109,0.789-0.315,1.027   c-0.208,0.239-0.534,0.44-1.235,0.469c-0.468,0.018-3.069,0.012-3.071,0.012l-0.686-0.006v0.016h-0.038v0.662l-1.53-0.41   l1.53,0.578v0.548h1.908v-0.019c0.672,0.002,1.464-0.002,1.935-0.018c0.969-0.025,1.746-0.377,2.225-0.947   c0.479-0.568,0.638-1.267,0.64-1.91C84.954,27.266,84.828,26.705,84.637,26.225"/>
	<path style="clip-path:url(#SVGID_2_);fill:#FFFFFF;" d="M70.046,25.435c-0.872,0.082-1.703,0.455-1.869,0.58   s-1.079,1.121-0.788,1.701s-0.622,1.369,0.456,1.782c1.08,0.416,3.362,0.832,3.528,0.832s1.244-0.416,1.328-0.208   c0.082,0.208,0.207,4.522,0.207,6.098c0,1.576-0.373,6.264-0.291,7.344c0.084,1.078,0.208,2.613,0.664,2.945   c0.457,0.332,1.993,0.996,2.158,0.996c0.166,0,1.37-0.25,1.66-0.83c0.289-0.58,0.994-3.277,0.994-4.066   c0-0.787-0.746-11.367-0.705-11.574c0.043-0.207,0.498-2.864,0.373-3.153c-0.123-0.291-0.787-1.701-1.409-1.908   c-0.623-0.209-2.698-0.457-3.029-0.457C72.991,25.517,70.046,25.435,70.046,25.435"/>
	<path style="clip-path:url(#SVGID_2_);" d="M75.537,24.789c0.78,0.084,1.469,0.543,2.057,1.143c0.568,0.609,1.035,1.39,1.046,2.295   v16.388c0.006,1.143-0.419,2.067-1.089,2.649c-0.666,0.584-1.513,0.832-2.329,0.851c-0.035,0.002-0.071,0.002-0.108,0.002   c-0.743,0-1.569-0.189-2.213-0.799c-0.645-0.613-1.007-1.574-1.002-2.855V30.756h-0.311c-0.711,0-1.618-0.004-2.133-0.023   c-0.971-0.028-1.749-0.383-2.225-0.954c-0.478-0.57-0.637-1.269-0.637-1.912c0.001-0.586,0.128-1.146,0.321-1.625   c0.205-0.48,0.435-0.883,0.857-1.17c0.261-0.154,0.463-0.185,0.724-0.238c0.257-0.043,0.555-0.074,0.887-0.098   C70.046,24.69,74.94,24.738,75.537,24.789 M69.596,26.088c-1.068-0.02-1.654,0.453-1.639,1.779c0,0.428,0.109,0.791,0.314,1.032   c0.208,0.236,0.532,0.439,1.233,0.47c0.471,0.018,3.071,0.02,3.072,0.02l0.687-0.004v0.685v14.393   c0.004,1.051,0.274,1.576,0.577,1.867c0.306,0.293,0.744,0.422,1.274,0.424c0.024,0,0.048,0,0.073-0.002   c0.569-0.014,1.098-0.189,1.463-0.512c0.36-0.326,0.619-0.795,0.626-1.625c0.001-0.455,0.001-16.025,0-16.388   c0.01-0.373-0.257-0.926-0.673-1.356c-0.399-0.435-0.948-0.717-1.183-0.722c-0.512-0.045-3.755-0.114-3.755-0.114   C70.92,26.035,70.187,26.051,69.596,26.088"/>
	<path style="clip-path:url(#SVGID_2_);" d="M76.641,30.435v14.227c0,0.201-0.164,0.363-0.363,0.363c-0.2,0-0.364-0.162-0.364-0.363   V30.435c0-0.201,0.164-0.363,0.364-0.363C76.477,30.073,76.641,30.235,76.641,30.435"/>
	<path style="clip-path:url(#SVGID_2_);" d="M80.639,29.066c-0.201-0.008-0.355-0.18-0.346-0.381   c0.01-0.199,0.182-0.353,0.381-0.344c0.18,0.01,0.344,0.014,0.491,0.014c0.677,0.004,1.031-0.107,1.158-0.207   c0.118-0.094,0.154-0.182,0.162-0.461c0-0.103-0.008-0.225-0.022-0.357c-0.018-0.201,0.127-0.377,0.326-0.397   c0.201-0.019,0.377,0.127,0.397,0.326c0.014,0.145,0.023,0.286,0.023,0.428c0.01,0.356-0.089,0.781-0.458,1.045   c-0.36,0.258-0.846,0.346-1.586,0.35C81.001,29.082,80.827,29.076,80.639,29.066"/>
</g>
</svg>